<svg xmlns="http://www.w3.org/2000/svg" viewBox="0 0 145.01 177.04"><defs><style>.cls-1{isolation:isolate;}.cls-2,.cls-3{fill:#eaeaea;}.cls-2,.cls-3,.cls-4{stroke:#7e7f7f;stroke-miterlimit:10;}.cls-2,.cls-4{stroke-width:0.5px;}.cls-3{stroke-width:0.54px;}.cls-4{fill:#fff;}.cls-5,.cls-6{fill:#7e7f7f;}.cls-5{opacity:0.54;mix-blend-mode:darken;}.cls-6{opacity:0.13;mix-blend-mode:multiply;}</style></defs><title>anger_speech</title><g class="cls-1"><g id="Layer_2" data-name="Layer 2"><path class="cls-2" d="M84.35,100.94,55.17,142.41l46.38-27.47,1.31,17.36,17.27-12.87,6.59,13.16,7.18-11.67L143,137l4.24-20.7,9,8.31.17-7.22A26.06,26.06,0,0,1,172.1,99l25.34-1.69-17-15-5-4.36,21.12-5.27-15.68-5.58,12.38-12.7L175.81,52.6l-7.16-12.88,9.6-28.37L144.37,32.78l-15.45-3-9.87-8.32,1.86,6.4L107.66,29,96.94,32.5,83.47,54.13l-9.12,4.45L56.41,67.34,75.69,78.49l-15.15,8.3,24,4.92L71.36,103.23Z" transform="translate(-53.05 -4.18)"/><polygon class="cls-2" points="114.79 85.33 130.37 104.64 102.59 99.56 114.79 85.33"/><polygon class="cls-2" points="82.27 21.65 101.58 5.05 102.93 25.37 82.61 39.26 82.27 21.65"/><polygon class="cls-3" points="60.34 32.88 64.82 1.55 88.28 33.84 64.83 45.38 60.34 32.88"/><path class="cls-4" d="M82.42,98.43,54.16,140.54,100,112l1.73,17.31,17-13.27,6.93,13,6.92-11.83L142.13,133l3.74-20.76,9.23,8.07v-7.21l13,3.18s-11.25-15.87,2.31-21.92l25.38-2.31L178.35,77.57l-5.08-4.23,21.06-5.77-15.86-5.19,12.11-13L173,48l10.38-17.3-17.88,4.61,8.94-28.55L141,28.93,137.8,5,125.4,26.33,117.61,8.45l-2.31,9.8,2,6.35L109.82,5l-5.77,21L90.21,15.37l3.17,14.42L64.83,18.25,80.4,51.71l-9,4.67L53.58,65.56,73.19,76.23l-15,8.65,24.22,4.33L69.44,101Z" transform="translate(-53.05 -4.18)"/><path class="cls-5" d="M86.75,179s15.87-2.69,19.77,1.46S103.35,171.14,86.75,179Z" transform="translate(-53.05 -4.18)"/><polygon class="cls-6" points="11.55 126.35 51.53 96.02 46.97 107.81 6.99 131.98 11.55 126.35"/></g></g></svg>