<svg id="Layer_2" data-name="Layer 2" xmlns="http://www.w3.org/2000/svg" viewBox="0 0 143.07 144.32"><defs><style>.cls-1{fill:#66849f;}.cls-2{fill:#7795aa;}.cls-3{fill:#9fbad1;opacity:0.75;}.cls-4{fill:#9e9e9e;}.cls-5{fill:#fcfcfc;}</style></defs><rect class="cls-1" width="143.07" height="144.32" rx="25.18"/><rect class="cls-2" x="3.11" y="3.49" width="136.85" height="137.34" rx="26.52"/><rect class="cls-3" x="5.92" y="7.28" width="131.23" height="129.76" rx="25.25"/><path id="Arrow_Grey" data-name="Arrow Grey" class="cls-4" d="M77.48,61.72l-.39,27.84s.36,3.19,4.46,3.25l42.73-.6s1.22-.32,1.09,2.28v20.23s.45,4.16,4.57,1.68l42.83-37.3A4.31,4.31,0,0,0,174.16,77a4.14,4.14,0,0,0-.91-3.84L131.77,36.76s-6.35-5.43-6.5-.06V58.47s.13,1.3-2.23,1.22l-42.43,0S77.63,59.47,77.48,61.72Z" transform="translate(-53.46 -3.16)"/><path id="Arrow_White" data-name="Arrow White" class="cls-5" d="M78.05,62.21l-.25,26.3s-.6,3.3,3.41,3.36l42.63-.68s2.55-.6,2.42,1.86l-.37,20.36s-.29,4.47,3.74,2.13l42.57-37s3.11-3.19-.47-5.73L131.48,37.54s-5.45-5.23-5.6-.15l.23,22.17s0,1.36-2.31,1.28l-42.69-.57S78.2,60.08,78.05,62.21Z" transform="translate(-53.46 -3.16)"/></svg>