<?xml version="1.0" encoding="utf-8"?>
<!-- Generator: Adobe Illustrator 24.0.1, SVG Export Plug-In . SVG Version: 6.00 Build 0)  -->
<svg version="1.1" id="Layer_1" xmlns="http://www.w3.org/2000/svg" xmlns:xlink="http://www.w3.org/1999/xlink" x="0px" y="0px"
	 viewBox="0 0 124.1 142.6" style="enable-background:new 0 0 124.1 142.6;" xml:space="preserve">
<style type="text/css">
	.st0{fill:#D4B591;}
	.st1{fill:#FDE246;}
	.st2{opacity:0.41;fill:#FFFFFF;enable-background:new    ;}
	.st3{opacity:0.34;fill:#F2B114;enable-background:new    ;}
	.st4{opacity:0.14;fill:#F1C119;enable-background:new    ;}
	.st5{opacity:0.57;fill:#D9B91C;enable-background:new    ;}
	.st6{opacity:0.53;fill:#FFFFFF;enable-background:new    ;}
	.st7{opacity:0.75;fill:#FFFFFF;enable-background:new    ;}
	.st8{opacity:0.42;fill:#FFFFFF;enable-background:new    ;}
	.st9{opacity:0.56;fill:#FFFFFF;enable-background:new    ;}
	.st10{fill:#F6E6D1;}
	.st11{fill:#FFDC47;}
	.st12{fill:#DFC69C;}
	.st13{fill:#876318;}
	.st14{opacity:0.26;fill:#D4B591;enable-background:new    ;}
	.st15{opacity:0.3;fill:#D4B591;enable-background:new    ;}
	.st16{opacity:0.2;fill:#D4B591;enable-background:new    ;}
	.st17{opacity:0.57;fill:#F9F4ED;enable-background:new    ;}
	.st18{opacity:0.7;fill:#C4A672;enable-background:new    ;}
</style>
<title>banana</title>
<g>
	<g id="Layer_3">
		<path class="st0" d="M14,81.6c2.1-3-2.7-1.8-2.7-1.8C6.9,84.8,11.9,84.6,14,81.6z"/>
		<path class="st1" d="M38.4,130.2c-27.1,1.6-36.7-15-36.7-15c1-0.2,4.2-5.1,4.2-5.1c1.3-1-0.7-3-0.7-3c41.5-6.1,51.3-32.7,53-35.4
			s0.3-18.1,0.3-18.1c1.2,0.3,2.4,0.4,3.7,0.4c2,0,11.3,8.2,11.6,15.3s1.4,4.4,1.4,4.4c3.4-1.2,9.6-7.1,9.6-7.1
			c7.2-4.4,5.2,31.7,5.2,31.7C89.5,101.6,65.5,128.6,38.4,130.2z"/>
	</g>
	<g id="Layer_5">
		<path class="st2" d="M59.2,68.8c-0.3,0.4-0.4,1-0.4,1.5C59.6,82.7,39,94.6,39,94.6c6.9-4.1,13.6-8.6,20-13.5
			c0.1-0.1,1.3-0.9,1.4-0.9c1.1-0.6,4-0.8,3.4-5c-0.5-3.5-1.3-5.8-3.2-6.8C60,68,59.6,68.2,59.2,68.8L59.2,68.8z"/>
		<path class="st3" d="M89.9,83.6c-0.2,1.8-0.4,3.4-0.4,4.3C89.2,89,88.8,90,88.4,91c-2,4.7-4,5.5-5.9,6.5c-0.7,0.4-1.6,0.4-2.3,0
			c-1.2-0.6-1.8-2.1-1.1-3.4c1.1-2.1,2.1-5.1,1-7.7c-2-4.9-15,4.1-11.9,1c2.3-2.4,4.7-6.2,5-7.8c0.1-0.6,0.4-1.1,0.8-1.4l3-2.7l0,0
			C91.6,66.2,90,83.6,89.9,83.6"/>
		<path class="st3" d="M59.5,55.3L60,67.6c4.7,0.7,5,10.1,5,10.1c5.6-3.8,5.6-7.3,5.6-7.3c-0.7-8-5.8-12-9.5-14.2
			C60.8,55.9,59.5,55.3,59.5,55.3z"/>
		<path class="st4" d="M9.7,108.2c12.2-5.1,20.1-7.2,26.7-11.9c5.2-3.6,9.9-7.7,14.2-12.3c9.3-10,7.8-16.5,9-16.5
			c4.8-0.5,5.3,10.1,5.3,10.1C49.9,102.7,9.7,108.2,9.7,108.2"/>
		<path class="st5" d="M4.9,112.7l-1.7-1l-1.6,3.4l0,0c1.8,3.7,10.1,9.5,10.1,9.5c3.3,0.8,16.3-4.7,23.3-7.9
			c0.1-0.1,0.2-0.3,0.2-0.5c0-0.3-0.3-0.5-0.6-0.5c-5.4,1-13.9,1.9-18-0.7c-6.3-4-11.8-2.3-11.8-2.3"/>
	</g>
	<g id="Layer_4">
		<path class="st6" d="M73.3,78.3c0.6-1.2,0.8-2.7,0.2-3.2c-1.4-1-3.9,0.4-4.7,2c-3.9,8.2-17.1,20.9-29.4,26.2
			c-1.5,0.7-34.9,4-34,5.2c0.2,0.3-2.1,2.8,2.5,2.5c8.9-0.6,31.6-2,32.4-2.2c24-7.8,34.5-31.8,34.5-31.8L73.3,78.3z"/>
		<path class="st7" d="M40.5,103.9c-14.2,5-27.4,3.3-30.7,3.9s-3.2,2-2.8,2.4c0.2,0.2,14-0.4,23.7-1.2c3.9-0.3,7.7-1.1,11.4-2.2
			c15.7-5.6,28.2-24.5,29.8-27.3c0.8-1.4,0.1-1.3-0.7-0.9c-1.1,0.7-2,1.5-2.6,2.6C63.7,87.1,52.5,99.8,40.5,103.9z"/>
		<path class="st8" d="M80.3,107.7c1-0.8,4.6-3.5,4.2-4.2c-0.8-1.5-9.5,6-11.5,7.7c-4.5,3.9-21,8.7-34.8,10.5
			c-7.2,0.9-12,2.1-16.8,2.1c-2.7,0-3.7,2.8-0.5,3.7c22,5.9,51.2-11.6,53.1-13.7L80.3,107.7z"/>
		<path class="st9" d="M25.3,124.7c-5.9,0.4-3,2.3-3,2.3c16.4,3,39.5-7.2,42.2-8.8c2.7-1.6,0.7-1.9,0.7-1.9
			C48.7,122.9,31.1,124.3,25.3,124.7z"/>
	</g>
	<g id="Layer_2_1_">
		<path class="st10" d="M86.8,64.3c-3.6-1.3-13.5,14-13.5,14c2.7-10.8-5.3-21-5.3-21c6.6-8.2,7.5-41.9,7.5-41.9
			C77.5-0.8,88.2,0,88.2,0c23.7,4.4,12.8,65.2,12.8,65.2C97.9,65.2,86.8,64.3,86.8,64.3z"/>
		<path class="st11" d="M89.5,65.2c-4.6-0.7-6.5,0.1-8.3,1.6c-3.5,2.9-4,8.1-4,8.1c22-31.5,9.4,48.1,9,51.2c0,0.1,0,0.1,0,0.2
			c0.1,1.7,1.8,24.5,15.9,12.9c14.7-12.1,18.5-49.7,20-57.7c1.4-8-5.1-9.9-5.1-9.9l-18-5.3h-0.2L89.5,65.2z"/>
		<path class="st12" d="M91.3,63.7c-4.2-0.7-8.4,0.7-11.3,3.7c-0.8,0.8-7.7,11.1-6.6,11.3c0.6,0,1.1-0.3,1.5-0.7
			c0.8-0.8,1.5-1.7,2.1-2.6c2.3-3,5.2-7.2,5.4-7.3c15.3-14.1,8.4,37.4,6.1,52.6c-0.7,4.2-0.4,8.5,0.8,12.5c1.8,6,5.8,11.8,14.5,4.6
			c14.7-12.1,18.6-49.7,20-57.7s-5.1-9.9-5.1-9.9l-18-5.3h-0.2L91.3,63.7z"/>
		<path class="st11" d="M59.1,48c-0.2-0.1-0.4-0.3-0.6-0.4c-8.7-4.5-19.2-3.5-27,2.3C19.2,58.9,7.3,81.6,5.1,86.9
			C4.6,87.9,4.6,89,5,90c2.4,5.9,17.6-8.8,19.9-12c0.2-0.3,0.4-0.6,0.6-0.9c5.7-10.4,15.1-18.3,26.3-22c19-6.1,21.4,17.7,22,16.4
			C74.1,60.3,61.1,49.6,59.1,48z"/>
		<path class="st12" d="M57.3,46.6C48.6,42,37.9,42.8,30,48.8C17.7,57.7,7.7,80.1,5.4,85.4c-0.4,1-0.5,2.1-0.1,3.1
			c1.7,4.1,8.8-2.1,13.7-7c2.4-2.5,4.6-5.2,6.4-8.1c5.8-9.1,14.6-16,24.8-19.4c19.1-6.3,23.4,15.3,23.4,15.3
			C72.7,56.6,57.3,46.6,57.3,46.6z"/>
		<path class="st13" d="M0.6,111.4c-1.3,2,0.1,3.7,1.1,3.8s4.1-4.3,4.8-5.4S5.2,107,5.2,107C4.7,106.8,1.9,109.5,0.6,111.4z"/>
	</g>
	<g id="Layer_6">
		<path class="st14" d="M98.9,13.1c6.9,16.2,2.5,42.4,1.2,49.1c-0.2,0.9-1,1.5-1.9,1.3l-6.9-1.2c-1-0.2-2.3-2.3-1.3-2.2
			c13.1,1.4,9.3-10.3,9.3-11.4c0.3-4.9,0.3-8.9,0.3-8.9C98.5,22.4,96.2,14.2,94,7.1C93.4,5.1,98.1,11.2,98.9,13.1z"/>
		<path class="st15" d="M76.1,21.3c0.5,7.9-6.4,36-6.4,36l2.6,1.4c0.9-2.3,7.9-52.4,7.9-52.4C76.6,5.4,76.1,21.3,76.1,21.3z"/>
		<path class="st16" d="M106,103.9c0,0-7.8,32.6-5.5,30.8S110,105,110,105L106,103.9z"/>
		<path class="st16" d="M107.4,127.7c-1.8-2.2,12.8-41.6,12.8-41.6C120.7,96.4,109.2,130,107.4,127.7z"/>
		<path class="st16" d="M91.5,67c1.9,1.9,1.8,17.1,1.6,33.7s3.4-3.2,3.4-3.2c1-9.5,0.5-19.1-1.3-28.5C94.4,65.4,89.5,65.1,91.5,67z"
			/>
		<path class="st16" d="M19.1,69.5c-2.2,3.7-4.4,6-2.7,6s24.4-25.8,24.4-25.8C40.4,45.6,21.3,65.8,19.1,69.5z"/>
		<path class="st17" d="M77.9,61.8c0,0-1.1-2.1,6.8-12.1s4.4-11.6,8.7-18.4S88.7,7.5,88.7,7.5C78.1-9.6,77.9,61.8,77.9,61.8z"/>
		<path class="st18" d="M86.4,63.7l-3,1.6c-2,1.1-3.6,2.6-4.9,4.5l-4.9,7.3l0.2-6.7c0-1-0.1-2.1-0.4-3.1c-0.5-1.5-1-3-1.5-4.4
			l-2.2-4c-0.1-0.4-1.3-1.7-0.7-1.7h0.5c1-0.2,2,1,2.9,1.5c5.3,3,4,10.6,4.6,8.7c0.3-1.1,2.1-2.2,3.8-3c1.8-0.9,3.8-1.3,5.8-1.1
			C91.1,63.6,86.4,63.7,86.4,63.7z"/>
	</g>
</g>
</svg>
