<svg xmlns="http://www.w3.org/2000/svg" viewBox="0 0 124.09 142.63"><defs><style>.cls-1{isolation:isolate;}.cls-16,.cls-17,.cls-18,.cls-2{fill:#d4b591;}.cls-3{fill:#fde246;}.cls-10,.cls-11,.cls-4,.cls-8,.cls-9{fill:#fff;}.cls-4{opacity:0.41;}.cls-5{fill:#f2b114;opacity:0.34;}.cls-6{fill:#f1c119;opacity:0.14;}.cls-16,.cls-17,.cls-18,.cls-6,.cls-7{mix-blend-mode:multiply;}.cls-7{fill:#d9b91c;}.cls-19,.cls-7{opacity:0.57;}.cls-8{opacity:0.53;}.cls-10,.cls-11,.cls-8,.cls-9{mix-blend-mode:overlay;}.cls-9{opacity:0.75;}.cls-10{opacity:0.42;}.cls-11{opacity:0.56;}.cls-12{fill:#f6e6d1;}.cls-13{fill:#ffdc47;}.cls-14{fill:#dfc69c;}.cls-15{fill:#876318;}.cls-16{opacity:0.26;}.cls-17{opacity:0.3;}.cls-18{opacity:0.2;}.cls-19{fill:#f9f4ed;mix-blend-mode:lighten;}.cls-20{fill:#c4a672;opacity:0.7;}</style></defs><title>banana</title><g class="cls-1"><g id="Layer_3" data-name="Layer 3"><path class="cls-2" d="M175.42,84.26s-4.8-1.14-2.74,1.83S179.76,89.29,175.42,84.26Z" transform="translate(-62.53 -4.48)"/><path class="cls-3" d="M96.59,102.73s-2-36.14,5.24-31.74c0,0,6.2,5.9,9.58,7.11,0,0,1.1,2.75,1.4-4.38s9.6-15.31,11.57-15.31a16.93,16.93,0,0,0,3.68-.43s-1.33,15.42.34,18.15,11.51,29.34,53,35.4c0,0-2,2-.67,3,0,0,3.24,4.91,4.24,5.13,0,0-9.61,16.6-36.69,15S97.13,106.13,96.59,102.73Z" transform="translate(-62.53 -4.48)"/></g><g id="Layer_5" data-name="Layer 5"><path class="cls-4" d="M127.42,73.21c-.35-.53-.74-.74-1.37-.37-1.87,1.06-2.69,3.39-3.15,6.85-.57,4.15,2.34,4.36,3.42,5,.09,0,1.28.88,1.36.94a215.88,215.88,0,0,0,20,13.49s-20.59-11.91-19.86-24.41a2.37,2.37,0,0,0-.37-1.47Z" transform="translate(-62.53 -4.48)"/><path class="cls-5" d="M96.64,88.1s-1.58-17.39,13-8.18h0l3,2.7a2.54,2.54,0,0,1,.79,1.45c.28,1.66,2.65,5.44,5,7.83,3.13,3.13-9.91-5.9-11.87-1-1.06,2.65-.11,5.59,1,7.72a2.53,2.53,0,0,1-3.39,3.4c-1.84-1-3.83-1.79-5.87-6.5a27.8,27.8,0,0,1-1.14-3.12c0-.94-.29-2.54-.44-4.3" transform="translate(-62.53 -4.48)"/><path class="cls-5" d="M125.51,60.61c-3.67,2.2-8.79,6.29-9.45,14.25,0,0,0,3.48,5.63,7.3,0,0,.33-9.45,5-10.12l.49-12.26S125.9,60.37,125.51,60.61Z" transform="translate(-62.53 -4.48)"/><path class="cls-6" d="M177,112.66s-40.2-5.5-55.29-30.53c0,0,.47-10.59,5.29-10.1,1.17,0-.35,6.44,9,16.48a93.14,93.14,0,0,0,14.25,12.27c6.68,4.63,14.59,6.79,26.74,11.88" transform="translate(-62.53 -4.48)"/><path class="cls-7" d="M181.74,117.3s-5.48-1.69-11.8,2.32c-4.11,2.6-12.58,1.64-18,.65a.55.55,0,0,0-.32,1c7,3.15,20,8.63,23.3,7.87,0,0,8.32-5.86,10.1-9.51h0l-1.58-3.43-1.69,1" transform="translate(-62.53 -4.48)"/></g><g id="Layer_4" data-name="Layer 4"><path class="cls-8" d="M111.9,81.54s10.48,24,34.51,31.77c.89.29,23.53,1.67,32.45,2.25,4.58.3,2.29-2.2,2.51-2.5.88-1.21-32.48-4.58-34-5.24C135,102.51,121.81,89.76,117.94,81.6c-.76-1.59-3.32-3-4.71-2-.62.48-.38,2,.18,3.16Z" transform="translate(-62.53 -4.48)"/><path class="cls-9" d="M118.09,85.55A8.64,8.64,0,0,0,115.45,83c-.84-.41-1.48-.47-.69.89,1.59,2.73,14.06,21.64,29.75,27.28a51.19,51.19,0,0,0,11.36,2.25c9.7.75,23.49,1.36,23.69,1.18.46-.39.51-1.81-2.78-2.36s-16.49,1.1-30.66-3.86C134.15,104.24,123,91.63,118.09,85.55Z" transform="translate(-62.53 -4.48)"/><path class="cls-10" d="M112.75,118.3c1.84,2.06,31.11,19.59,53.08,13.69,3.19-.85,2.19-3.67-.51-3.67-4.81,0-9.68-1.13-16.83-2.07-13.89-1.82-30.31-6.59-34.84-10.48-2-1.73-10.66-9.28-11.51-7.74-.38.69,3.2,3.32,4.18,4.17Z" transform="translate(-62.53 -4.48)"/><path class="cls-11" d="M121.49,120.76s-2,.36.71,1.92,25.8,11.79,42.2,8.77c0,0,2.88-1.88-3-2.26S138,127.37,121.49,120.76Z" transform="translate(-62.53 -4.48)"/></g><g id="Layer_2" data-name="Layer 2"><path class="cls-12" d="M85.6,69.69S74.78,8.89,98.43,4.49c0,0,10.73-.83,12.65,15.4,0,0,.91,33.64,7.51,41.89,0,0-8,10.22-5.27,21,0,0-9.9-15.34-13.47-14C99.85,68.76,88.78,69.71,85.6,69.69Z" transform="translate(-62.53 -4.48)"/><path class="cls-13" d="M87.85,70.92l-.18,0-18,5.28s-6.52,1.93-5.07,9.9,5.31,45.62,20,57.68c14.18,11.62,15.82-11.21,15.93-12.93a1.21,1.21,0,0,0,0-.19c-.42-3.14-13-82.73,9-51.25,0,0-.49-5.23-4-8.12-1.83-1.48-3.74-2.26-8.33-1.6Z" transform="translate(-62.53 -4.48)"/><path class="cls-14" d="M86,69.44l-.15,0-18,5.29s-6.52,1.93-5.07,9.9,5.31,45.61,20,57.68c8.71,7.14,12.7,1.36,14.5-4.61a28.63,28.63,0,0,0,.79-12.52c-2.28-15.19-9.16-66.65,6.14-52.59.13.12,3.1,4.35,5.38,7.3a22.47,22.47,0,0,0,2.08,2.58,2.38,2.38,0,0,0,1.54.73c1.16-.12-5.74-10.47-6.57-11.26a12.5,12.5,0,0,0-11.31-3.73Z" transform="translate(-62.53 -4.48)"/><path class="cls-13" d="M112.86,76c.59,1.31,3-22.57,22-16.44a46.51,46.51,0,0,1,26.33,22,8.67,8.67,0,0,0,.6.89c2.25,3.25,17.5,17.88,19.9,12a4,4,0,0,0-.11-3.07c-2.25-5.26-14.13-28-26.44-36.91a25.51,25.51,0,0,0-27-2.35,3.7,3.7,0,0,0-.59.38C125.55,54.12,112.55,64.82,112.86,76Z" transform="translate(-62.53 -4.48)"/><path class="cls-14" d="M112.92,73.61s4.37-21.54,23.44-15.26A47.27,47.27,0,0,1,161.2,77.78a48.23,48.23,0,0,0,6.45,8.13c4.89,4.94,12,11.1,13.72,7a4,4,0,0,0-.1-3.07C179,84.55,169,62.19,156.63,53.28a25.48,25.48,0,0,0-27.27-2.17S113.92,61.07,112.92,73.61Z" transform="translate(-62.53 -4.48)"/><path class="cls-15" d="M181.44,111.53s-2,1.73-1.25,2.79,3.8,5.43,4.82,5.36,2.38-1.8,1.09-3.77S181.92,111.33,181.44,111.53Z" transform="translate(-62.53 -4.48)"/></g><g id="Layer_6" data-name="Layer 6"><path class="cls-16" d="M92.65,11.58c-2.2,7.09-4.47,15.27-5.62,32.7,0,.07,0,4,.29,8.93.07,1.12-3.75,12.81,9.35,11.44,1-.11-.25,2.07-1.29,2.24l-6.93,1.16a1.68,1.68,0,0,1-1.92-1.33C85.25,60,80.9,33.77,87.77,17.59,88.59,15.65,93.28,9.56,92.65,11.58Z" transform="translate(-62.53 -4.48)"/><path class="cls-17" d="M106.44,10.73s7,50.07,7.91,52.41l2.57-1.36s-6.83-28.08-6.38-36C110.54,25.81,110.08,9.92,106.44,10.73Z" transform="translate(-62.53 -4.48)"/><path class="cls-18" d="M76.63,109.47s7.27,27.92,9.53,29.69-5.49-30.82-5.49-30.82Z" transform="translate(-62.53 -4.48)"/><path class="cls-18" d="M66.47,90.58S81,130,79.22,132.22,66,100.91,66.47,90.58Z" transform="translate(-62.53 -4.48)"/><path class="cls-18" d="M91.48,73.48A97.3,97.3,0,0,0,90.19,102s3.55,19.85,3.39,3.23-.32-31.79,1.61-33.73S92.29,69.93,91.48,73.48Z" transform="translate(-62.53 -4.48)"/><path class="cls-18" d="M145.89,54.21S168.69,80,170.32,80s-.54-2.32-2.73-6S146.3,50.11,145.89,54.21Z" transform="translate(-62.53 -4.48)"/><path class="cls-19" d="M98,12s-9,16.87-4.74,23.72.79,8.43,8.7,18.44,6.85,12.12,6.85,12.12S108.58-5.1,98,12Z" transform="translate(-62.53 -4.48)"/><path class="cls-20" d="M100.09,67.77a11.36,11.36,0,0,1,5.79,1.13c1.65.82,3.43,1.91,3.75,3,.58,1.88-.73-5.65,4.59-8.68.88-.5,1.94-1.74,2.92-1.52h.52c.56,0-.58,1.25-.7,1.67l-2.22,4c-.53,1.4-1,2.93-1.48,4.44a10.4,10.4,0,0,0-.39,3.09l.18,6.69-4.89-7.35a15,15,0,0,0-4.92-4.5l-3-1.59S95.57,68.07,100.09,67.77Z" transform="translate(-62.53 -4.48)"/></g></g></svg>