<svg xmlns="http://www.w3.org/2000/svg" viewBox="0 0 144.77 104.06"><defs><style>.cls-1{fill:#020202;}.cls-2{fill:#fff;}.cls-3{fill:#898989;opacity:0.15;}.cls-4{fill:#d20205;}.cls-5{opacity:0.42;}.cls-6{fill:#5c5d60;}</style></defs><g id="Flag"><path class="cls-1" d="M85,35c0-.16,0-.23.12-.22a121.28,121.28,0,0,0,36.77-5.38c18.17-5.66,32.26-5.92,34.4-5.92a.29.29,0,0,1,.29.28l.16,92.05a.34.34,0,0,1-.28.34c-2.94.47-27.8,3.57-41,6.35a30.57,30.57,0,0,1-3.16.51c-3.93.42-14.74,2.46-27.68,3.73a.3.3,0,0,1-.32-.29Z" transform="translate(-48 -23.16)"/><path d="M48,29.6s9,6,37.16,5.18L85,126.66s-20.65,3-36.19-4.76Z" transform="translate(-48 -23.16)"/><path d="M156.34,23.49l0,92.64s25-.36,36.45,5.61l-.09-93.91S190.62,22.61,156.34,23.49Z" transform="translate(-48 -23.16)"/><path class="cls-2" d="M85.59,35.76a129.22,129.22,0,0,0,36-5.7c19.27-5.95,33.3-6.18,33.3-6.18l0,90.12s-28.1,4.34-41.18,7.2a265.92,265.92,0,0,1-28.12,4.16Z" transform="translate(-48 -23.16)"/><path class="cls-3" d="M85.19,36a136.66,136.66,0,0,0,37-5.7c19.83-5.95,34.28-6.18,34.28-6.18l0,90.12s-28.91,4.34-42.38,7.2a281.07,281.07,0,0,1-28.95,4.16Z" transform="translate(-48 -23.16)"/><path class="cls-4" d="M49,31.08s8.65,5.54,36.12,4.78l0,89s-20.16,2.86-35.33-4.6Z" transform="translate(-48 -23.16)"/><path class="cls-4" d="M154.85,23.91l-.07,89.9s25.39-.35,36.58,5.42l-.21-91.37S188.31,23.06,154.85,23.91Z" transform="translate(-48 -23.16)"/><path class="cls-4" d="M105,97.4s11.28-5,13.9-4.67l-.23,17h2.73V92.38L135,91.7s-3-5.69-.45-7.06l12.07-12.07s3.76-3.42.12-2.62c0,0-4.1,1.25-2.62-2.62l2.27-7.52s1.6-3.07-1.59-1.59l-4.34,2.15s-3,1.11-3.13-1.45c0,0,.06-5-2.11-.62L131,64.94s-3.28,4.68-3-1.4l3-14.21s1.06-3.63-1.62-.62l-2.12,2.07s-1.84,1.56-2.5-.62a83.19,83.19,0,0,0-3.57-7.86s-1.17-3.45-2.46.06l-3.45,10.26s-.78,1.56-3.46.28c0,0-4.18-3.18-2.67,1.22l3.12,12.38s1.17,4.35-2.85,2.67l-4.12-4.85s-2.68-3.73-2.45.17l-.17,1.73s.67,2.84-2.29,1.62l-4.87-.55s-3.1-1-2,1.89l2.32,6.46s1,2.24-.52,3l-2.06.69s-3,1.29.26,2.41l11.36,8.61s1.81.26,1.38,3Z" transform="translate(-48 -23.16)"/></g><g id="Highlightd" class="cls-5"><path class="cls-6" d="M50.15,117.14s15.33,10.59,51.26,3.45,56.7-11,77.4-7.44c0,0,9.81,2.27,11.71,5.12l-1.17,1.64a88.89,88.89,0,0,0-48.13-3.42c-26.55,5.59-37.27,7.45-37.27,7.45s-18.1,1.79-29.8,2c-13.25.21-25.05-5.26-25.05-5.26Z" transform="translate(-48 -23.16)"/><path class="cls-6" d="M51,31.93s14.13,6.7,51.47,2.07c14.84-1.84,23.16-5.38,33.27-7.67a117.68,117.68,0,0,1,42.6-2.13s11.91,1,13.81,3.85l-.52,2.57s-23.9-9.72-50.26-3.27c-26.08,6.39-40.58,9.39-40.58,9.39S82.86,39,71.22,37.89a116.86,116.86,0,0,1-19-3.18Z" transform="translate(-48 -23.16)"/><polygon class="cls-6" points="4.2 14.16 4.2 98.53 1.16 97.56 0.93 8.01 4.95 9.4 4.2 14.16"/><polygon class="cls-6" points="143.18 5.8 143.81 96.99 141.33 96.99 140.8 4.4 143.18 5.8"/></g></svg>