<svg xmlns="http://www.w3.org/2000/svg" viewBox="0 0 129.22 140.66"><defs><style>.cls-1{isolation:isolate;}.cls-2{fill:#f98428;}.cls-3{opacity:0.49;mix-blend-mode:multiply;}.cls-4{fill:#ea611e;}.cls-5{fill:#319b25;}.cls-6{fill:#47a21d;}.cls-7{fill:#fff;}.cls-8{fill:#2b8723;}.cls-9{fill:#ffd8bd;opacity:0.1;mix-blend-mode:lighten;}.cls-10{fill:#d44814;opacity:0.35;}.cls-11{fill:#295d29;}.cls-11,.cls-12{opacity:0.55;}.cls-12{fill:#6ddb49;}</style></defs><title>carrot</title><g class="cls-1"><g id="Layer_2" data-name="Layer 2"><path class="cls-2" d="M134.05,50.87a1.23,1.23,0,0,0-.36-.25c-1.88-.8-16.07-6.21-25.86,9.57C97.6,76.7,83.17,96.44,82.48,97.38a.22.22,0,0,0,0,.08L64.56,126.79a.61.61,0,0,0-.07.14c-.46,1.06-6,14.2-4.37,15.5s5.75,4.06,19.63-5.76S160.68,77,147.09,64.25Z" transform="translate(-59.82 -3.16)"/><g class="cls-3"><path class="cls-4" d="M145.09,75.89s-19.12-17.07-28-17.33S128.52,55,145.09,75.89Z" transform="translate(-59.82 -3.16)"/><path class="cls-4" d="M137.44,84.56s-19.11-17.08-28-17.33S120.88,63.66,137.44,84.56Z" transform="translate(-59.82 -3.16)"/><path class="cls-4" d="M131.84,92s-19.12-17.08-28-17.33S115.27,71.05,131.84,92Z" transform="translate(-59.82 -3.16)"/><path class="cls-4" d="M125,100.11S105.84,83,96.92,82.77,108.39,79.21,125,100.11Z" transform="translate(-59.82 -3.16)"/><path class="cls-4" d="M116.8,109S97.68,92,88.76,91.69,100.23,88.13,116.8,109Z" transform="translate(-59.82 -3.16)"/><path class="cls-4" d="M105.13,117.33S88.4,102.08,80.59,101.85,90.63,98.67,105.13,117.33Z" transform="translate(-59.82 -3.16)"/><path class="cls-4" d="M94.75,127s-14.9-13.9-21.86-14.11S81.83,109.94,94.75,127Z" transform="translate(-59.82 -3.16)"/><path class="cls-4" d="M86.83,133.27s-12.47-12.56-18.28-12.74S76,117.9,86.83,133.27Z" transform="translate(-59.82 -3.16)"/></g><path class="cls-5" d="M134.13,51.48s7.64-7.5,4.2-11.52-11.61-12-6.28-12.21,4.86,1.07,4.86,1.07S125.3,19.58,130,17.21c0,0-2.73-5.45.83-3.44,0,0,6,6.28,2.84.12s-2.25-7-.71-7.47,6.52-6.63,10.55-.71S145,13.3,145,13.3s6.59-2.35,6.47.73a4.47,4.47,0,0,0-5.28,3.68,15.44,15.44,0,0,0-.14,7.93s-1.72.3-1.6,4l.69,9.11-3.7,3.84L135.9,53.4Z" transform="translate(-59.82 -3.16)"/><path class="cls-6" d="M135.14,52.58,145.7,38.87s-2.41-12.42.93-12.42c0,0-.74-15.38,5.74-11.11,0,0,2.23-14.64,10-5.56,0,0,5.75-7.33,5.66-1.47,0,0,7.06-6.88,6.22.37,0,0,9.29-5.67,7.62-1.67,0,0,11-2.23,5.76,10s-13.29,4.18-13.29,4.18,4.09,4.92-6.87,7.62a56.23,56.23,0,0,1-6.31,1.29c-2.54.31-4.11,1.66-5.68,3.51-1.1,1.29-4.31,1.49-4.32,3.43,0,.1.18.4.14.5s4.83,4-.09,6.23c0,0-3.25.93-4.18-.65l-8.95,12.41Z" transform="translate(-59.82 -3.16)"/><path class="cls-7" d="M135.9,53.4,144.75,43s7.35-1.67,5.2-4.44a2.88,2.88,0,0,1-.06-3.64,5,5,0,0,1,2.34-1.74,3.41,3.41,0,0,0,1.88-1.68c.75-1.53,7-2.64,7.38-2.79s9.45-3.66,9.77-7.42,3.4-2.31,3.4-2.31a2.55,2.55,0,0,1,1,2.13s4.59-2.1,5,1.57c0,0,1.49.64,3.9-1.5,0,0,1.33.29,1.1,1.1s-5,4.71-7.29-.18a1.71,1.71,0,0,0-2.58.5s-2.26-4.21-2.53-2.53c0,0-.73-.28-.91,1.31s-2.76,7.2-12.54,8.78c0,0-4.48.5-4.85,1.72a2.23,2.23,0,0,1-2.27,2.35,3.28,3.28,0,0,0-2.3,3.13,3.05,3.05,0,0,1-.81,5l-3.9,1.45-9.15,10.42Z" transform="translate(-59.82 -3.16)"/><path class="cls-8" d="M138.35,57.3,150,46.24s12.4,8.18,11.35,2c0,0,11.87,5.8,19.26-6.07,0,0-3.56-.66-.53-2.5,0,0,5.54,2.24,5.28-3.57,0,0-3.3-.79-1.19-2.24,0,0,1.58-3.3-1.85-3.17,0,0-4.22,2.77-1.05-2,0,0,8.73-4.75,3.84-7,0,0-4.88,4.06-5.48.53,0,0-.89-2.47-4.12-.15,0,0-1.72-4.4-3.2-1.69,0,0,.39,6.75-12.15,9.36-1.38.29-4.08.45-5,1.5-.8.89-.14,1.87-2.51,2.74.39.12-4.28,1.71-1.46,4,0,0,2.53,4.58-6.13,4.69-.12,0-.22.32-.34.32l.76.52-9.56,11.1Z" transform="translate(-59.82 -3.16)"/><path class="cls-9" d="M118.14,64.39s7.73-13.49,17.78-6c0,0,4.06.39-8.11,12.24s-56.15,68.62-65.5,71.12S118.14,64.39,118.14,64.39Z" transform="translate(-59.82 -3.16)"/><path class="cls-10" d="M147,65.35a2.66,2.66,0,0,0-4.59-.79c-2.79,3.46-7.33,9.61-7.33,13,0,4.83-7.84,11.66-7.84,11.66s-57.12,53.3-61.35,54.11C65.91,143.29,153.39,85.09,147,65.35Z" transform="translate(-59.82 -3.16)"/><path class="cls-11" d="M136.77,6.35a48.24,48.24,0,0,1,5.08,31.3S148.7,20.24,136.77,6.35Z" transform="translate(-59.82 -3.16)"/><path class="cls-11" d="M151.12,44.59c-2-.5,13.13-15.1,29.55-11.55C180.67,33,154.25,39.89,151.12,44.59Z" transform="translate(-59.82 -3.16)"/><path class="cls-12" d="M146.94,37.06l.24-.3c2.13-2.7,18.1-22.67,30.67-29Z" transform="translate(-59.82 -3.16)"/></g></g></svg>