<svg xmlns="http://www.w3.org/2000/svg" viewBox="0 0 124.85 138.12"><defs><style>.cls-1{isolation:isolate;}.cls-2{fill:#cd122c;}.cls-10,.cls-3,.cls-4,.cls-6,.cls-7,.cls-8,.cls-9{fill:#fff;}.cls-3,.cls-9{opacity:0.15;}.cls-4{opacity:0.3;}.cls-12,.cls-13,.cls-14,.cls-5{fill:#9f2030;}.cls-5{mix-blend-mode:multiply;}.cls-6{opacity:0.11;}.cls-7{opacity:0.2;}.cls-11,.cls-16,.cls-8{opacity:0.6;}.cls-9{mix-blend-mode:screen;}.cls-10{opacity:0.25;}.cls-11{fill:#dc0a27;mix-blend-mode:saturation;}.cls-12{opacity:0.32;}.cls-12,.cls-13,.cls-16,.cls-17,.cls-20{mix-blend-mode:darken;}.cls-13{opacity:0.17;}.cls-15{fill:#7b9036;}.cls-16,.cls-17,.cls-18{fill:#475417;}.cls-17{opacity:0.35;}.cls-18{opacity:0.68;}.cls-19{fill:#84a662;}.cls-19,.cls-23{stroke:#475417;stroke-miterlimit:10;stroke-width:0.2px;}.cls-20{opacity:0.59;}.cls-21{fill:#3f5e1e;}.cls-22{opacity:0.89;mix-blend-mode:lighten;}.cls-23{fill:#96b977;}</style></defs><title>cherries</title><g class="cls-1"><g id="Fill"><path class="cls-2" d="M126.91,80.79S136.82,66.3,162,69c10.71,1.14,17.24,7.28,21.21,14a37.08,37.08,0,0,1-21.59,54.48c-26.31,8-35.07-15.06-35.07-15.06Z" transform="translate(-63.5 -7.24)"/></g><g id="_1_Highlights" data-name="1 + Highlights"><path class="cls-3" d="M160.92,84.33s7.41,2.37,5.19,7-16.08,21.48-21.8,22S139.93,103,139.93,103,151.08,102.89,160.92,84.33Z" transform="translate(-63.5 -7.24)"/><path class="cls-4" d="M140.57,97c2.4-1.66,12-8.49,15.33-14.28a1.58,1.58,0,0,1,2.43-.39l2.37,1.73c.64.59.14,0-.35,1.07-6,13.6-18.63,18.46-20.45,17.84-2.25-.76-.31-2.82,0-4.93A1.53,1.53,0,0,1,140.57,97Z" transform="translate(-63.5 -7.24)"/><path class="cls-5" d="M91.63,80.27s-30.5,6.5-21.55,36.6,34.57,28.48,34.57,28.48,43.32-5.9,37.62-41.49-40.88-26-40.88-26S95.38,80.88,91.63,80.27Z" transform="translate(-63.5 -7.24)"/><path class="cls-2" d="M89.91,79.38S59.4,85.89,68.35,116s34.58,28.48,34.58,28.48,43.31-5.9,37.62-41.49S94.8,77.43,94.8,77.43,93.55,79.53,89.91,79.38Z" transform="translate(-63.5 -7.24)"/><g id="Highligh"><path class="cls-6" d="M120.73,83.82s9.14,17-2.46,23.19-32.67,8.08-42-6.85c0,0-1.23-8.08,8.6-13.53a36.2,36.2,0,0,1,19.5-4.39S116.17,77.67,120.73,83.82Z" transform="translate(-63.5 -7.24)"/><path class="cls-7" d="M77,96.73s4.39,12.59,8.81,4.23,11.5-2.79,11.5-2.79,3.37,5-.93,7.09,13,9.06,15.91-3.49c0,0,2.68-4.07,7.9-1.39s1.28-6.51-3-6.63-6.75-3.9-8.92-2.07a12.26,12.26,0,0,1-4.85,2.73,8.88,8.88,0,0,1-4,.38c-2.85-.51-9.23-1.24-11.6-.61a9.82,9.82,0,0,0-2,.72,5.33,5.33,0,0,0-1.11.77C83.13,97,78,100,77,96.73Z" transform="translate(-63.5 -7.24)"/><path class="cls-8" d="M77,96.73s.26-11.54,22-13.87,9.34,13.48.26,11.92-12.83-.77-14.52.78S77.92,100,77,96.73Z" transform="translate(-63.5 -7.24)"/><path class="cls-9" d="M144.66,80.21l6.41-7a.31.31,0,0,0-.36-.5l-8.28,3.8a.89.89,0,0,0-.46,1.1,2.83,2.83,0,0,1-.36,2.8c-.84.69,1.59.59,2.45.13A2.05,2.05,0,0,0,144.66,80.21Z" transform="translate(-63.5 -7.24)"/><path class="cls-10" d="M133,84.45a.2.2,0,0,1,.12-.36c1.61,0,5.6.54,4.84,4C137.07,92.25,137.4,87.61,133,84.45Z" transform="translate(-63.5 -7.24)"/><path class="cls-11" d="M124.88,96.45c-1.08,11.37-13,40.5-25.52,47.42,0,0,35.16,3.19,41.13-33.18,0,0,.45-26.12-15.36-30.86v.94C123.83,85.68,125.35,91.4,124.88,96.45Z" transform="translate(-63.5 -7.24)"/></g></g><g id="Shadow"><path class="cls-12" d="M80,118.69c5.59,7,20.81,22.22,37.94.08a10.06,10.06,0,0,0,.66-.91l.17-.28a8.6,8.6,0,0,0,.52-1,65.28,65.28,0,0,0,4.88-15.7c.07-.46,1.56,1.48,1.52,2-.51,7.3-6.62,20.71-18.92,33.27-14,14.25-23.48-8.71-27.45-17A.4.4,0,0,1,80,118.69Z" transform="translate(-63.5 -7.24)"/><path class="cls-13" d="M150.85,76.84s23.88-1.06,27.6,16.1-4.78,29-8.32,31-18,7.79-30.25-.88l-6,8.84s34.68,23.18,53.08-19.11c0,0,7.43-26.18-15.39-39.81s-32.91-.88-32.91-.88,17-2.65,17.16,0S150.85,76.84,150.85,76.84Z" transform="translate(-63.5 -7.24)"/><path class="cls-14" d="M141.43,77c0,.2.39.42.52.55s-.11-.68.25-.9c.75-.46,1.93-1,3.44-1.66.81-.38,1.62-.81,2.38-1.1,2-.78,3.23-1.53,3.16-.9,0,0-.05-1.16-.36-1.32-2.45-1.22-9.49,3.76-9.39,5.32" transform="translate(-63.5 -7.24)"/></g><g id="Layer_6" data-name="Layer 6"><path class="cls-15" d="M63.69,16,63.5,20.5l2,1.11s10,17.57,11.71,22.31S90.09,74.6,89.71,79.43c0,0,5.58,0,5-2.23,0,0-12.76-34.17-15-38.07L74.1,30l-8-14.87Z" transform="translate(-63.5 -7.24)"/><path class="cls-15" d="M101.35,43.89s29.49,31.9,34.4,38.43a1.62,1.62,0,0,0,1.94.51c2-.85,5.36-2.86,3.16-6.09L106.58,43.19l-6.21-3.55Z" transform="translate(-63.5 -7.24)"/></g><g id="Layer_7" data-name="Layer 7"><path class="cls-16" d="M66.47,22.73l7.45,14.11,1.68-4.21-.2-1S67.72,23,67.49,21.93Z" transform="translate(-63.5 -7.24)"/><path class="cls-17" d="M74.87,34.5S87.25,58.43,93.62,78.77l1.14-.58a.55.55,0,0,0,.19-.63c-1.09-2.9-8.14-22.1-13.63-34.52-.63-1.41-1.15-2.64-1.72-3.84-1.6-3.39-3.49-5.48-4-6.64Z" transform="translate(-63.5 -7.24)"/><path class="cls-18" d="M101.2,43.66l3.67,4.23s4.65,1.17,10.95,7.47L135.09,74.8s4.43,3.07,1.19,6.48c0,0-.71,1.59.45,2,.57.17,2.62-.7,3.8-2s1.53-3.16.76-4.11l-2.59-2.53-19.42-19.1-12.59-12Z" transform="translate(-63.5 -7.24)"/></g><g id="Layer_8" data-name="Layer 8"><path class="cls-19" d="M64.16,16.41l-.33,4.05,3.06,1.14S81,44.76,106.46,43.75s38.27-4.31,48.92-11.22c0,0-16.34-21.17-39.71-24.17S74,10.37,64.16,16.41Z" transform="translate(-63.5 -7.24)"/></g><g id="Layer_10" data-name="Layer 10" class="cls-20"><path class="cls-21" d="M65.05,16.51s19,6.86,87.35,15.3a5.78,5.78,0,0,1,.65.18l1.59.08S141.55,11.64,112.19,8.4,65.05,16.51,65.05,16.51Z" transform="translate(-63.5 -7.24)"/></g><g id="Layer_9" data-name="Layer 9" class="cls-22"><path class="cls-23" d="M64.19,16.42l9.58,2L84.14,9l2.16-.41L90.19,8l-14.25,11,12,2.12s4.82-10.24,15.76-13.83l5.16.34s-16,4.56-18.55,14.2l9,1.48S114.72,9.79,119.47,8.92l1.37.27,2,.67s-15.17,7.38-19.49,14.28l11.2,1.63s11.92-11.48,17.53-12.2l3.16,1.62s-6.93-.29-17.73,11.22l10,1.19s7.13-10.45,11.45-10.3L141.33,19s-6.6,1.44-10.92,9.07l6.42.61s9-4,11.69-3.74l2.35,2.47s-3.41-1.92-10.46,2.11l14.5,2.29.5.71-.41.22-19.91-3.08L146,37.57l-2.3.86-11.46-8.81-13.13-1.4,19,11.94-3.05.56L115.52,27.5l-10.84-1.05s17.38,15.83,19.25,16.11l-3.68.37L100.42,26.06s-6.19-1.59-10.08-1.44c0,0,3,8.2,18.42,19.13l-5.32-.14S88.19,30.37,86.6,23.47L75.52,22.32s4.75,11.51,14,18.27c0,0-10.93-1.73-15.39-17.7L63.81,20.46Z" transform="translate(-63.5 -7.24)"/></g></g></svg>