<svg xmlns="http://www.w3.org/2000/svg" viewBox="0 0 148.3 150.74"><defs><style>.cls-1,.cls-12{fill:#ffcc31;}.cls-2{fill:#498cd1;}.cls-3{fill:#084f9b;}.cls-4{fill:#844501;}.cls-5{fill:#9c5d06;}.cls-24,.cls-6,.cls-9{fill:#fff;}.cls-7{fill:#351f01;}.cls-8{fill:#956802;}.cls-9{opacity:0.72;}.cls-10,.cls-14{fill:#f9c646;}.cls-10,.cls-12,.cls-14{stroke:#ae6d09;stroke-miterlimit:10;}.cls-10{stroke-width:1.01px;}.cls-11{fill:#ae6d09;}.cls-12{stroke-width:0.25px;}.cls-13{fill:#3a1b02;}.cls-14{stroke-width:0.71px;}.cls-15{fill:#7d2586;}.cls-16{fill:#320151;}.cls-17{fill:#865a35;}.cls-18{fill:#c5a947;opacity:0.88;}.cls-19{fill:#281a10;}.cls-20{fill:#5d2c00;}.cls-21{fill:#1a140a;opacity:0.65;}.cls-22{fill:#ff45b1;}.cls-23{fill:#ffc5f4;opacity:0.19;}.cls-24{opacity:0.8;}.cls-25{fill:#d03c93;opacity:0.1;}</style></defs><g id="Layer_6" data-name="Layer 6"><path class="cls-1" d="M129.28,122.43s-2.38,5.95-3.32,6.81c0,0,4.89,10.72,21.38,10.49l-.11-13.35S141.21,127.34,129.28,122.43Z" transform="translate(0.39 0.51)"/><path class="cls-2" d="M123.45,130.34s-36.23,12.92-42.53,19.71l66.33-.06,0-8.17S131.15,143.42,123.45,130.34Z" transform="translate(0.39 0.51)"/><path class="cls-3" d="M126,129.2s4.27,10.33,21.34,10.46l-.06,2.22s-16,2.41-23.89-11.52Z" transform="translate(0.39 0.51)"/></g><g id="Guy"><path class="cls-1" d="M112.3,27.87s-4.4,27.52-8.15,29.44-.75,17.61-.75,17.61-5.61-5.74-6-12.25c0,0-1.5.38-1.5,9.19s4.87,21,9.37,18.37c0,0,5.49,22.46,21.35,30.63,0,0,5.26,5.17,20.62,6,0,0,.47-93.53-.15-99.27C147.1,27.63,134.4,45.86,112.3,27.87Z" transform="translate(0.39 0.51)"/><path class="cls-4" d="M117.23,52s-5.37,4.42-4,6.37,6.4-2.48,6.4-2.48,5-1.42,6.4-.71,8.48,2.3,7.1-1.06S125.7,50.09,117.23,52Z" transform="translate(0.39 0.51)"/><path class="cls-5" d="M138.46,87.85c-1.4.15.35,3.84,3.48,4.86a12.08,12.08,0,0,0,2.55.48c.83.09,2.82.54,2.81-.34,0-1.55,0-1,0-1.76,0-.21,0-.55-.11-.41-.48.68-.39.88-1.24,1.11-1.93.53-5.43.37-6.65-2.79C139.19,88.72,138.9,87.81,138.46,87.85Z" transform="translate(0.39 0.51)"/><path d="M134.58,99.61l12.72.15s0,3.14,0,5.92a20,20,0,0,1,0,2.32c0,.07-.12.09-.18.09C139.54,108.09,136.16,106.3,134.58,99.61Z" transform="translate(0.39 0.51)"/><ellipse class="cls-6" cx="124.67" cy="69.89" rx="10.76" ry="8.49"/><ellipse class="cls-7" cx="124.55" cy="68.13" rx="6.78" ry="6.93"/><ellipse cx="124.39" cy="68.1" rx="3.57" ry="3.65"/><ellipse class="cls-8" cx="126.6" cy="70.19" rx="1.76" ry="2.05"/><ellipse cx="124.55" cy="68.1" rx="3.57" ry="3.65"/><ellipse class="cls-9" cx="121.88" cy="64.7" rx="2.07" ry="2.16"/><path class="cls-10" d="M96.88,61.75s1.86,16.55,9,15.74c0,0-7.35-9.37,1.67-24,0,0,6.38-5,5.85-22.08,0,0,7.21,9.06,33.6,9.68.49,0,.18.23.2-.22.12-3,.28-13.31.09-22.61-.17-8.18-.06-16,0-17.95V0H147C110.43-.63,96.35,32.72,96.35,32.72S92.9,51.71,96.88,61.75Z" transform="translate(0.39 0.51)"/><path class="cls-11" d="M107.27,20.89s4,8.1,14.85,14.63l1.49,1.4s-7.75-2.15-10.17-6c0,0,.51,11-1.55,14.48v-2.1s3.29-6.78-.13-12.64c-1.88-3.22-4.17-7.18-7.14-11.44-1-1.38,0,.14.59-1.56Z" transform="translate(0.39 0.51)"/></g><g id="Girl"><path class="cls-12" d="M.19,4.81s0,14.61,0,34C.15,51.6.15,65.9.06,79.5c-.1,14.12,0,27-.06,36.38,0,5.29,0,9.45,0,11.8,0,1,0,1.73,0,2,0,.11.17.14.22.14,2.07,0,12.76,2.47,36.49-14.6,0,0,10-16.15,10.42-21.53,0,0,10.36-4.48,11.19-16.13s.83-21.51-5.39-17c0,0-11.6-21.06-10.77-28.23C42.16,32.34,24.63,25.87.19,4.81Z" transform="translate(0.39 0.51)"/><path class="cls-13" d="M21.75,54.79s-5.33,3.77-3.95,5.43,6.35-2.11,6.35-2.11,5-1.21,6.36-.61,8.41,2,7-.9S30.16,53.13,21.75,54.79Z" transform="translate(0.39 0.51)"/><path class="cls-14" d="M.11.07c20.1,2.64,33.53,11.49,43.68,21.44C60.71,38.09,64.14,63.82,64.14,63.82s12.28,69.28,1,71.36l-27,1.21a38.17,38.17,0,0,1-15.73-2.52c-5.11-2-15-2.67-9.11-6.11,3.09-1.79,9.63-4.62,12.66-6.87C32.52,116,44.35,100,46,88.34c0,0,2.9,4.45,2.54-5.19S47,69,44.48,67.18c0,0-37.64-15.12-44.32-22C0,45,0,45.39,0,39.12.07,29.34-.18,0,.11.07Z" transform="translate(0.39 0.51)"/><path class="cls-1" d="M18.72,125.94A26.19,26.19,0,0,0,21.49,130S16.79,140.79,0,140.56V129.82S7.44,131.28,18.72,125.94Z" transform="translate(0.39 0.51)"/><path class="cls-15" d="M23.32,130.76s36.75,12.55,43.17,19.47L0,150v-7.39S15.48,144.09,23.32,130.76Z" transform="translate(0.39 0.51)"/><path class="cls-16" d="M20.77,129.7s-3.38,10-20.77,10.54v2.39s16,2,23.32-11.87Z" transform="translate(0.39 0.51)"/><path class="cls-5" d="M0,98.83c1.49,0,9.86.82,8-4.3,0,0-.74-.12-1,1.72s-.51,1.89-5.86,1.84C.6,98.08,0,98,0,98.12v.66S0,98.83,0,98.83Z" transform="translate(0.39 0.51)"/><ellipse class="cls-6" cx="26.63" cy="77.12" rx="10.68" ry="8.41"/><ellipse class="cls-17" cx="26.62" cy="75.62" rx="6.73" ry="6.87"/><ellipse class="cls-18" cx="28.05" cy="77.01" rx="3.54" ry="3.72"/><ellipse class="cls-8" cx="28.46" cy="76.39" rx="2.73" ry="3.11"/><ellipse cx="26.62" cy="75.59" rx="3.54" ry="3.61"/><ellipse class="cls-9" cx="23.98" cy="72.22" rx="2.05" ry="2.15"/><path class="cls-19" d="M15.55,77l.07-1s2.63-8,12.15-7a11.7,11.7,0,0,1,8.5,5.71l.57,1.45L37,72.53a12.21,12.21,0,0,0-10.89-6.94c-8-.15-10.33,8.38-10.33,8.38Z" transform="translate(0.39 0.51)"/><path class="cls-20" d="M3.65,108.36A7.19,7.19,0,0,0,0,106.89s0,2.56,0,5.08c0,1.11,0,2.44,0,3.28s0,.26,0,1.11v.36c0,.07,0,.09.15.13a21,21,0,0,0,20-7.92s-5-.5-6.28-1.45-6.94-1.64-8.81.94C5.1,108.42,4.25,109.28,3.65,108.36Z" transform="translate(0.39 0.51)"/><path class="cls-21" d="M3.79,110.29S3,109.17,0,109.23c0,0,0,.79,0,1.79s0,2.76,0,3.43.76.33,2.29.24c4.58-.26,8,.32,14.76-4.73a37.69,37.69,0,0,1-5.27-.46c-1-.34-4.83-.25-6.37.79C5.39,110.29,4.24,110.63,3.79,110.29Z" transform="translate(0.39 0.51)"/><path class="cls-11" d="M33.54,62.69s26.29,5.57,35.84,46.64C69.38,109.33,67.2,69.86,33.54,62.69Z" transform="translate(0.39 0.51)"/><path class="cls-11" d="M59.59,60A115,115,0,0,1,33.2,57.88C21.24,55.37,6.88,48.27.31,44.27c0,0-.65.61,2.22,2.75C11,53.32,35.38,67,59.59,60Z" transform="translate(0.39 0.51)"/></g><g id="Layer_5" data-name="Layer 5"><path class="cls-22" d="M73.6,76.59s45.25-40.67,36.65-61.91C105.94,4.06,99,1.51,93.2,1.62A19.88,19.88,0,0,0,79.36,7.86l-3,3.16c-.43.45-.82.92-1.21,1.39-.58.73-1.79,1.72-2.86-.51C70.77,8.8,59.87-3.85,45.74,4.09,35.5,9.84,35.72,21,36.61,26.66a19.83,19.83,0,0,0,2,6C42,39.11,52.33,56.94,73.6,76.59Z" transform="translate(0.39 0.51)"/><path class="cls-23" d="M42.35,13.46S42,31.74,66.59,26.9c0,0,12.81-1.12,15.54,0S102.91,36,104.64,12.06c0,0-10.33-16.36-25.62,1.29,0,0-4,6.21-10.23.3C68.79,13.65,53.49-5.45,42.35,13.46Z" transform="translate(0.39 0.51)"/><path class="cls-24" d="M42.35,13.46S50.75,0,63.52,10.31s11.2,7.17,16.62,2.8S88.89,3.83,97.81,7l6.83,5.08S102.89.86,88.89,4.88c0,0-5.83,1.6-12.3,9.15,0,0-2.51,3.42-5.84-.09S61.32,1.63,51.08,4.42C51.08,4.42,43.42,7.49,42.35,13.46Z" transform="translate(0.39 0.51)"/><path class="cls-25" d="M73.59,72.08s34-29,33.52-48.68a13.84,13.84,0,0,0-.46-3.13l-2-8.21s.08,23.84-22.51,14.84a57.73,57.73,0,0,0-15.54,0s-16,4.56-22.81-6.5c0,0-1.81-4.95-1.43-6.94,0,0-4.12,3.62-3.32,12.05a23.83,23.83,0,0,0,4.79,12C50.31,46.2,66.8,67.68,73.59,72.08Z" transform="translate(0.39 0.51)"/></g></svg>