<svg id="Layer_2" data-name="Layer 2" xmlns="http://www.w3.org/2000/svg" viewBox="0 0 227.37 99.01"><defs><style>.cls-1{fill:#ba7d4f;}.cls-2{fill:#f2f0f2;}.cls-3{fill:#d20915;}</style></defs><title>cupcake</title><circle class="cls-1" cx="50.04" cy="49.51" r="49.51"/><path class="cls-2" d="M46.6,36.57s9.08.83,17.33-6.87S84,36.85,84,36.85s4.13,9.35,12.93,9.35,6.6,10.73,6.6,10.73,11.28,19,1.1,22-3,5.22-3,5.22,8,14.58-3.3,20.63S85.66,119.1,85.66,119.1l-1.1-3.85s-26.41,15.4-45.39,1.37S22.4,95.44,22.4,95.44s-9.08-6.33-5.78-11c0,0,.55-3.58-1.38-3.58s1.38-4.13,1.38-4.13L12.49,65.46s11-8.81,9.63-11-5.23-6.6.55-8.52-2.2-5-2.2-5,18.43,1.65,28.88-8.81Z" transform="translate(-12.49 -25.49)"/><path class="cls-3" d="M59.37,64.38c-.73.21-8.82,2.33-9.07,9.88s5.54,16.86,17.38,8.14S67.68,62.06,59.37,64.38Z" transform="translate(-12.49 -25.49)"/><circle class="cls-1" cx="177.86" cy="49.51" r="49.51"/><path class="cls-2" d="M174.42,36.57s9.08.83,17.33-6.87,20.08,7.15,20.08,7.15S216,46.2,224.76,46.2s6.6,10.73,6.6,10.73,11.28,19,1.1,22-3,5.22-3,5.22,8,14.58-3.31,20.63-12.65,14.31-12.65,14.31l-1.1-3.85S186,130.65,167,116.62s-16.78-21.18-16.78-21.18-9.07-6.33-5.77-11c0,0,.55-3.58-1.38-3.58s1.38-4.13,1.38-4.13l-4.13-11.27s11-8.81,9.63-11-5.23-6.6.55-8.52-2.2-5-2.2-5,18.43,1.65,28.88-8.81Z" transform="translate(-12.49 -25.49)"/><path class="cls-3" d="M187.19,64.38c-.74.21-8.82,2.33-9.07,9.88s5.54,16.86,17.38,8.14S195.5,62.06,187.19,64.38Z" transform="translate(-12.49 -25.49)"/></svg>