<svg id="Layer_4" data-name="Layer 4" xmlns="http://www.w3.org/2000/svg" viewBox="0 0 142.22 162.47"><defs><style>.cls-1,.cls-3{fill:#ffcc31;}.cls-1,.cls-2,.cls-3{stroke:#ae6d09;stroke-miterlimit:10;}.cls-1{stroke-width:0.5px;}.cls-2{fill:#f9c646;stroke-width:0.71px;}.cls-3{stroke-width:0.25px;}.cls-4{fill:#141313;}.cls-5{fill:#9c5d06;}.cls-6,.cls-9{fill:#fff;}.cls-7{fill:#865a35;}.cls-8{fill:#ac710d;}.cls-9{opacity:0.72;isolation:isolate;}.cls-10{fill:#5d2c00;}.cls-11{fill:#ae6d09;}.cls-12{fill:#fff7d7;opacity:0.48;}.cls-13{fill:#262726;}</style></defs><path class="cls-1" d="M31.06,77.71l-.31-6.94c0-.55,0-1.11,0-1.66s-.16-1.49-1.84.12c-2.44,2.35-9.08,5.47-9.08,5.47s-2.23.65-.69,2.19C20.27,78,31.1,91.68,31.1,91.68s.22,7.25-.74,8.33c0,0-18.1-20.88-18.47-25.49s8.32-8.62,8.32-8.62,10.75-7,15.17-7C35.38,58.93,36.17,75.27,31.06,77.71Z" transform="translate(-11.63 -6.65)"/><path class="cls-1" d="M57.33,78l.42-4.86c.06-.56.06-3.3.06-3.86s1,.42,2.88,1.83c1.67,1.28,4.18,2.9,5.88,4a26.8,26.8,0,0,0,3.27,1.72c1.9.84,4.87,2.38,3.74,3.4S55.67,91.75,55.67,91.75s-.1,7.18.81,8.31c0,0,23.55-15.56,24.17-20.14S68.41,66.53,68.41,66.53s-10.74-7.68-14.78-7.69a.11.11,0,0,0-.1.09C53.4,60.23,51.91,76.26,57.33,78Z" transform="translate(-11.63 -6.65)"/><path class="cls-1" d="M30,112.53s.34,11.11,1,18.32a36.68,36.68,0,0,0,1.55,7.62C33.79,142.6,36,150,36.4,153c.08.64.15,1.27.28,1.89.26,1.28.63,3.46.33,4.37a.14.14,0,0,0,.07.18c1,.42,5.18,2.15,6.88,0L43.09,150s-.46-9.8-.9-11.66a38.3,38.3,0,0,1,0-7.16c.15-1,.31-2.09.39-3.14.32-4.19,1-13.61.83-14.31C43.42,113.75,32,108.35,30,112.53Z" transform="translate(-11.63 -6.65)"/><path class="cls-1" d="M45.75,114s5.37,13.28,7.8,20.54a29.33,29.33,0,0,0,2.34,5.21c1.29,2.24,3.26,5.5,5.47,8.64,3.94,5.57,4.75,8,4.75,8l5.33,4.67,2.45-2-2.53-5.9s-7.68-15.56-8.87-20.34a141.48,141.48,0,0,1-2.33-21l-7.24-4.52Z" transform="translate(-11.63 -6.65)"/><path class="cls-2" d="M28.43,33.93l.74,4s-1.69,5.55,1.45,8.87c0,0-1.88,5.39-.44,5.3l4-.09,21.38.45s4.85.9,4.13-2.69l-1.08-2.48s2.68-2.14,2-6.63c0,0,4.08-8.46-.31-15.83S42.21,15.63,36,19s-7.76,11.15-7.76,11.15h0A15.51,15.51,0,0,0,28.43,33.93Z" transform="translate(-11.63 -6.65)"/><path class="cls-1" d="M39.29,56.36s1,2.61-.13,2.55L37,58.82l-.7,6.88,7.38,8.45,7.61-4.35,1.25-8.64-.84-2.42s-2.74,1-2.7-.12a2.59,2.59,0,0,1,.48-1.44l-1.29-2.61-8-.7Z" transform="translate(-11.63 -6.65)"/><path class="cls-3" d="M34.13,25.51S32.7,35.2,31.48,35.87s-.25,6.21-.25,6.21a8.22,8.22,0,0,1-1.95-4.32s-.49.14-.49,3.24,1.59,7.41,3.06,6.47c0,0,2.07,6.74,6.85,8.58a3.46,3.46,0,0,1,1.1.71c1.41,1.32,6.05,4.32,14.13-2.89,0,0,3.38-4.37,3.51-6A5.93,5.93,0,0,0,60.73,43c.24-3.51.24-6.48-1.59-5.12,0,0-3.41-6.34-3.17-8.5C56,29.4,41.32,31.84,34.13,25.51Z" transform="translate(-11.63 -6.65)"/><path class="cls-4" d="M36,36.74s-1.57,1.13-1.16,1.64,1.83-.64,1.83-.64a5.41,5.41,0,0,1,1.83-.19c.41.19,2.48.6,2.08-.26S38.45,36.24,36,36.74Z" transform="translate(-11.63 -6.65)"/><path class="cls-4" d="M50,36.17s-1.57,1.13-1.17,1.63,1.84-.63,1.84-.63A5.36,5.36,0,0,1,52.5,37c.41.19,2.48.59,2.07-.27S52.47,35.67,50,36.17Z" transform="translate(-11.63 -6.65)"/><path class="cls-5" d="M42.73,48.75c-.41,0,.05,1.39,1,1.45s3,.07,2.94-.91c0,0-.16-.65-.74-.13-.4.35-2.21,1.37-2.75-.29C43.23,48.76,42.88,48.71,42.73,48.75Z" transform="translate(-11.63 -6.65)"/><ellipse class="cls-6" cx="26.49" cy="36.2" rx="3.14" ry="2.53"/><ellipse class="cls-7" cx="26.48" cy="35.74" rx="1.98" ry="2.07"/><ellipse class="cls-8" cx="26.93" cy="36.02" rx="0.89" ry="1.04"/><ellipse cx="26.48" cy="35.73" rx="1.05" ry="1.09"/><ellipse class="cls-9" cx="25.7" cy="34.72" rx="0.61" ry="0.64"/><path d="M35,42.93v-.28a3.32,3.32,0,0,1,3.58-2.12,3.38,3.38,0,0,1,2.5,1.7l.15.42.07-1a3.63,3.63,0,0,0-3.19-2.06c-2.37,0-3.47,2.45-3.47,2.45Z" transform="translate(-11.63 -6.65)"/><ellipse class="cls-6" cx="39.69" cy="36.1" rx="3.14" ry="2.53"/><ellipse class="cls-7" cx="39.69" cy="35.64" rx="1.98" ry="2.07"/><ellipse class="cls-8" cx="40.19" cy="35.98" rx="0.89" ry="1.04"/><ellipse cx="39.69" cy="35.63" rx="1.05" ry="1.09"/><ellipse class="cls-9" cx="38.91" cy="34.62" rx="0.61" ry="0.64"/><path d="M48.17,42.83v-.28a3.3,3.3,0,0,1,3.58-2.12,3.36,3.36,0,0,1,2.49,1.7l.16.42.06-1a3.61,3.61,0,0,0-3.2-2.09c-2.36,0-3.47,2.45-3.47,2.45Z" transform="translate(-11.63 -6.65)"/><path class="cls-10" d="M40.62,51.87H49a3.46,3.46,0,0,1-2.92,2.23C43.75,54.35,41.24,53.81,40.62,51.87Z" transform="translate(-11.63 -6.65)"/><path class="cls-11" d="M55.42,29.36s1.07,0,1.31-.76a10.14,10.14,0,0,1-.62,1.24C56,30,55.42,29.36,55.42,29.36Z" transform="translate(-11.63 -6.65)"/><ellipse class="cls-12" cx="33.44" cy="15.2" rx="11.29" ry="3.33"/><g id="Layer_3" data-name="Layer 3"><path class="cls-13" d="M37,159.15c.91.53,4.16,2,7,.13.06,0,.15.08.18.15.44.86,2.87,6.19-3.35,6.76a13.4,13.4,0,0,0-4.92.41s-12.3,2.76-9.75-3.27a0,0,0,0,1,0,0c.07-.1,1-1.35,4.2-2s6.54-.72,6.43-2A.12.12,0,0,1,37,159.15Z" transform="translate(-11.63 -6.65)"/><path class="cls-13" d="M71.05,153.2s2.39,3.62.19,5.07-5.42-2.81-5.42-2.81-.93.77,3.53,6.41,6.51,6.51,9.41,5.65-.1-5.75-.1-5.75S71.37,151.31,71.05,153.2Z" transform="translate(-11.63 -6.65)"/><path class="cls-13" d="M29.75,112.46a15.61,15.61,0,0,0,13.86,1.47l-.33-3.67s0-1.44,1-1.44S45.56,110,45.56,110l-.05,4.25s9.85,1.93,15.42-2.64c0,0-5.75-14.74-4.91-21.74l1.39-12s-2.92-1.46-3.75-8.75l0-10.36-1.94,0s2.39,8.76-5.54,12.72a5.42,5.42,0,0,1-2.56.24c-1.43-.57-7-1.13-6.54-12.94l-1.79,0s.27,16.06-4.37,18.73L31,91s.52,7-.6,8.84Z" transform="translate(-11.63 -6.65)"/><path class="cls-13" d="M27.48,8.59s-1.33,10.53,4.89,14.6c0,0-2.71,3.46-2.38,4.83l.32.79.4.26s.39.18,1.54-2.06c0,0,2.26-5.14,9.9-4.73a13.07,13.07,0,0,0,1.77,0,14.13,14.13,0,0,1,8.66,2.29,35,35,0,0,1,4.66,3.87s3.09,2.06,1.3-1.37L55.1,23.19s3.3-2.4,3.7-14.48l-.07-1s-6.14,2.8-7.8,12.48c0,0-9.41-1.74-14.61.46,0,0-.14-10.07-8.34-14Z" transform="translate(-11.63 -6.65)"/><path class="cls-1" d="M104,79l-.31-6.94a13.31,13.31,0,0,1,0-1.67c0-.66-.17-1.48-1.84.13C99.43,72.88,92.8,76,92.8,76s-2.23.65-.69,2.19C93.2,79.29,104,93,104,93s.23,7.25-.73,8.33c0,0-18.1-20.89-18.47-25.49s8.32-8.62,8.32-8.62,10.75-7,15.17-7C108.31,60.23,109.09,76.57,104,79Z" transform="translate(-11.63 -6.65)"/><path class="cls-1" d="M130.26,79.32l.42-4.87c0-.55.06-3.3.06-3.85s1,.42,2.88,1.83c1.67,1.28,4.18,2.89,5.88,3.95a25.48,25.48,0,0,0,3.27,1.72c1.89.84,4.86,2.38,3.73,3.4s-17.9,11.55-17.9,11.55-.1,7.19.8,8.31c0,0,23.56-15.55,24.18-20.13s-12.24-13.39-12.24-13.39-10.74-7.69-14.78-7.69a.1.1,0,0,0-.1.08C126.33,61.54,124.83,77.57,130.26,79.32Z" transform="translate(-11.63 -6.65)"/><path class="cls-1" d="M102.87,113.84s.35,11.11,1,18.31a36.62,36.62,0,0,0,1.54,7.63c1.3,4.13,3.54,11.53,3.91,14.51.08.63.15,1.26.28,1.89.26,1.28.63,3.45.32,4.36a.15.15,0,0,0,.08.18c.95.43,5.18,2.16,6.88,0l-.87-9.43s-.46-9.79-.9-11.66a38.18,38.18,0,0,1,0-7.15c.15-1,.31-2.09.39-3.14.31-4.2,1-13.61.83-14.31C116.35,115.06,104.9,109.66,102.87,113.84Z" transform="translate(-11.63 -6.65)"/><path class="cls-1" d="M118.67,115.33s5.38,13.27,7.81,20.54a28.24,28.24,0,0,0,2.34,5.2c1.29,2.25,3.26,5.51,5.47,8.64,3.93,5.57,4.75,8,4.75,8l5.32,4.67,2.46-2-2.54-5.89s-7.67-15.57-8.86-20.35a142,142,0,0,1-2.34-21l-7.23-4.53Z" transform="translate(-11.63 -6.65)"/><path class="cls-2" d="M101.36,35.23l.73,4s-1.68,5.55,1.46,8.88c0,0-1.88,5.39-.45,5.3l4-.09,21.38.45s4.85.89,4.13-2.7l-1.09-2.47s2.69-2.15,2.06-6.64c0,0,4.08-8.45-.31-15.82s-18.09-9.18-24.3-5.82-7.77,11.16-7.77,11.16h0A15.46,15.46,0,0,0,101.36,35.23Z" transform="translate(-11.63 -6.65)"/><path class="cls-1" d="M112.22,57.67s1,2.61-.13,2.55l-2.18-.1L109.22,67l7.38,8.45,7.61-4.36,1.25-8.63L124.62,60s-2.74,1-2.7-.11a2.57,2.57,0,0,1,.48-1.44l-1.29-2.61-8-.7Z" transform="translate(-11.63 -6.65)"/><path class="cls-3" d="M107.06,26.81s-1.43,9.69-2.65,10.37-.25,6.21-.25,6.21a8.22,8.22,0,0,1-2-4.32s-.49.14-.49,3.23,1.59,7.42,3,6.48c0,0,2.07,6.73,6.85,8.58a3.24,3.24,0,0,1,1.11.71c1.41,1.32,6,4.32,14.13-2.9,0,0,3.38-4.37,3.51-6a6,6,0,0,0,3.29-4.85c.24-3.51.24-6.48-1.59-5.12,0,0-3.41-6.35-3.17-8.5C128.9,30.71,114.24,33.15,107.06,26.81Z" transform="translate(-11.63 -6.65)"/><path class="cls-4" d="M108.9,38s-1.57,1.14-1.17,1.64,1.84-.64,1.84-.64a5.36,5.36,0,0,1,1.83-.18c.4.18,2.48.59,2.07-.27S111.37,37.55,108.9,38Z" transform="translate(-11.63 -6.65)"/><path class="cls-4" d="M122.92,37.47s-1.56,1.14-1.16,1.64,1.83-.64,1.83-.64a5.2,5.2,0,0,1,1.84-.18c.41.18,2.48.59,2.07-.28S125.4,37,122.92,37.47Z" transform="translate(-11.63 -6.65)"/><path class="cls-5" d="M115.65,50.06c-.4,0,.06,1.38,1,1.45s3,.06,2.93-.92c0,0-.15-.64-.73-.13-.4.36-2.22,1.38-2.75-.28C116.16,50.07,115.81,50,115.65,50.06Z" transform="translate(-11.63 -6.65)"/><ellipse class="cls-6" cx="99.42" cy="37.5" rx="3.14" ry="2.53"/><ellipse class="cls-7" cx="99.41" cy="37.04" rx="1.98" ry="2.07"/><ellipse class="cls-8" cx="99.86" cy="37.32" rx="0.89" ry="1.04"/><ellipse cx="99.41" cy="37.03" rx="1.05" ry="1.09"/><ellipse class="cls-9" cx="98.63" cy="36.03" rx="0.61" ry="0.64"/><path d="M107.9,44.24V44a3.3,3.3,0,0,1,3.57-2.11A3.37,3.37,0,0,1,114,43.53l.14.42.08-1A3.6,3.6,0,0,0,111,40.85c-2.37,0-3.47,2.44-3.47,2.44Z" transform="translate(-11.63 -6.65)"/><ellipse class="cls-6" cx="112.62" cy="37.4" rx="3.14" ry="2.53"/><ellipse class="cls-7" cx="112.62" cy="36.94" rx="1.98" ry="2.07"/><ellipse class="cls-8" cx="113.12" cy="37.28" rx="0.89" ry="1.04"/><ellipse cx="112.62" cy="36.93" rx="1.05" ry="1.09"/><ellipse class="cls-9" cx="111.84" cy="35.93" rx="0.61" ry="0.64"/><path d="M121.1,44.14v-.29a3.29,3.29,0,0,1,3.57-2.11,3.38,3.38,0,0,1,2.5,1.69l.15.42.07-1a3.59,3.59,0,0,0-3.2-2.09c-2.37,0-3.48,2.45-3.48,2.45Z" transform="translate(-11.63 -6.65)"/><path class="cls-10" d="M113.55,53.18h8.36A3.46,3.46,0,0,1,119,55.41C116.68,55.66,114.17,55.11,113.55,53.18Z" transform="translate(-11.63 -6.65)"/><path class="cls-11" d="M128.35,30.66s1.06,0,1.3-.75a10.62,10.62,0,0,1-.61,1.23C128.9,31.28,128.35,30.66,128.35,30.66Z" transform="translate(-11.63 -6.65)"/><ellipse class="cls-12" cx="106.37" cy="16.5" rx="11.29" ry="3.33"/><path class="cls-13" d="M109.93,160.46c.91.52,4.16,2,7,.13.06,0,.14.08.18.14.43.87,2.87,6.2-3.35,6.76a13.4,13.4,0,0,0-4.92.41s-12.3,2.77-9.76-3.27v0c.07-.11,1-1.36,4.2-2s6.55-.72,6.43-2A.12.12,0,0,1,109.93,160.46Z" transform="translate(-11.63 -6.65)"/><path class="cls-13" d="M144,154.5s2.39,3.63.18,5.08-5.41-2.81-5.41-2.81-.93.76,3.53,6.41,6.51,6.51,9.41,5.64-.11-5.75-.11-5.75S144.3,152.62,144,154.5Z" transform="translate(-11.63 -6.65)"/><path class="cls-13" d="M102.68,113.77a15.65,15.65,0,0,0,13.86,1.47l-.34-3.67s0-1.44,1-1.44,1.28,1.15,1.28,1.15l0,4.25s9.84,1.92,15.41-2.65c0,0-5.74-14.73-4.91-21.73l1.4-12s-2.92-1.45-3.75-8.74l0-10.36-1.94,0s2.39,8.75-5.54,12.72a5.56,5.56,0,0,1-2.56.24c-1.43-.58-7-1.13-6.54-12.94l-1.8,0s.28,16.07-4.36,18.73L104,92.28s.52,7-.6,8.85Z" transform="translate(-11.63 -6.65)"/><path class="cls-13" d="M100.4,9.9s-1.32,10.53,4.9,14.59c0,0-2.71,3.47-2.39,4.84l.33.79.39.25s.4.18,1.55-2.05c0,0,2.26-5.15,9.9-4.73a14.74,14.74,0,0,0,1.76,0,14,14,0,0,1,8.67,2.29,35,35,0,0,1,4.66,3.87s3.09,2.06,1.3-1.38L128,24.5s3.3-2.41,3.7-14.48l-.07-1s-6.14,2.8-7.81,12.47c0,0-9.4-1.73-14.61.47,0,0-.13-10.07-8.33-14Z" transform="translate(-11.63 -6.65)"/></g></svg>