<svg xmlns="http://www.w3.org/2000/svg" viewBox="0 0 142.25 138.46"><defs><style>.cls-1{isolation:isolate;}.cls-2{fill:#955d98;stroke:#592d55;}.cls-11,.cls-2{stroke-miterlimit:10;}.cls-3{opacity:0.63;mix-blend-mode:multiply;}.cls-4{fill:#482545;opacity:0.37;mix-blend-mode:overlay;}.cls-5{opacity:0.6;}.cls-10,.cls-5{mix-blend-mode:lighten;}.cls-6{fill:#935892;mix-blend-mode:hard-light;}.cls-7{fill:#b481b1;}.cls-8{fill:#9b8a9a;opacity:0.92;}.cls-9{fill:#9ac44d;}.cls-10{fill:#beed62;opacity:0.27;}.cls-11{fill:none;stroke:#6b8149;}</style></defs><title>Eggplant</title><g class="cls-1"><g id="Fill"><path class="cls-2" d="M93.67,21.8l10.54,6.07s25.73,33.08,49.54,42,39.3,27,41.06,36.28,5.27,37.86-23.17,38.18-59.76-27.48-59.76-27.48S74.43,84.56,65.57,56.35L58.13,29.56l12.24-8.48Z" transform="translate(-54.22 -6.4)"/></g><g id="Shading" class="cls-3"><path class="cls-4" d="M69.12,32.71s20.26,36.9,31.45,44.46c10.6,7.16,29.63,30.9,65.84,48.56A26.9,26.9,0,0,0,184.19,128c5.8-1.34,11.57-4.76,11.42-13.08,0,0,3.54,24.87-17,27.89s-56.85-10.89-85-43.55S59.26,41.05,61.32,33.1,69.12,32.71,69.12,32.71Z" transform="translate(-54.22 -6.4)"/></g><g id="Highlights" class="cls-5"><path class="cls-6" d="M78.41,27.53S100.91,76.25,134,95a133.54,133.54,0,0,1,21.31,15.31c9.74,8.4,24.26,17.88,35.37,12.06,9.64-5.06,4.1-15.19-3.34-23.66a82.48,82.48,0,0,0-23.12-18.12c-16.67-8.91-55-31.53-75.32-60.91Z" transform="translate(-54.22 -6.4)"/><path class="cls-7" d="M75.7,29.61S97.52,76.84,129.63,95a129.43,129.43,0,0,1,20.66,14.84c9.45,8.15,23.52,17.34,34.29,11.69,9.35-4.91,4-14.72-3.24-22.93a79.6,79.6,0,0,0-22.41-17.57c-16.16-8.64-53.28-30.57-73-59Z" transform="translate(-54.22 -6.4)"/><path class="cls-8" d="M85.33,68.69s49.39,58.72,82.51,66.85C167.84,135.54,110,130.72,85.33,68.69Z" transform="translate(-54.22 -6.4)"/></g><g id="Top"><path class="cls-9" d="M61.46,16.39s-8.58,7.89-6.18,15.44S57.11,41.45,56.94,43s2.09,10.77,10,13.17c0,0-4.26-9.91-3.92-17,0,0-1-5.66-1.54-6.17s6,4.63,11.66,2.23S84.27,46.92,84.27,46.92s2.91,6.35,4.12-.34,2.74-11,.51-19.56,3.6-1.88,3.6-1.88,14.75,5.31,18.18-1c0,0-5.66,3.94-16.46-6,0,0-10.64-13.2-24.87-6.51,0,0-.8.86-2.3-2.05s-4.24-3.3-6.28-2A2.9,2.9,0,0,0,59.67,11S63.09,15.61,61.46,16.39Z" transform="translate(-54.22 -6.4)"/><path class="cls-10" d="M71.61,10.45S66.9,19.36,73.43,30A180.59,180.59,0,0,0,86.21,48.15s6.71-4.32,1.19-24.44c0,0,.3-2.09,3.43-.3s11.77,5.81,18.63,1.49c0,0-9.83.06-14.75-5.91S80.6,7.79,71.61,10.45Z" transform="translate(-54.22 -6.4)"/><path class="cls-11" d="M61.32,16.46s-8.58,7.89-6.18,15.44S57,41.52,56.8,43.07s2.09,10.76,10,13.16c0,0-4.26-9.91-3.92-17,0,0-1-5.66-1.54-6.17s6,4.63,11.66,2.23S84.13,47,84.13,47s2.91,6.35,4.11-.34,2.75-11,.52-19.55,3.6-1.89,3.6-1.89,14.75,5.32,18.18-1c0,0-5.66,3.95-16.46-6,0,0-10.64-13.21-24.87-6.52,0,0-.8.86-2.3-2s-4.24-3.3-6.28-2a2.88,2.88,0,0,0-1.1,3.54S63,15.69,61.32,16.46Z" transform="translate(-54.22 -6.4)"/></g></g></svg>