<svg xmlns="http://www.w3.org/2000/svg" viewBox="0 0 118.49 122.04"><defs><style>.cls-1{fill:#2c249a;}.cls-2{fill:#ffcc31;}.cls-3{fill:#844501;}.cls-4{fill:#9c5d06;}.cls-5,.cls-8{fill:#fff;}.cls-6{fill:#351f01;}.cls-7{fill:#956802;}.cls-8{opacity:0.72;}.cls-13,.cls-19,.cls-9{fill:#f9c646;stroke:#ae6d09;stroke-miterlimit:10;}.cls-9{stroke-width:0.48px;}.cls-10{fill:#ae6d09;}.cls-11{fill:#0f58ce;}.cls-12{fill:#e85fe2;}.cls-13{stroke-width:0.49px;}.cls-14{opacity:0.19;}.cls-15{fill:#a17118;}.cls-16{fill:#865a35;}.cls-17{fill:#c5a947;opacity:0.88;}.cls-18{fill:#c2830d;}.cls-19{stroke-width:0.49px;}</style></defs><g id="Layer_3" data-name="Layer 3"><path class="cls-1" d="M67.81,150.09,68,97.35s5.28-16,25.34-17.62,30.36,10,31.68,12.74,1.24,57.23,1.24,57.23Z" transform="translate(-67.81 -28.11)"/><path class="cls-2" d="M81,41.12s-2.11,13.24-3.91,14.16-.37,8.48-.37,8.48S74,61,73.86,57.86c0,0-.72.19-.72,4.42s2.34,10.13,4.51,8.84c0,0,2.52,12.71,10.27,14.74,0,0,13.33,9.21,23.06-6.27,0,0,4.33-5.7,4.51-7.92,0,0,4.5-1.84,4.86-6.63s.36-8.84-2.34-7c0,0-5.05-8.66-4.69-11.61C113.32,46.44,91.66,49.78,81,41.12Z" transform="translate(-67.81 -28.11)"/><path class="cls-3" d="M83.39,52.75s-2.58,2.12-1.91,3.06,3.08-1.19,3.08-1.19,2.41-.68,3.08-.34,4.08,1.11,3.41-.51S87.47,51.81,83.39,52.75Z" transform="translate(-67.81 -28.11)"/><path class="cls-3" d="M103.72,52.11s-2.89,1.65-2.39,2.69,3.24-.65,3.24-.65,2.49-.26,3.09.19,3.84,1.79,3.45.09S107.9,51.88,103.72,52.11Z" transform="translate(-67.81 -28.11)"/><path class="cls-4" d="M93.61,70c-.68.07.17,1.84,1.67,2.33s5.09-.06,4.91-1.68c0,0-.39-.42-.92.44s-4.44,2.14-5.26-.54C94,70.39,93.82,70,93.61,70Z" transform="translate(-67.81 -28.11)"/><path d="M91.74,75.63h10.44s-.77,4.08-4.41,4.08S92.5,78.85,91.74,75.63Z" transform="translate(-67.81 -28.11)"/><ellipse class="cls-5" cx="18.98" cy="32.98" rx="5.18" ry="4.08"/><ellipse class="cls-5" cx="38.49" cy="33.21" rx="5.18" ry="4.08"/><ellipse class="cls-6" cx="18.92" cy="32.13" rx="3.26" ry="3.34"/><ellipse cx="18.84" cy="32.12" rx="1.72" ry="1.75"/><ellipse class="cls-7" cx="19.9" cy="33.12" rx="0.85" ry="0.99"/><ellipse cx="18.92" cy="32.12" rx="1.72" ry="1.75"/><ellipse cx="38.84" cy="32.3" rx="1.72" ry="1.75"/><ellipse class="cls-6" cx="38.61" cy="32.36" rx="3.26" ry="3.34"/><ellipse class="cls-7" cx="39.83" cy="33.28" rx="0.85" ry="0.99"/><ellipse cx="38.75" cy="32.29" rx="1.72" ry="1.75"/><ellipse class="cls-8" cx="17.63" cy="30.48" rx="0.99" ry="1.04"/><ellipse class="cls-8" cx="37.49" cy="30.51" rx="0.99" ry="1.04"/><path class="cls-9" d="M73.61,57.42s.89,8,4.34,7.57c0,0-3.54-4.5.81-11.55,0,0,3.06-2.4,2.81-10.62,0,0,7.91,7.31,31.4,3.92,0,0-.6,5.55,5.27,11.82,0,0,5.3-26.07-16.92-29.72s-28,14.61-28,14.61S71.69,52.59,73.61,57.42Z" transform="translate(-67.81 -28.11)"/><path class="cls-10" d="M78.6,37.76a19.13,19.13,0,0,0,7.15,7l.71.67s-3.72-1-4.89-2.87c0,0,.25,5.27-.75,7v-1s1.59-3.26-.06-6.08c-.9-1.55-2-3.45-3.43-5.5-.47-.66,0,.07.28-.75Z" transform="translate(-67.81 -28.11)"/><path class="cls-10" d="M112.09,46.64s2.53-.11,2.69-1.63a1.85,1.85,0,0,1-1.87,1.92Z" transform="translate(-67.81 -28.11)"/><path class="cls-11" d="M128.17,149.94V97.68s5.28-15.58,25.34-17.16,30.36,9.76,31.68,12.4,1.1,57.17,1.1,57.17Z" transform="translate(-67.81 -28.11)"/><path class="cls-2" d="M141.74,41.39s-2.12,13.24-3.92,14.16-.36,8.47-.36,8.47-2.71-2.76-2.89-5.89c0,0-.72.18-.72,4.42s2.35,10.13,4.51,8.84c0,0,2.52,12.7,10.27,14.73,0,0,13.33,9.21,23.06-6.26,0,0,4.33-5.71,4.51-7.92,0,0,4.5-1.84,4.86-6.63s.36-8.84-2.34-7c0,0-5-8.66-4.68-11.6C174,46.71,152.37,50,141.74,41.39Z" transform="translate(-67.81 -28.11)"/><path class="cls-3" d="M144.11,53s-2.58,2.13-1.92,3.06,3.08-1.19,3.08-1.19,2.42-.68,3.08-.34,4.08,1.11,3.41-.51S148.18,52.08,144.11,53Z" transform="translate(-67.81 -28.11)"/><path class="cls-3" d="M164.44,52.37s-2.9,1.65-2.39,2.69,3.23-.64,3.23-.64,2.49-.26,3.09.19,3.84,1.79,3.45.08S168.61,52.15,164.44,52.37Z" transform="translate(-67.81 -28.11)"/><path class="cls-4" d="M154.32,70.24c-.67.07.17,1.85,1.67,2.34s5.09-.06,4.91-1.69c0,0-.38-.42-.92.44s-4.44,2.14-5.26-.54C154.68,70.65,154.53,70.22,154.32,70.24Z" transform="translate(-67.81 -28.11)"/><path d="M152.45,75.9h10.44S162.12,80,158.48,80,153.21,79.12,152.45,75.9Z" transform="translate(-67.81 -28.11)"/><ellipse class="cls-5" cx="79.69" cy="33.24" rx="5.18" ry="4.08"/><ellipse class="cls-5" cx="99.2" cy="33.47" rx="5.18" ry="4.08"/><ellipse class="cls-6" cx="79.63" cy="32.4" rx="3.26" ry="3.34"/><ellipse cx="79.55" cy="32.38" rx="1.72" ry="1.75"/><ellipse class="cls-7" cx="80.61" cy="33.39" rx="0.85" ry="0.99"/><ellipse cx="79.63" cy="32.38" rx="1.72" ry="1.75"/><ellipse cx="99.56" cy="32.57" rx="1.72" ry="1.75"/><ellipse class="cls-6" cx="99.32" cy="32.63" rx="3.26" ry="3.34"/><ellipse class="cls-7" cx="100.54" cy="33.54" rx="0.85" ry="0.99"/><ellipse cx="99.47" cy="32.55" rx="1.72" ry="1.75"/><ellipse class="cls-8" cx="78.35" cy="30.75" rx="0.99" ry="1.04"/><ellipse class="cls-8" cx="98.2" cy="30.78" rx="0.99" ry="1.04"/><path class="cls-9" d="M134.32,57.68s.89,8,4.34,7.57c0,0-3.53-4.5.81-11.55,0,0,3.07-2.4,2.81-10.62,0,0,7.91,7.32,31.4,3.93,0,0-.6,5.55,5.28,11.81,0,0,5.29-26.07-16.93-29.72s-28,14.62-28,14.62S132.4,52.86,134.32,57.68Z" transform="translate(-67.81 -28.11)"/><path class="cls-10" d="M139.32,38a19.07,19.07,0,0,0,7.14,7l.72.68s-3.73-1-4.9-2.88c0,0,.25,5.27-.74,7v-1s1.58-3.26-.06-6.08c-.91-1.55-2-3.46-3.44-5.51-.46-.66,0,.07.29-.75Z" transform="translate(-67.81 -28.11)"/><path class="cls-10" d="M172.81,46.9s2.52-.1,2.68-1.63a1.85,1.85,0,0,1-1.87,1.92Z" transform="translate(-67.81 -28.11)"/></g><g id="Layer_4" data-name="Layer 4"><path class="cls-12" d="M114.62,134.58S107,140.8,106.32,150l41.9.16s-5.4-16.05-10.26-16.83Z" transform="translate(-67.81 -28.11)"/><path class="cls-2" d="M131.57,100.59l-24,9-2.72,11.82s7.54,18.77,18.77,20.92,14.47-3,18.15-6.79,8.51-13.73,8.51-13.73Z" transform="translate(-67.81 -28.11)"/><g id="Hair"><path class="cls-13" d="M113.57,135.92s-4.61,9.11-7.27,6.3-5.39-3.46-5.6-6.92c0,0-.81-.91,1.75-2.09a35.44,35.44,0,0,1,7.2-1.92s-8.83-4-7.17-16.85,9.7-22.29,25.6-20.73c0,0,2.59,15.25-9.72,16.38,0,0-10.48,6.43-10.16,10.63,0,0-3.26,3.63,1.78,8.06Z" transform="translate(-67.81 -28.11)"/><g class="cls-14"><path class="cls-15" d="M109.87,131.54a14.09,14.09,0,0,1,.85,4.39,1,1,0,0,1-.38.65l-3.14,2.6a1,1,0,0,0-.36,1,5.69,5.69,0,0,0,1,2.44c.59.47,4.67-4.29,5.59-6.24a.89.89,0,0,0,0-.82c-.67-1.18-2.68-4.59-3.4-4.19A.16.16,0,0,0,109.87,131.54Z" transform="translate(-67.81 -28.11)"/></g><path class="cls-10" d="M106.35,114s6.55-5.66,12-4.06c0,0,4.15-.14,4.86-1.49,0,0-7.54-.6-9.9.12C113.34,108.53,109.22,109,106.35,114Z" transform="translate(-67.81 -28.11)"/></g><path d="M121.79,133.75H134s-.9,3.12-5.16,3.12S122.68,136.22,121.79,133.75Z" transform="translate(-67.81 -28.11)"/><path class="cls-3" d="M135.54,115.17s-2.9.5-2.45,1.3,3.18.25,3.18.25a12,12,0,0,1,3,.78c.56.43,3.66,2,3.36.79S139.63,115.91,135.54,115.17Z" transform="translate(-67.81 -28.11)"/><path class="cls-3" d="M119.49,115.2s2.92.35,2.52,1.17-3.17.41-3.17.41a11.45,11.45,0,0,0-3,.94c-.55.45-3.56,2.19-3.32,1S115.45,116.14,119.49,115.2Z" transform="translate(-67.81 -28.11)"/><ellipse class="cls-5" cx="50.91" cy="96.39" rx="5.33" ry="3.51"/><ellipse class="cls-16" cx="50.9" cy="96.01" rx="3.36" ry="3.12"/><ellipse class="cls-17" cx="51.62" cy="96.65" rx="1.77" ry="1.69"/><ellipse class="cls-7" cx="51.82" cy="96.36" rx="1.36" ry="1.41"/><ellipse cx="50.9" cy="96" rx="1.77" ry="1.64"/><ellipse class="cls-8" cx="49.58" cy="94.47" rx="1.02" ry="0.97"/><path d="M113.38,125l0-.4s1.31-3.36,6.06-3a6,6,0,0,1,4.25,2.38l.31.62,0-.59a6.14,6.14,0,0,0-5.42-3.83c-4-.06-5.49,4.19-5.49,4.19Z" transform="translate(-67.81 -28.11)"/><ellipse class="cls-5" cx="69.41" cy="96.33" rx="5.33" ry="3.51"/><ellipse class="cls-16" cx="69.4" cy="95.96" rx="3.36" ry="3.12"/><ellipse class="cls-17" cx="70.12" cy="94.59" rx="1.77" ry="1.69"/><ellipse class="cls-7" cx="70.32" cy="94.31" rx="1.36" ry="1.41"/><ellipse cx="69.4" cy="95.95" rx="1.77" ry="1.64"/><ellipse class="cls-8" cx="68.08" cy="94.42" rx="1.02" ry="0.97"/><path d="M131.88,124.9l0-.4s1.31-3.35,6.06-3a6,6,0,0,1,4.24,2.38l.32.62,0-.59a6.13,6.13,0,0,0-5.42-3.83c-4-.06-5.49,4.18-5.49,4.18Z" transform="translate(-67.81 -28.11)"/><path class="cls-18" d="M126,129.08a2.66,2.66,0,0,0,3.73.08s.69.33.35.59-1.55,2.07-4.45,0C125.64,129.73,125.24,129.14,126,129.08Z" transform="translate(-67.81 -28.11)"/><g id="Hair-2" data-name="Hair"><path class="cls-19" d="M141.44,136.41s4.2,9.32,7,6.65,5.62-3.19,6-6.64c0,0,.86-.87-1.66-2.17a35.73,35.73,0,0,0-7.18-2.27s8.27-1.41,7.25-14.29-7.55-26.89-24.57-24.1c0,0-2.76,15.07,9.61,16.79,0,0,10,8.21,9.45,12.4,0,0,2.93,3.14-2.38,7.32Z" transform="translate(-67.81 -28.11)"/><g class="cls-14"><path class="cls-15" d="M145.4,132.22a14.12,14.12,0,0,0-1.08,4.34,1,1,0,0,0,.35.67l3,2.75a1,1,0,0,1,.31,1,5.63,5.63,0,0,1-1.09,2.4c-.61.44-4.49-4.52-5.32-6.5a.89.89,0,0,1,.1-.83c.73-1.14,2.94-4.45,3.64-4A.17.17,0,0,1,145.4,132.22Z" transform="translate(-67.81 -28.11)"/></g></g></g></svg>