<svg id="Layer_2" data-name="Layer 2" xmlns="http://www.w3.org/2000/svg" viewBox="0 0 143.07 144.32"><defs><style>.cls-1{fill:#8f38a7;}.cls-2{fill:#660087;opacity:0.2;}.cls-3{fill:#fefaff;opacity:0.16;}.cls-4{fill:#fff;}</style></defs><title>female</title><rect class="cls-1" width="143.07" height="144.32" rx="25.18"/><rect class="cls-2" x="3.11" y="3.49" width="136.85" height="137.34" rx="26.52"/><rect class="cls-3" x="5.92" y="7.28" width="131.23" height="129.76" rx="25.25"/><g id="Person"><circle class="cls-4" cx="71.42" cy="33.19" r="11"/><path class="cls-4" d="M118.66,58.21h11l19.49,10.55s7.15,4.26,4.05,7.47c-3.3,3.42-8.6-1.07-8.6-1.07l-10.32-7.24c-.94-.62-1.41.16-1.34,1.28,0,0-.09,1.73-.09,1.75.12,1.62.09,4.72.09,4.72l20.51,30.16L133,105.45v19a7.61,7.61,0,0,1-7.47,5.36c-6.17.16-8.93-7-8.93-7V105.29h-20L117.2,75.67V69.51s.88-2.25-1.46-.29-12.82,8.22-12.82,8.22-4.7,1.37-6.07-.88-1-4.41.19-5.19S118.66,58.21,118.66,58.21Z" transform="translate(-53.46 -2.84)"/></g></svg>