<svg xmlns="http://www.w3.org/2000/svg" viewBox="0 0 88.44 89.19"><defs><style>.cls-1{fill:#c7af63;}.cls-17,.cls-2{fill:#c99273;}.cls-3{fill:#ddb58d;}.cls-4{fill:#7d553a;}.cls-5{fill:#825943;}.cls-10,.cls-6{fill:#fff;}.cls-7{fill:#865a35;}.cls-8{fill:#c5a947;opacity:0.88;}.cls-9{fill:#956802;}.cls-10{opacity:0.72;}.cls-11{fill:#281a10;}.cls-12{fill:#977338;opacity:0.49;}.cls-13{fill:#e2d7a4;opacity:0.51;}.cls-14{fill:#ad8c46;}.cls-15{fill:#b16d44;}.cls-16{fill:#592e1b;opacity:0.65;}.cls-17{opacity:0.37;}</style></defs><g id="Layer_4" data-name="Layer 4"><path class="cls-1" d="M40.3,108.69c-4-.49-10.44-4.85-7-9.25,7.19-9.28,42-2.52,42-2.52L119,96.26s3.85,12.83-7.16,13.25S40.3,108.69,40.3,108.69Z" transform="translate(-31.22 -20.41)"/><path class="cls-2" d="M57.07,28.45s-9.8,24.49-12.61,26-.56,14-.56,14-4.22-4.56-4.5-9.73c0,0-1.12.31-1.12,7.3s3.65,16.7,7,14.58c0,0,2.77,9.42,13.14,19,1.27,1.17,4.48,2.23,5.82,3.32C68.1,106,78.59,110.3,96.18,95c0,0,7.81-9.86,8.09-13.5,0,0,7-3,7.58-10.94S112.41,56,108.2,59c0,0-7.86-14.28-7.3-19.14C100.9,39.88,73.64,42.73,57.07,28.45Z" transform="translate(-31.22 -20.41)"/><path class="cls-3" d="M58.7,34.26s-7,25.22-12.08,28.48c0,0-1.88,33,22,40.73,24.46,8,35.13-29.31,35.13-29.31s1.16-9.66-4-11S61.88,41.41,58.7,34.26Z" transform="translate(-31.22 -20.41)"/><path class="cls-4" d="M54.81,56.41S51.2,59,52.14,60.09s4.3-1.43,4.3-1.43,3.38-.81,4.31-.41,5.71,1.33,4.78-.61S60.52,55.29,54.81,56.41Z" transform="translate(-31.22 -20.41)"/><path class="cls-4" d="M87.13,55.13s-3.61,2.55-2.68,3.67,4.31-1.43,4.31-1.43,3.38-.81,4.31-.41,5.71,1.33,4.77-.61S92.84,54,87.13,55.13Z" transform="translate(-31.22 -20.41)"/><path class="cls-5" d="M71,82.18c-.94.1-.43,2.57,1.78,2.71s6.36.65,5.13-2.83c0,0-.5-.07-.66,1.17s-.34,1.29-4,1.25C71.55,84.46,71.24,82.14,71,82.18Z" transform="translate(-31.22 -20.41)"/><ellipse class="cls-6" cx="28.53" cy="49.74" rx="7.24" ry="5.7"/><ellipse class="cls-7" cx="28.53" cy="48.72" rx="4.56" ry="4.66"/><ellipse class="cls-8" cx="29.5" cy="49.66" rx="2.4" ry="2.52"/><ellipse class="cls-9" cx="29.78" cy="49.24" rx="1.85" ry="2.11"/><ellipse cx="28.53" cy="48.7" rx="2.4" ry="2.45"/><ellipse class="cls-10" cx="26.74" cy="46.41" rx="1.39" ry="1.46"/><path class="cls-11" d="M52.5,70.37l0-.65A7.6,7.6,0,0,1,60.79,65a7.81,7.81,0,0,1,5.76,3.83l.35.94.15-2.34a8.27,8.27,0,0,0-7.38-4.71c-5.45-.1-8,5.51-8,5.51Z" transform="translate(-31.22 -20.41)"/><ellipse class="cls-6" cx="58.96" cy="49.51" rx="7.24" ry="5.7"/><ellipse class="cls-7" cx="58.96" cy="48.49" rx="4.56" ry="4.66"/><ellipse class="cls-8" cx="59.93" cy="49.44" rx="2.4" ry="2.52"/><ellipse class="cls-9" cx="60.2" cy="49.01" rx="1.85" ry="2.11"/><ellipse cx="58.96" cy="48.47" rx="2.4" ry="2.45"/><ellipse class="cls-10" cx="57.16" cy="46.19" rx="1.39" ry="1.46"/><path class="cls-11" d="M82.93,70.15l0-.65a7.58,7.58,0,0,1,8.23-4.77A7.78,7.78,0,0,1,97,68.56l.35.94.16-2.35a8.3,8.3,0,0,0-7.38-4.71c-5.45-.1-8,5.51-8,5.51Z" transform="translate(-31.22 -20.41)"/><path class="cls-1" d="M57.64,30.29s5.82,20.58-13.25,31.93c0,0,1.62,32.22,19.24,40.34,0,0-.65,2.83-5.1,4.76,0,0-21.91,5.27-25.57-1.13a9.54,9.54,0,0,1-.53-3.37S23,42,60.17,24s55.7,37.24,55.7,37.24,7.95,45.56.28,47l-26-.86s-11.84,1.36-4.35-3c2.1-1.21,2.79-2.63,4.53-4.3,4-3.83,12.08-14.31,13.23-22.21,0,0,2,3,1.72-3.52s-.49-10.3-2.83-11c0,0-24.41-8.73-28.33-14.22A27.08,27.08,0,0,1,57.64,30.29Z" transform="translate(-31.22 -20.41)"/><path class="cls-12" d="M31.42,91.86,45.55,88.3l9.79,19.11,37.37.18S98.32,86.67,118.32,85c0,0-2-8.08-5.32-12.39-.74-1-6.56-8.64-8.47-8.53-1.48.08,2.15,12.5.74,14.59-.41.59-1.62-.11-1.89.55-2.12,5.12-11.07,23.87-25.64,26.09-3.93.6-9.33,1.41-18.31-5.31-1.16-.86-6.31-7.24-7.29-8.64-2.64-3.73-7.16-18-7-23.29.14-7.09-7.18-2.13-9.79,1.16C35.3,69.18,30.13,78.31,31.42,91.86Z" transform="translate(-31.22 -20.41)"/><path class="cls-13" d="M57.71,30.7s17.11,25.65,46.1,30.86c0,0-4.91-38-45.64-30.75" transform="translate(-31.22 -20.41)"/><path class="cls-14" d="M57.62,30.14S53.62,49.36,43.26,63C43.26,63,63.6,51.87,57.62,30.14Z" transform="translate(-31.22 -20.41)"/><path class="cls-14" d="M74.22,48.37s.61-1.41-2.07-3.54c-3-2.35-9.35-5.84-14.41-14.28a.11.11,0,0,0-.2.06C58.1,33.34,61.21,45,74.22,48.37Z" transform="translate(-31.22 -20.41)"/><path class="cls-14" d="M68.27,45.79l.59-2s13,7,34.91,17.59l.57,3.15S78.47,54.26,68.27,45.79Z" transform="translate(-31.22 -20.41)"/><path class="cls-13" d="M36.52,67.55S58.37,57,57.6,30.46c0,0-14.6,9.15-21.08,36.91" transform="translate(-31.22 -20.41)"/><path class="cls-14" d="M101.52,61.37s17.57,9.44,17.34,24.78A288,288,0,0,0,101.52,61.37Z" transform="translate(-31.22 -20.41)"/><path class="cls-15" d="M74.86,91.44A3.7,3.7,0,0,0,71,90.59a42,42,0,0,1-7.56.76s4.35,5.06,8.31,5.78,10.56-.38,14.29-5.3c0,0-3.39-.34-4.26-1s-4.7-1.11-6,.64C75.85,91.48,75.27,92.06,74.86,91.44Z" transform="translate(-31.22 -20.41)"/><path class="cls-16" d="M75,92.75a4.89,4.89,0,0,0-2.91-.63,50.24,50.24,0,0,1-5.88.19s4.41,3.33,7.51,3.51,7.18-1.3,10.25-3.29a24.81,24.81,0,0,1-3.57-.32,7.41,7.41,0,0,0-4.32.54S75.26,93,75,92.75Z" transform="translate(-31.22 -20.41)"/><path class="cls-17" d="M73.79,82.67s-3.1-2.28-4.6.25,6.06,3.32,6.06,3.32,4.84-.71,3.87-3.73-3,.78-3,.78S73.84,83.75,73.79,82.67Z" transform="translate(-31.22 -20.41)"/></g></svg>