<svg id="Layer_3" data-name="Layer 3" xmlns="http://www.w3.org/2000/svg" viewBox="0 0 75.83 93.88"><defs><style>.cls-1{fill:#b98764;}.cls-2{fill:#3a1f0a;}.cls-3,.cls-6{fill:#fff;}.cls-4{fill:#351f01;}.cls-5{fill:#804302;}.cls-6{opacity:0.72;}.cls-15,.cls-7{fill:#a46d53;}.cls-16,.cls-7{opacity:0.8;}.cls-8{fill:#8e5f3c;stroke:#684021;stroke-miterlimit:10;stroke-width:1.69px;}.cls-9{fill:#684021;}.cls-10{fill:#512e14;}.cls-11{fill:#24120b;}.cls-12{fill:#aa7b5c;opacity:0.46;}.cls-13{fill:#8f5f3d;opacity:0.54;}.cls-14{fill:#af765b;opacity:0.67;}.cls-15{opacity:0.75;}.cls-16{fill:#c09069;}.cls-17{fill:#e5b89a;opacity:0.16;}.cls-18{fill:#724837;}</style></defs><path class="cls-1" d="M32.45,36.81s-3.36,21-6.23,22.48-2-3.11-2-3.11-2.81,12.18-3.1,7.21c0,0-1.14.29-1.14,7s3,13.87,6.46,11.83c0,0,4.69,20.49,17.18,25.12,0,0,26.79,10.1,38.44-12.21,0,0,6.09-9.09,6.38-12.6,0,0,5.93-.15,6.51-7.75s.57-14-3.72-11.12c0,0-8-13.74-7.44-18.42C83.74,45.26,49.33,50.55,32.45,36.81Z" transform="translate(-19.33 -15.76)"/><path class="cls-2" d="M36.21,55.27s-4.1,3.38-3,4.86,4.89-1.89,4.89-1.89,3.83-1.08,4.89-.54,6.48,1.76,5.42-.81S42.69,53.78,36.21,55.27Z" transform="translate(-19.33 -15.76)"/><path class="cls-2" d="M68.49,54.25s-4.59,2.63-3.79,4.27,5.13-1,5.13-1,4-.41,4.91.3,6.1,2.85,5.48.13S75.12,53.9,68.49,54.25Z" transform="translate(-19.33 -15.76)"/><ellipse class="cls-3" cx="53.25" cy="52.93" rx="8.22" ry="6.48"/><ellipse class="cls-3" cx="22.19" cy="52.63" rx="8.22" ry="6.48"/><ellipse class="cls-4" cx="22.28" cy="51.48" rx="5.18" ry="5.3"/><ellipse class="cls-5" cx="23.03" cy="52.37" rx="2.72" ry="2.78"/><ellipse cx="22.17" cy="51.39" rx="2.72" ry="2.78"/><ellipse class="cls-4" cx="53.34" cy="51.88" rx="5.18" ry="5.3"/><ellipse class="cls-5" cx="54.43" cy="52.44" rx="2.72" ry="2.78"/><ellipse cx="53.67" cy="51.66" rx="2.72" ry="2.78"/><ellipse class="cls-6" cx="20.14" cy="48.79" rx="1.58" ry="1.65"/><ellipse class="cls-6" cx="51.67" cy="48.84" rx="1.58" ry="1.65"/><path class="cls-7" d="M34.1,41.46l-.18,3.19s10.42,8,47.12,5.54c0,0,7.87,6.08,1.34,35.38,0,0,7.49-3.1,7.37-27.63L84.17,45.76S55.33,51.41,34.1,41.46Z" transform="translate(-19.33 -15.76)"/><path class="cls-8" d="M21,63.82s4.87-.49,8.73-8A36.29,36.29,0,0,0,33.31,39.5s12.56,11.62,49.87,6.23c0,0-1,8.82,8.37,18.76,0,0,8.41-41.39-26.88-47.19-10.78-1.78-19.23,0-25.76,3.39-12,6.19-18.11,18.83-18.63,32.72C20,62,20.52,61.77,21,63.82Z" transform="translate(-19.33 -15.76)"/><path class="cls-9" d="M27.74,31.56s4.84,6.25,4.75,9.36l1.8-1.39-5.52-9.32Z" transform="translate(-19.33 -15.76)"/><path class="cls-9" d="M80.8,45.25s4.75,0,4.86-2.49c0,0,2.81,2.7-3.14,3.89Z" transform="translate(-19.33 -15.76)"/><path class="cls-10" d="M27.12,60.5s-1.89,19.38,4.53,23.88c0,0,8,13.36,13.59,4.12,0,0,1-1.83,4-1.75s15.95.07,15.95.07,1.38-.38,2.75,1.3L71.05,91s2.44,3.13,6.56-.54c0,0,10.62-7.72,11-18.64l-.08-10.51,3.42,4.45s-1.67,21.07-12,33.23C71.1,109.29,62.21,109.6,57,109.6S37.79,108.69,31.36,96c-5.93-11.73-6.89-26.52-6.89-26.52l-.25-5.81Z" transform="translate(-19.33 -15.76)"/><path class="cls-11" d="M47.55,90.52l18.23.15A8.41,8.41,0,0,1,58.07,96C52.29,96,48.76,95.63,47.55,90.52Z" transform="translate(-19.33 -15.76)"/><path class="cls-1" d="M47.5,90.52a15.07,15.07,0,0,0-1.07,3.67c-.7,3.11.51,4,1.15,4.5s3.07,2.16,4.71-.53c1.41-2.31,6.09-2.3,8.43-.24.48.42,6.09,3.87,6.45-1.1s-.33-4.95-1.38-6.14C65.79,90.68,58,99.65,47.5,90.52Z" transform="translate(-19.33 -15.76)"/><path class="cls-12" d="M28.87,30.22s1,1.72,2.51,4.33c.61,1,1.23,2.16,2,3.39a3.44,3.44,0,0,0,.6,1c5,4,24.26,10.62,49.71,5.87.58-.11,2.12-1,2-2-.7-4.53-4-23.17-22.2-24.85C42.44,16,34.34,23.77,28.87,30.22Z" transform="translate(-19.33 -15.76)"/><path class="cls-13" d="M59.75,43.73l-.6.08C57.32,44,47.57,45,47,44.47c0,0,6.69,3.14,24.79-1.92A74.79,74.79,0,0,0,59.75,43.73Z" transform="translate(-19.33 -15.76)"/><path class="cls-13" d="M51.49,40.13c-1.84-.23-17.13-.8-17.58-1.34,0,0,14.72,5.23,30.11,1.56C64,40.35,51.68,40.15,51.49,40.13Z" transform="translate(-19.33 -15.76)"/><path class="cls-14" d="M48,91.9a8.49,8.49,0,0,0-1,2.58c-.67,2.18.5,2.79,1.11,3.17s2.94,1.51,4.51-.38c1.35-1.62,5.83-1.62,8.07-.17.46.3,5.83,2.72,6.17-.77s-.31-3.49-1.32-4.32C65.47,92,58,98.32,48,91.9Z" transform="translate(-19.33 -15.76)"/><path class="cls-15" d="M27.13,60.83l3-3.77s-1.55,17,1.39,27.18C31.55,84.24,25.75,81.75,27.13,60.83Z" transform="translate(-19.33 -15.76)"/><ellipse class="cls-7" cx="37.53" cy="65.34" rx="5.57" ry="3.74"/><path class="cls-16" d="M62.53,81c0,1.85-2.58,2.79-5.66,2.79s-5.58-1.18-5.58-3,2.49-3.66,5.58-3.66S62.53,79.15,62.53,81Z" transform="translate(-19.33 -15.76)"/><ellipse class="cls-17" cx="37.42" cy="63.04" rx="3.85" ry="1.69"/><path class="cls-18" d="M51.39,80.47c-1.07.11,1,4.25,3.32,5.12,4.45,1.66,9.07-2.9,7.78-4.91,0,0-.55.93-1.12,2.08s-6.61,3.67-8.76-.21C52.49,82.35,51.72,80.43,51.39,80.47Z" transform="translate(-19.33 -15.76)"/></svg>