<svg id="Layer_2" data-name="Layer 2" xmlns="http://www.w3.org/2000/svg" viewBox="0 0 126.76 143.26"><defs><style>.cls-1{fill:#473229;}.cls-2{fill:#543d31;}.cls-3{fill:#e2bd98;}.cls-4{fill:#977051;}.cls-5{fill:#e52626;}.cls-6{fill:#9b620b;}.cls-7{fill:#aa6f0c;}.cls-10,.cls-8{fill:#fff;}.cls-9{fill:#351f01;}.cls-10{opacity:0.72;}.cls-11{fill:#e5d79c;}.cls-12{fill:#925f49;}.cls-13{fill:#9d6750;}.cls-14{fill:#2276ba;}.cls-15{fill:#352924;}</style></defs><title>guys</title><path class="cls-1" d="M81.06,128.57s1,3.11-.37,4.06-5.15,8.37-4.41,9.56c1,1.71,11,6.69,15.45-.6,0,0-.36-5.37,1.35-5.37s1.11-3.11.74-4.78l-.49-3.59A27.37,27.37,0,0,1,81.06,128.57Z" transform="translate(-61.88 -2.18)"/><path class="cls-2" d="M82,129.68s.83,2.71-.31,3.54-4.38,7.3-3.76,8.34c.89,1.49,9.39,5.84,13.14-.52,0,0-.31-4.69,1.15-4.69s.93-2.71.62-4.17l-.41-3.13A22.59,22.59,0,0,1,82,129.68Z" transform="translate(-61.88 -2.18)"/><path class="cls-1" d="M111.37,128.35s-.84,3.15.55,4,5.51,8.13,4.83,9.36c-1,1.75-10.73,7.17-15.46.08,0,0,.13-5.39-1.59-5.31s-1.24-3.06-.94-4.74l.33-3.61A27.19,27.19,0,0,0,111.37,128.35Z" transform="translate(-61.88 -2.18)"/><path class="cls-2" d="M110.49,129.5s-.72,2.75.47,3.53,4.69,7.1,4.11,8.17c-.82,1.52-9.11,6.24-13.14.05,0,0,.1-4.7-1.36-4.63s-1-2.67-.81-4.14l.28-3.15A22.66,22.66,0,0,0,110.49,129.5Z" transform="translate(-61.88 -2.18)"/><path class="cls-3" d="M115.9,57c-3.72.17-6.27,1.15-5.73,4.84a30.78,30.78,0,0,0,1.19,3.72c1.23,3.14,5.72,13.06,7.4,15.89.38.63,1.37,1.36,1.51,2.08.18.92-.39,2.13-.61,3-.39,1.54,2.81,6.67,3.43,5.56,0,0-.15-4.6.72-3.44s2,5.18,2.9,5,3.57,1.19,0-9.72c-.1-.29-7.73-27-10.72-26.94Z" transform="translate(-61.88 -2.18)"/><path class="cls-3" d="M74.7,58.81s-2.38,7.62-3.87,9.36-5.25,14.36-5.25,14.36-4.74,6.12-3.49,13.36c0,0,3.74,1.87,3.74-2.5s.88-4.74,1-4.24.25,4.37,2,4,1.25-6.86,1.25-6.86.5-2.87,2.24-4.25,8.74-12.36,8.87-21.1S74.7,58.81,74.7,58.81Z" transform="translate(-61.88 -2.18)"/><path class="cls-4" d="M81.21,82.7l-1.4,46.1s9.32,3.19,14.3-.51l.26-35s.51-2.68,1.66-2.17,1.15.89,1.15,1.92,1,35.62,1,35.62,5,4.09,13.53-.51l-.34-45.88S100.45,87.24,81.21,82.7Z" transform="translate(-61.88 -2.18)"/><polygon class="cls-3" points="29.88 48.19 33.81 52.25 41.03 44.39 39.9 37.67 28.87 37.42 26.84 42.24 29.88 48.19"/><path class="cls-5" d="M72.92,57.76l8.52,4.1s1-7.28,1-5.12-2.25,25.95-2.25,25.95,18.26,5.23,31.18-.41L109,59.81s-.25-2.82,1.32,2.54l8.12-4.18s-5.85-12.92-11.9-12.82L103.8,45s-.1-2.67-2.26-1.44c0,0-6,5-5.43,7.13A1.54,1.54,0,0,1,94,50.42s.3-1.43-.57-2-3.68-5.63-4.81-5.22-2.5,1.48-2.25,1.89c0,0-4.44-1-6.87,1.54S72.92,57.76,72.92,57.76Z" transform="translate(-61.88 -2.18)"/><path class="cls-3" d="M84.74,10.68s-2.27,8.82-3.06,10.1.07,6.28.07,6.28a7.45,7.45,0,0,1-2-4.06s-.51.13-.51,3,1.65,7,3.17,6.08c0,0,1.77,8.75,7.22,10.14,0,0,9.38,6.34,16.23-4.31,0,0,3-3.92,3.17-5.44a5.74,5.74,0,0,0,3.42-4.57c.25-3.29.25-6.08-1.65-4.81,0,0-2.67-7.18-2.42-9.21C108.35,13.92,92.21,16.64,84.74,10.68Z" transform="translate(-61.88 -2.18)"/><path class="cls-6" d="M86.42,19.48s-1.81,1.46-1.34,2.11,2.16-.82,2.16-.82a5.59,5.59,0,0,1,2.17-.24c.47.24,2.87.77,2.4-.35S89.29,18.84,86.42,19.48Z" transform="translate(-61.88 -2.18)"/><path class="cls-6" d="M100.72,19s-2,1.14-1.68,1.85,2.28-.44,2.28-.44,1.75-.18,2.17.13,2.7,1.23,2.43.06S103.66,18.89,100.72,19Z" transform="translate(-61.88 -2.18)"/><path class="cls-7" d="M93.61,31.34c-.48.05.06,1.54,1.18,1.61s3.52.07,3.39-1.05c0,0-.18-.71-.85-.14-.46.39-2.57,1.53-3.14-.32C94.16,31.35,93.76,31.32,93.61,31.34Z" transform="translate(-61.88 -2.18)"/><path d="M92.29,35.23h7.34s-.54,2.8-3.1,2.8S92.83,37.44,92.29,35.23Z" transform="translate(-61.88 -2.18)"/><ellipse class="cls-8" cx="26.93" cy="23.04" rx="3.64" ry="2.81"/><ellipse class="cls-8" cx="40.66" cy="23.19" rx="3.64" ry="2.81"/><circle class="cls-9" cx="26.89" cy="22.46" r="2.29"/><circle cx="26.84" cy="22.44" r="1.21"/><circle cx="26.89" cy="22.45" r="1.21"/><circle cx="40.91" cy="22.57" r="1.21"/><circle class="cls-9" cx="40.74" cy="22.61" r="2.29"/><circle cx="40.84" cy="22.56" r="1.21"/><ellipse class="cls-10" cx="25.99" cy="21.32" rx="0.7" ry="0.72"/><ellipse class="cls-10" cx="39.96" cy="21.34" rx="0.7" ry="0.72"/><path class="cls-11" d="M79.54,22.7s.63,5.48,3,5.21a8.82,8.82,0,0,1,.27-9.17s1.89-2.15,1.71-7.81c0,0,7.46,5.84,24,3.5a9.34,9.34,0,0,0,2.35,9.24S114.66,5.54,99,3,79.36,13.09,79.36,13.09,78.19,19.37,79.54,22.7Z" transform="translate(-61.88 -2.18)"/><path class="cls-1" d="M140.87,128.06s1,3.1-.37,4.06-5.15,8.36-4.41,9.56c1,1.7,11,6.69,15.45-.6,0,0-.36-5.38,1.35-5.38s1.11-3.1.74-4.78l-.49-3.58A27.37,27.37,0,0,1,140.87,128.06Z" transform="translate(-61.88 -2.18)"/><path class="cls-2" d="M141.81,129.17s.83,2.71-.32,3.54-4.37,7.3-3.75,8.34c.89,1.49,9.39,5.84,13.14-.52,0,0-.31-4.69,1.15-4.69s.93-2.71.62-4.17l-.42-3.13A22.53,22.53,0,0,1,141.81,129.17Z" transform="translate(-61.88 -2.18)"/><path class="cls-1" d="M171.18,127.84s-.84,3.15.55,4,5.51,8.13,4.83,9.36c-1,1.75-10.73,7.17-15.46.08,0,0,.13-5.39-1.59-5.31s-1.24-3.06-.94-4.74l.33-3.61A27.19,27.19,0,0,0,171.18,127.84Z" transform="translate(-61.88 -2.18)"/><path class="cls-2" d="M170.3,129s-.72,2.75.47,3.53,4.69,7.1,4.11,8.17c-.82,1.52-9.11,6.24-13.14.05,0,0,.1-4.7-1.36-4.63s-1-2.67-.81-4.14l.28-3.15A22.66,22.66,0,0,0,170.3,129Z" transform="translate(-61.88 -2.18)"/><path class="cls-4" d="M141,82.19l-1.4,46.1s9.32,3.19,14.3-.51l.26-35s.51-2.68,1.66-2.17,1.14.89,1.14,1.92,1,35.62,1,35.62,5,4.09,13.53-.51l-.34-45.88S160.26,86.72,141,82.19Z" transform="translate(-61.88 -2.18)"/><polygon class="cls-12" points="89.69 47.68 93.62 51.74 100.84 43.88 99.7 37.16 88.68 36.91 86.65 41.73 89.69 47.68"/><path class="cls-13" d="M134.51,58.3s-2.38,7.61-3.87,9.36S125.39,82,125.39,82s-2.77,3.16-2.48,9A3.18,3.18,0,0,0,125,93.87c.64.22,1.17.09,1-1.34-.43-4.35.5-4.39.62-3.89s.25,4.37,2,4,1.25-6.86,1.25-6.86.5-2.88,2.24-4.25,8.74-12.36,8.87-21.1S134.51,58.3,134.51,58.3Z" transform="translate(-61.88 -2.18)"/><path class="cls-13" d="M170.32,58.41a16,16,0,0,0,1.18,6.67c1.46,3.73,7.58,16.71,7.58,16.71a10.93,10.93,0,0,1,.39,4.24c-.39,1.55,2.12,9.66,2.41,4,0,0,.87-3,1.74-1.83s2.9,5.6,3.77,5.41,2.7.77-.87-10.14c-.1-.29-7.73-27-10.72-26.94A11,11,0,0,0,170.32,58.41Z" transform="translate(-61.88 -2.18)"/><path class="cls-14" d="M132.73,57.25l8.52,4.1s1-7.28,1-5.13-2.25,26-2.25,26,18.26,5.23,31.18-.41L168.84,59.3s-.52-2.22,1.84,2.19l7.6-3.83s-5.85-12.92-11.9-12.82l-2.77-.31s-.1-2.67-2.26-1.44c0,0-6,5-5.43,7.13a1.54,1.54,0,0,1-2.15-.31s.3-1.43-.57-2-3.68-5.63-4.81-5.22-2.5,1.48-2.25,1.89c0,0-4.44-1-6.87,1.54S132.73,57.25,132.73,57.25Z" transform="translate(-61.88 -2.18)"/><path class="cls-12" d="M144.57,11s-1.49,9.11-2.76,9.74-.25,5.83-.25,5.83a7.4,7.4,0,0,1-2-4.05s-.51.13-.51,3,1.65,7,3.17,6.08c0,0,1.77,8.75,7.22,10.14,0,0,9.38,6.34,16.23-4.31,0,0,3-3.93,3.17-5.45a5.71,5.71,0,0,0,3.42-4.56c.25-3.29.25-6.08-1.65-4.81,0,0-3.55-6-3.29-8C167.29,14.63,152,16.93,144.57,11Z" transform="translate(-61.88 -2.18)"/><path class="cls-15" d="M146.23,19s-1.81,1.46-1.34,2.11,2.16-.82,2.16-.82a5.59,5.59,0,0,1,2.17-.24c.47.24,2.87.76,2.4-.35S149.1,18.33,146.23,19Z" transform="translate(-61.88 -2.18)"/><path class="cls-15" d="M160.53,18.53s-2,1.14-1.68,1.85,2.28-.44,2.28-.44,1.75-.18,2.17.13,2.7,1.23,2.43.05S163.47,18.37,160.53,18.53Z" transform="translate(-61.88 -2.18)"/><path class="cls-15" d="M153.42,30.83c-.48.05.06,1.53,1.18,1.6s3.52.07,3.39-1.05c0,0-.18-.7-.85-.14-.46.4-2.57,1.53-3.14-.31C154,30.84,153.57,30.81,153.42,30.83Z" transform="translate(-61.88 -2.18)"/><path d="M152.1,34.72h7.34s-.54,2.8-3.1,2.8S152.64,36.93,152.1,34.72Z" transform="translate(-61.88 -2.18)"/><ellipse class="cls-8" cx="86.74" cy="22.53" rx="3.64" ry="2.81"/><ellipse class="cls-8" cx="100.47" cy="22.68" rx="3.64" ry="2.81"/><circle class="cls-9" cx="86.7" cy="21.94" r="2.29"/><circle cx="86.65" cy="21.93" r="1.21"/><circle cx="86.7" cy="21.93" r="1.21"/><circle cx="100.72" cy="22.06" r="1.21"/><circle class="cls-9" cx="100.55" cy="22.1" r="2.29"/><circle cx="100.65" cy="22.05" r="1.21"/><ellipse class="cls-10" cx="85.8" cy="20.81" rx="0.7" ry="0.72"/><ellipse class="cls-10" cx="99.77" cy="20.83" rx="0.7" ry="0.72"/><path class="cls-15" d="M139.35,22.19s.63,5.47,3.05,5.2c0,0-2.48-3.1.57-7.95,0,0,2.16-1.65,2-7.3,0,0,5.56,5,22.09,2.7,0,0-.43,3.82,3.71,8.13,0,0,3.72-17.94-11.91-20.45s-19.67,10.05-19.67,10.05S138,18.86,139.35,22.19Z" transform="translate(-61.88 -2.18)"/></svg>