<svg xmlns="http://www.w3.org/2000/svg" xmlns:xlink="http://www.w3.org/1999/xlink" viewBox="0 0 132.72 132.72"><defs><style>.cls-1{fill:#cccac8;stroke:#797c79;stroke-width:0.75px;}.cls-1,.cls-4,.cls-5,.cls-6,.cls-7{stroke-miterlimit:10;}.cls-2{fill:#686868;}.cls-3{fill:#e0363b;}.cls-4,.cls-6{fill:#838381;}.cls-4,.cls-5,.cls-6{stroke:#6a6664;}.cls-4{stroke-width:0.5px;}.cls-5,.cls-7{fill:#3e5d6d;}.cls-5{stroke-width:0.51px;}.cls-6{stroke-width:0.16px;}.cls-7{stroke:#2c3d44;stroke-width:0.23px;}.cls-8{fill:#79a4b7;opacity:0.36;}</style></defs><g id="Layer_2" data-name="Layer 2"><image width="160" height="160" transform="scale(0.83)" xlink:href="../../hospital_1f3e5.png"/></g><g id="Layer_3" data-name="Layer 3"><path class="cls-1" d="M83.49,41.35H60.65v97H84S82.19,41.35,83.49,41.35Z" transform="translate(-55.95 -8.85)"/><path class="cls-1" d="M160.05,139.1h22.83v-97H159.53S161.34,139.1,160.05,139.1Z" transform="translate(-55.95 -8.85)"/><rect class="cls-2" x="1.54" y="27.11" width="26.71" height="6.64" rx="1.75"/><rect class="cls-2" x="103.18" y="27.3" width="26.71" height="6.44" rx="1.73"/><rect class="cls-1" x="27.18" y="5.24" width="77.69" height="126.68"/><polygon class="cls-3" points="61.93 46.79 62.34 27.68 68.33 27.68 68.33 47.2 87.23 47.2 87.23 52.98 68.33 52.98 68.33 72.61 62.34 72.61 62.34 52.88 42.71 52.88 36.31 52.95 36.19 58.52 56.35 58.67 56.35 78.59 74.22 78.59 74.22 58.66 93.49 58.66 93.49 41.14 73.89 41.14 73.89 21.76 56.26 21.76 56.26 40.7 36.33 40.7 36.31 53.24 43.12 53.2 43.08 47 61.93 46.79"/><rect class="cls-4" x="39.92" y="99.88" width="54.4" height="32.2"/><rect class="cls-5" x="42.79" y="99.98" width="13.34" height="32.17"/><rect class="cls-2" x="25.8" y="1.74" width="80.44" height="6.54" rx="1.31"/><g id="LeftWindow"><rect class="cls-6" x="10.48" y="40.27" width="11.17" height="15.49" rx="1.66"/><rect class="cls-7" x="12.4" y="41.87" width="7.32" height="12.29"/><rect class="cls-8" x="13.13" y="42.66" width="5.88" height="10.72"/><rect class="cls-6" x="10.56" y="57.43" width="11.17" height="15.49" rx="1.66"/><rect class="cls-7" x="12.48" y="59.03" width="7.32" height="12.29"/><rect class="cls-8" x="13.2" y="59.82" width="5.88" height="10.72"/><rect class="cls-6" x="10.56" y="74.03" width="11.17" height="15.49" rx="1.66"/><rect class="cls-7" x="12.48" y="75.63" width="7.32" height="12.29"/><rect class="cls-8" x="13.2" y="76.41" width="5.88" height="10.72"/><rect class="cls-6" x="10.56" y="90.86" width="11.17" height="15.49" rx="1.66"/><rect class="cls-7" x="12.48" y="92.46" width="7.32" height="12.29"/><rect class="cls-8" x="13.2" y="93.24" width="5.88" height="10.72"/><rect class="cls-6" x="10.56" y="108.28" width="11.17" height="15.49" rx="1.66"/><rect class="cls-7" x="12.48" y="109.88" width="7.32" height="12.29"/><rect class="cls-8" x="13.2" y="110.66" width="5.88" height="10.72"/></g><g id="RightWindow"><rect class="cls-6" x="110.14" y="39.86" width="11.17" height="15.49" rx="1.66"/><rect class="cls-7" x="112.06" y="41.46" width="7.32" height="12.29"/><rect class="cls-8" x="112.78" y="42.24" width="5.88" height="10.72"/><rect class="cls-6" x="110.21" y="57.02" width="11.17" height="15.49" rx="1.66"/><rect class="cls-7" x="112.14" y="58.62" width="7.32" height="12.29"/><rect class="cls-8" x="112.86" y="59.4" width="5.88" height="10.72"/><rect class="cls-6" x="110.21" y="73.61" width="11.17" height="15.49" rx="1.66"/><rect class="cls-7" x="112.14" y="75.21" width="7.32" height="12.29"/><rect class="cls-8" x="112.86" y="76" width="5.88" height="10.72"/><rect class="cls-6" x="110.21" y="90.44" width="11.17" height="15.49" rx="1.66"/><rect class="cls-7" x="112.14" y="92.04" width="7.32" height="12.29"/><rect class="cls-8" x="112.86" y="92.83" width="5.88" height="10.72"/><rect class="cls-6" x="110.21" y="107.86" width="11.17" height="15.49" rx="1.66"/><rect class="cls-7" x="112.14" y="109.46" width="7.32" height="12.29"/><rect class="cls-8" x="112.86" y="110.25" width="5.88" height="10.72"/></g><rect class="cls-8" x="44.64" y="100.7" width="9.62" height="30.09"/><rect class="cls-5" x="59.85" y="99.98" width="13.34" height="32.17"/><rect class="cls-8" x="61.71" y="100.48" width="9.62" height="30.09"/><rect class="cls-5" x="77.14" y="99.98" width="13.34" height="32.17"/><rect class="cls-8" x="78.99" y="100.93" width="9.62" height="30.09"/><rect class="cls-2" x="36.26" y="92.25" width="61.18" height="9.99" rx="1.86"/></g></svg>