<svg id="Layer_2" data-name="Layer 2" xmlns="http://www.w3.org/2000/svg" viewBox="0 0 122.64 105.63"><defs><style>.cls-1{fill:#e02424;}.cls-2{fill:#fff;opacity:0.9;}</style></defs><title>Kissss</title><path class="cls-1" d="M107,42s-4.29-7.05-4.59-.31a6.77,6.77,0,0,1-4.9-3.42C96,35.22,80.07,49.46,81,52s4,3.82,4,3.82,2.54,3.94-1.39,2.32-4.75-2.9-5.32-.93-2.9,8.45-2,9.61,3.59,7.52-.93,7.52-2.08,6.48-2.08,6.48,6.25,4.05,6.25,5,4,3.47-2.2,2.31-7.18-2-6.83-.23,10.53,7.17,10.88,7.41,2.2,2.31-.93,2.08-11.11-7.18-11.34-3,4.17,10.88,1.62,11.8-7.63,6.37-7.06,9.49,37.45-12,42.3-31.8c0,0,3.52-6.83,9.47-7.72s19.18-3.08,23.81-15.87c0,0,1.76-1.54,5.95-2s43-12.56,41-24.46c0,0-7.3.32-12.21-2.3s-12.77-4.26-11.13.49c0,0-.82,1-2.13-1.8s-6.71-7.86-7.21-4.42-.16,2.13-1.8,1.64-3.11-.66-3.76,2.13S145.24,25,145.24,25s-4.74-3.6-6.05-2-2.19,2-3.65-.11-13-3.55-15.32-.4-5.65,1-5.82,8.47,1.33,2-1.82,1.66-1.5,1.33-1.5,2a3.49,3.49,0,0,1-2.65,2.66c-1.66.33-.4,2.85-.4,2.85S108.49,42.68,107,42Z" transform="translate(-63.71 -20.66)"/><path class="cls-1" d="M105.78,93.71s-8.48,10.41-14.29,13.56S83,117.2,83,117.2s18.72,8.18,19.45,7.09.36-4.92,2-2.91,2.91,4.55,7.46,3.27,4.73-1.09.73-5.09-6.19-7.83-4.91-10.74,11.1,17.83,16.74,17.47,12.92-.36,11.1-3.64-4.73-5.28-2.19-5.28,4.37,4.55,9.5,3.74,1-7,1-7,.16-1.87,1.95-.16,2.36,5.37,4,5.21-1.46-3.91,0-3.91,2.49,1.9,3.85,1.44,6.66-5.18,5.5-7.38-3.88-3.88-3.63-5.44,3.5,4.47,5.64,3.69,6.72-4.15,4.92-6.79-8.13-7.3-7.54-8.61,6.47,5.74,7,5.38-1.08-2.87-1.92-4,1.32-1.55,1.68-.36,3.11,4.31,4.66,3.83-2.39-3.83-1.55-3.83,3.83,3.24,4.67,1.92,6.94-9.81,3.83-11.73S162.73,73,162.73,71.21s2.64.48,2.64.48S179.25,83.54,179,80.91s.84-4.67-1.2-5.39-5.38-4.55-4.19-4.91,6.59,6.11,6.59,2.52-1.32-17.36,2.63-20.59-11.73.36-11.73.36l-18.67,8.86s-1.91,1.79-1,2,9.82,4.91,8.62,5.39-2.27,1.19-3.71-.24-5.63-2.4-5.15-1.32,7.78,6.94,7.66,7.9,1.08,4.07-2.27,1.32-9.34-9.22-11-6.82,1.79,3.59,1.79,3.59,2.88,2.39,1,2.63-.38,1.88-.38,1.88,3.92,4.41,1.9,4.23-5.65-5-6-4.6.55,3.8-1,2.39-3.87-2.27-5.28-1.35-2.7,3.38-2.33,4.3,8.65,5.76,5.4,7c0,0-2.95-3-3.32-1.29s4,5.85,2.24,7.85a4.66,4.66,0,0,0,1.55,2.55c1.11.67,6.78,8,3.33,7s-11-12.44-10.55-15.55-6.89-8.89-7.89-4.78-1.33,1.89-2.88,1.11-3.11-.44-3.11.45-2.67-1.34-2,1,13.1,20.66,8.88,22.32-11.88-22.1-11.88-22.1-2.28-.26-1.9,1.84,1.77,6.52.63,5-3.74-5.76-4-4.31,7,13.5,4.81,13.37S105.78,93.71,105.78,93.71Z" transform="translate(-63.71 -20.66)"/><path class="cls-2" d="M84.33,79.15s11.37,7.4,10.34,4.65S83,76.56,84.33,79.15Z" transform="translate(-63.71 -20.66)"/><path class="cls-2" d="M89.14,72.75s-5-1.94-1.16,2.52,13.37,4.84,9.69,2.32A77.39,77.39,0,0,0,89.14,72.75Z" transform="translate(-63.71 -20.66)"/><path class="cls-2" d="M95.34,69.84s-4.45-1.16-3.1,0,10.85,8.14,9.69,5.43S95.34,69.84,95.34,69.84Z" transform="translate(-63.71 -20.66)"/><path class="cls-2" d="M162.88,74.65s-3.34-2.3-2.56-.93,6.55,10,6.39,7.37S162.88,74.65,162.88,74.65Z" transform="translate(-63.71 -20.66)"/><path class="cls-2" d="M99.61,54.34S93.21,49.5,93,51.63s19.18,18.8,19.37,16.86-7.94-9.3-7.36-10.08,3.1.39,4.07,2.52,7,5.23,7,8.91,2.32.78,2.13-1.35-14.92-13-14.34-13.76,6.2,3.88,5.42,1.55-7.55-7.36-8.52-4.46S99.61,54.34,99.61,54.34Z" transform="translate(-63.71 -20.66)"/><path class="cls-2" d="M112.78,54.34s3-4.17-.87-5.52-5.4-.1-4.92,1.16,10.42,11.67,10.71,10.71S117.42,57.65,112.78,54.34Z" transform="translate(-63.71 -20.66)"/><path class="cls-2" d="M109.51,71.58s-6.29-7.22-7-4.07,5.64,6,5.64,6-3.36,1.36-2.28,2.36,6.64-.86,5.28-2.72S109.51,71.58,109.51,71.58Z" transform="translate(-63.71 -20.66)"/><path class="cls-2" d="M128.15,33.8s-3.75-3.63-3.37.12,6.48,16.33,6.48,16.33,1.43-.26.52-4.67,1.81,11,3.63,10.24S133.72,43,133.59,41.31s-1-8.16,1.69-4,5.44,3.37,2.33-2.59-8.55-11-8.16-7.12,5.44,5.7,2.33,5.7S127.76,31.07,128.15,33.8Z" transform="translate(-63.71 -20.66)"/><path class="cls-2" d="M150.3,39.24s-4.66-7.78-4.4-2.47,4.79,6.09,2.07,6.35-1.55.13-1.16,2.2,4.27,5.19,3.75-.77.13-1,.13-1,4.67,9.2,4.93,3.37,1.16-7.77,1.55-5.57,5.31.52,5.31.52.26-1.43-1.68-2.21-1.43-2.2-3.63-1.42-1.68,2.59-2.85,2.2-1.17-6.86-1.55-5S148.49,29,150.3,39.24Z" transform="translate(-63.71 -20.66)"/><path class="cls-2" d="M119.15,40.84s-2.51-1.17-.33,3.53S119.15,40.84,119.15,40.84Z" transform="translate(-63.71 -20.66)"/><path class="cls-2" d="M97.16,45.38l-1.67,2.51s6.88,2,4.7-1S97.16,45.38,97.16,45.38Z" transform="translate(-63.71 -20.66)"/><path class="cls-2" d="M76.49,98.32s1.38,3.68,3.45,2.53S78.56,98.08,76.49,98.32Z" transform="translate(-63.71 -20.66)"/><path class="cls-2" d="M98,107.59s1.38,3.69,3.46,2.54S100.05,107.36,98,107.59Z" transform="translate(-63.71 -20.66)"/><path class="cls-2" d="M116.3,107.82s1.39,3.68,3.46,2.53S118.38,107.59,116.3,107.82Z" transform="translate(-63.71 -20.66)"/><path class="cls-2" d="M129.88,99.67s1.38,3.69,3.46,2.54S132,99.44,129.88,99.67Z" transform="translate(-63.71 -20.66)"/><path class="cls-2" d="M149,87.3s.66,3.29,1.64,2.26S150,87.1,149,87.3Z" transform="translate(-63.71 -20.66)"/><path class="cls-2" d="M169.69,60.39s.65,3.29,1.63,2.26S170.67,60.18,169.69,60.39Z" transform="translate(-63.71 -20.66)"/><path class="cls-2" d="M143.13,94.07s.94,3.45,2.35,2.37S144.54,93.85,143.13,94.07Z" transform="translate(-63.71 -20.66)"/><path class="cls-2" d="M85.27,90.18s.73,2.27,1.83,1.56S86.37,90,85.27,90.18Z" transform="translate(-63.71 -20.66)"/><path class="cls-2" d="M83,66s.73,2.26,1.83,1.56S84.1,65.83,83,66Z" transform="translate(-63.71 -20.66)"/></svg>