<?xml version="1.0" encoding="utf-8"?>
<!-- Generator: Adobe Illustrator 24.0.1, SVG Export Plug-In . SVG Version: 6.00 Build 0)  -->
<svg version="1.1" id="Layer_1" xmlns="http://www.w3.org/2000/svg" xmlns:xlink="http://www.w3.org/1999/xlink" x="0px" y="0px"
	 viewBox="0 0 144 102.7" style="enable-background:new 0 0 144 102.7;" xml:space="preserve">
<style type="text/css">
	.st0{fill:#F46991;}
	.st1{fill:#F0E8E9;}
	.st2{opacity:0.18;fill:#B82D48;enable-background:new    ;}
	.st3{opacity:0.1;fill:#817D7E;enable-background:new    ;}
	.st4{opacity:0.2;fill:#AC435A;enable-background:new    ;}
	.st5{opacity:0.4;fill:#FFC0D1;enable-background:new    ;}
</style>
<title>lips</title>
<g>
	<g id="Layer_1_1_">
		
			<image style="overflow:visible;enable-background:new    ;" width="144" height="144" xlink:href="D77ED927EA3795AB.png"  transform="matrix(1 0 0 1 0 -20.136)">
		</image>
	</g>
	<g id="Layer_2_1_">
		<path class="st0" d="M1.1,58.1c0,0,11.7-3.1,21-17S53.6,2.3,58.7,2.7c0.7-0.2,1.4-0.2,2.1,0c1.2,0.3,8.6,5,8.6,5
			c1.7,1.8,4.6,1.8,6.3,0.1c0,0,0.1-0.1,0.1-0.1C79.2,4.5,86.2,1.3,89,4s13.3,9.1,26,27s20.7,24,27.9,27.4c1,1.9,0.5,4.1-1.1,5.5
			c-2.8,2.5-6.9,2-30.5,19.7S69,99.5,69,99.5s-20.2-0.8-33-13.6S2.6,63.1,1.5,63.1S-0.4,58.5,1.1,58.1z"/>
		<path class="st1" d="M27.6,53.9c0,0,52.5-5.6,90.9,1.2c0,0-24.9-15.1-41.3-15.7C61.8,38.7,42.1,41.9,27.6,53.9z"/>
		<path d="M3.1,61.6c0,0,15.2-2.2,24.5-7.6c0,0,20.3-3.1,25.5-3.1s41.6-1,63.8,3.4c0,0,14.6,5.8,22.2,7s-29.5,2.7-42.4,1.3
			s-38.5-2.8-58,0.3C38.8,63,12.5,64.2,3.1,61.6z"/>
		<path class="st2" d="M31.3,29.1c1.1-1.4,2.7-3.2,3.8-4.6c1.6-2.1,5-7.3,7.3-5.4c2,1.6,1.5,14.1,3.8,15.4
			c5.9,3.5,11.3,4.9,11.3,5.9c0,0.2-3.8,1-4,1c-7.6,1.8-14.9,4.9-21.5,9c-2.7,1.6-3.8,3.7-6.8,4.9c-7.1,2.8-15.9,7-22.8,7.9
			c-0.7,0.1-1.4-0.3-1.7-0.9c-0.4-0.8-0.5-1.7-0.4-2.6c0-0.8,0.5-1.5,1.2-1.7C16.1,52.3,17.6,46.5,31.3,29.1z"/>
		<path class="st2" d="M114.9,31.1c2.3,3.6,14.1,20.1,26.4,26.3c1.9,1,3.3,3.8,1.2,4l-3-0.1c-1.5,0.2-9.3-0.3-18.6-5.5
			C108,48.6,98.7,45.2,93.7,42.9c-1-0.5-0.6-1.9-0.1-2.9c1.9-4,7.6-12.7,20-9.7C114.1,30.4,114.6,30.7,114.9,31.1z"/>
		<path class="st3" d="M38.1,52.4c0,0,22.9-7.2,23.7-11.7c0.5-2.5-12.5,0.9-22.1,5.4c-4.3,2-8.3,4.6-11.9,7.7L38.1,52.4z"/>
		<path class="st3" d="M118.1,54.7c0,0-27-6-36.2-13.1c-0.8-0.7-0.5-2.5,0.6-2.2c2.6,0.8,5.3,0.9,10.6,3.3
			C103.4,47.4,118.1,54.7,118.1,54.7z"/>
		<path class="st4" d="M46.2,61.2c0,0-37.6,4.1-44.8-0.1c0,0-1.1,2.8,3.5,3.9s34.1,23.4,41.8,28.6s31.7,10.6,45.2,2.1
			c13.3-8.3,54.2-32.5,51.2-34.3c0,0,1.7-1.1-3.9-0.1c0,0-10.8,0.1-18.5-0.1c-1.3,0-2.4,1-2.4,2.3c0,0.7,0.2,1.3,0.7,1.7
			c1.1,1,2.6,1.6,4.1,1.7c6,0.5-16.8,14.2-16.8,14.2s-14.9,13.6-30,14.2S46,88.4,38.1,82.1s-23-15.5-23-15.5s-0.9-0.8,0.5-0.8
			S50.4,64.1,46.2,61.2z"/>
		<path class="st5" d="M64.4,6.7c0,0,7.4,8.6,14.1,1.9c1.2-1.3,2.7-2.3,4.4-3c1.6-0.6,3.4-0.9,4.8-0.1c3.4,2,2.6,4.6,2.6,4.6
			s-0.1,4.9-15.1,5.6c-20.8,1-18-7.2-18-7.2S59,2.6,64.4,6.7z"/>
	</g>
</g>
</svg>
