<svg id="Layer_1" data-name="Layer 1" xmlns="http://www.w3.org/2000/svg" width="865.34" height="212.11" viewBox="0 0 865.34 212.11">
  <defs>
    <style>
      .cls-1 {
        fill: #fff;
        stroke: #000;
        stroke-miterlimit: 10;
        stroke-width: 4.55px;
      }
    </style>
  </defs>
  <title>logo</title>
  <path class="cls-1" d="M225.93,471.11s-4.73-59.22-32.06,0l-7.13,17.81s-30.53,5.49-29.14,19.88a9.1,9.1,0,0,0,4.64,6.78c3.12,1.83,6.68,5.39,17.38,9l-3.56,14.25s-24.77,5.71-29.86,16.44a6.8,6.8,0,0,0,.75,6.69c2.77,4,7.76,8.94,22,12.49,0,0-8.3,45.29,7.13,46.31,13.63.91,23.95-21.37,23.95-21.37h4.54s1.58,24.94,10.69,24.94c8,0,12.18-6,16.17-16.69a78.44,78.44,0,0,0,2.55-8.33l6.22-24.86s24.93,1.4,24.93-21.37h3.57s-4.91,78.81,49.75,83.36S386.75,600,386.75,600h4.55s4.56,36.44,27.33,36.44c15.94,0,21.34-11.52,22.78-18.22,1-4.75,4.55-22.77,4.55-22.77h50.1s0,35.07,36.05,36.73a55,55,0,0,0,15.64-1.73c15.67-3.85,56.31-15.11,61.81-29.3a.38.38,0,0,1,.72,0c1.88,5.67,11.33,30.76,31.53,30.76,22.77,0,22.77-27.33,22.77-27.33V590.86h4.56s13.66,41,41,41c23.06,0,29.9-25.94,31.48-34.05.54-2.77,1.19-5.52,1.87-8.25l3.09-12.36h9.11s9.9,46.62,50.1,54.66c45.55,9.11,63.76-9.11,72.87-31.89h4.56s4.55,36.44,27.33,36.44c10.24,0,17.73-5.53,22.86-11.62a46.65,46.65,0,0,0,10.14-23.56l3.43-24s63.77-13.66,59.22-82S952.82,429,928.76,436c-13.22,3.87-40.49,17.95-45.42,27.07a.47.47,0,0,1-.43.25H870.64a1.32,1.32,0,0,1-1.28-1c-2.41-8.43-27.88-54-45.2-4.06a.68.68,0,0,1-.64.48h-7.83a.85.85,0,0,1-.86-.72c-1.36-8.69-27.1-58.86-49.6-.45a1.79,1.79,0,0,1-1.66,1.17h-16a1.14,1.14,0,0,1-1.12-.86c-2.06-8-24.06-56.71-49.94.86l-4.23,8.45a1.19,1.19,0,0,1-1.07.66h-7.08a1.51,1.51,0,0,1-1.47-1.11c-2.82-11-37.19-76.22-63.35-4.1a1,1,0,0,1-.89.65h-7.84a.42.42,0,0,1-.42-.56c1.47-4.56,9.66-34.84-35.81-26.91-.56.1-1.1.21-1.65.34-7.13,1.7-54.94,13.62-62.81,26.73a.79.79,0,0,1-.7.4H502c-1.05,0-1.49-.28-1.69-.76-2.15-5-16-32.39-58.9-26.56-34.53,4.69-54.66,41-54.66,36.43,0-4.23-39.28-63.44-92.3-17.16a103.6,103.6,0,0,0-17.92,20.81l-3.65,5.46h-9.11s-3.39-74.2-30.72-10.43Z" transform="translate(-143.35 -426.92)"/>
  <g>
    <path d="M272.09,509.05c0,1.19-1.12,2.23-3.34,3.12a44.76,44.76,0,0,1-7.67,2.22c-2.89.6-5.64,1-8.23,1.34s-4.34.52-5.23.66q-1.78,8-3.78,16.13t-3.78,16.12c.74.15,2.22.48,4.45,1s4.52,1.15,6.89,1.89a33,33,0,0,1,6.34,2.67q2.77,1.56,2.78,3.34t-3.33,3.11a45.15,45.15,0,0,1-7.68,2.22c-2.89.6-5.67,1-8.34,1.34s-4.45.52-5.33.66q-.68,2.46-2.67,9.46T228.5,589a107.25,107.25,0,0,1-5.68,13.57q-3,5.89-5.89,5.89a3.53,3.53,0,0,1-3.11-1.66,14.23,14.23,0,0,1-1.78-4,19.92,19.92,0,0,1-.78-4.67c-.08-1.55-.11-2.78-.11-3.67a99.33,99.33,0,0,1,1-14.12q1-7,2.11-14.12-3.56.22-7.11.22H200q-.67,2.24-2.56,9t-4.56,14.12a110.7,110.7,0,0,1-5.67,13.12c-2,3.86-4,5.78-5.89,5.78a3.55,3.55,0,0,1-3.12-1.66,14.22,14.22,0,0,1-1.77-4,19.92,19.92,0,0,1-.78-4.67c-.08-1.55-.11-2.78-.11-3.67a104.73,104.73,0,0,1,1-14.67c.66-4.75,1.52-9.42,2.55-14q-1.55-.21-5.67-.66a83.93,83.93,0,0,1-8.34-1.34,39.81,39.81,0,0,1-7.56-2.33q-3.33-1.44-3.33-3.89,0-3.12,3.67-5a36.24,36.24,0,0,1,8.45-3,61.64,61.64,0,0,1,9.45-1.45q4.67-.33,6.89-.55,1.78-7.78,3.34-15.46t3.56-15.23c-1,0-2.86-.15-5.45-.45a80.52,80.52,0,0,1-8-1.33,34.1,34.1,0,0,1-7.23-2.34q-3.1-1.44-3.11-3.67,0-3.1,3.67-5a36.4,36.4,0,0,1,8.45-3,72.1,72.1,0,0,1,9.56-1.56c3.19-.29,5.45-.52,6.79-.67.29-1,.78-2.74,1.44-5.11s1.48-5,2.45-8,2.07-6,3.33-9.12,2.52-6,3.79-8.56a32,32,0,0,1,4-6.45c1.41-1.7,2.78-2.56,4.11-2.56a3.34,3.34,0,0,1,3,1.56,12.83,12.83,0,0,1,1.55,3.78,23.47,23.47,0,0,1,.67,4.34c.07,1.41.11,2.56.11,3.45a89.87,89.87,0,0,1-.89,12.67q-.88,6.24-2.22,12.68c2.52-.15,4.93-.18,7.22-.11s4.71.18,7.23.33c.45-1.48,1.3-4.34,2.56-8.56s2.78-8.56,4.56-13a84.62,84.62,0,0,1,5.78-11.9C245,460.76,247,459,249,459a3.33,3.33,0,0,1,3,1.56,12.83,12.83,0,0,1,1.56,3.78,23.43,23.43,0,0,1,.66,4.34c.08,1.41.11,2.56.11,3.45a88.07,88.07,0,0,1-1.11,14q-1.11,6.9-2.44,14c.89.15,2.48.44,4.78.89a54.91,54.91,0,0,1,7.11,1.89,41.34,41.34,0,0,1,6.56,2.78Q272.09,507.28,272.09,509.05Zm-47.37,8.45a58,58,0,0,1-6.34.12q-3.23-.12-6.56-.12-1.78,7.13-3.45,14.24T204.92,546h6.9c2.22,0,4.44.08,6.67.22,1-4.74,2-9.52,3-14.34S223.53,522.25,224.72,517.5Z" transform="translate(-143.35 -426.92)"/>
    <path d="M329.69,625.14q-13.57,0-23.58-6.78a54.05,54.05,0,0,1-16.57-18.24,91.61,91.61,0,0,1-9.78-26.57,152.12,152.12,0,0,1-3.23-31.8A149.58,149.58,0,0,1,280,510.17a105.74,105.74,0,0,1,10.56-28.92,66,66,0,0,1,18-21.12q10.89-8.24,26-8.23,14.67,0,24.57,7.89a56.27,56.27,0,0,1,15.79,20.46,106.92,106.92,0,0,1,8.46,28.14A192.25,192.25,0,0,1,386,539.52a151,151,0,0,1-3.44,32.81,92.39,92.39,0,0,1-10.46,27.24,56,56,0,0,1-17.57,18.68Q343.92,625.14,329.69,625.14Zm2.67-124.09a9.39,9.39,0,0,0-7.23,3.33,27.06,27.06,0,0,0-5,8.79,57,57,0,0,0-2.89,12.23,105.58,105.58,0,0,0-.89,13.68,123,123,0,0,0,1,15.56,78.29,78.29,0,0,0,3,14,31.33,31.33,0,0,0,5,10,8.94,8.94,0,0,0,7.23,3.78c3.26,0,5.85-1.62,7.78-4.89a42.77,42.77,0,0,0,4.56-11.79,89.08,89.08,0,0,0,2.22-14.23q.56-7.34.56-12.23a109.48,109.48,0,0,0-.78-12.68,66.92,66.92,0,0,0-2.56-12.34,30.23,30.23,0,0,0-4.67-9.45A8.85,8.85,0,0,0,332.36,501.05Z" transform="translate(-143.35 -426.92)"/>
    <path d="M501.6,498.6a56.57,56.57,0,0,1-5.23,23.57,76.15,76.15,0,0,1-33.69,35.92,55.09,55.09,0,0,1-22.91,6.56c-.15,2.67-.26,6.05-.33,10.12s-.33,8.34-.78,12.79-1.08,8.9-1.89,13.34a54.45,54.45,0,0,1-3.56,12,25.17,25.17,0,0,1-6,8.68,12.92,12.92,0,0,1-9,3.33,12.62,12.62,0,0,1-9.9-4.11,27.61,27.61,0,0,1-5.56-9.9,58.22,58.22,0,0,1-2.55-12.12c-.45-4.23-.75-7.82-.89-10.79q-.45-6.43-.56-12.67t-.11-12.68V551.86q0-7.89.11-18t.33-21.13q.23-11,.67-20.46t1-16.12c.37-4.45.85-7,1.45-7.79a14.6,14.6,0,0,1,1.33-1c.74-.51,1.56-1,2.45-1.55s1.7-1,2.44-1.45,1.26-.74,1.56-.89a136.18,136.18,0,0,1,22.46-10,74.11,74.11,0,0,1,24.24-4.22,41.44,41.44,0,0,1,18.57,4.11,45.18,45.18,0,0,1,14.24,10.9,47.5,47.5,0,0,1,9,15.79A56.64,56.64,0,0,1,501.6,498.6Zm-38.48,5.12a14.25,14.25,0,0,0-2.11-7.79q-2.11-3.33-7-3.33a22.94,22.94,0,0,0-8.46,1.66c-2.81,1.12-5.41,2.27-7.78,3.45q.68,7.79,1.22,15.12a115.33,115.33,0,0,1,.12,15.13q3.56-1.79,7.78-4.12a52.28,52.28,0,0,0,7.78-5.22,29.8,29.8,0,0,0,6-6.56A14.71,14.71,0,0,0,463.12,503.72Z" transform="translate(-143.35 -426.92)"/>
    <path d="M603.9,582.89a16.77,16.77,0,0,1-2.22,8.23q-2.23,3.78-10.46,8.89A160.49,160.49,0,0,1,573,609.69q-10,4.56-19.35,7.78t-13.79,3.23a23.33,23.33,0,0,1-7.34-1.45,58.27,58.27,0,0,1-8.45-3.67,42.83,42.83,0,0,1-7.67-5.11,22.3,22.3,0,0,1-5-5.56,21.63,21.63,0,0,1-1.66-6.23q-.78-4.66-1.34-10.9t-1-13.23c-.3-4.67-.55-9.12-.78-13.34s-.37-8-.44-11.24-.11-5.63-.11-7.11q0-8.24.55-18.91t2.12-21.46a139.32,139.32,0,0,1,4.55-20.68A54.68,54.68,0,0,1,521.39,465c1-1.34,3.12-2.74,6.23-4.23a85.44,85.44,0,0,1,11-4.22q6.33-2,13.68-3.78t14.12-3q6.78-1.21,12.34-2a68,68,0,0,1,8.45-.78,14.47,14.47,0,0,1,6.34,1.45,15.74,15.74,0,0,1,5.11,3.89,19.69,19.69,0,0,1,3.34,5.45,16.76,16.76,0,0,1,1.22,6.34,13.71,13.71,0,0,1-.77,4.89,25.82,25.82,0,0,1-2.34,4.45q-2.22,2.89-9.34,6.89t-15.46,7.9q-8.34,3.9-16,7t-10.79,4.45q-.88,5.12-1.89,10.34a100.94,100.94,0,0,0-1.44,10.57A127.71,127.71,0,0,1,560.76,514a48.6,48.6,0,0,1,16.45-3.12q15.79,0,15.79,15.57a14.75,14.75,0,0,1-1.44,6.67,18.53,18.53,0,0,1-3.78,5.12,26.17,26.17,0,0,1-5.34,3.89c-2,1.11-4,2.19-5.89,3.22a111.19,111.19,0,0,1-14.9,6.56q-7.78,2.79-15.57,5.45c-.3,1.19-.6,2.49-.89,3.9a19.73,19.73,0,0,0-.45,4.11,43.52,43.52,0,0,0,.45,6.23c.29,2.07.59,4.15.89,6.22q2.67-.88,8.56-2.89t12.34-4q6.45-2,12.46-3.45a42.59,42.59,0,0,1,8.89-1.44,13.78,13.78,0,0,1,6.23,1.44,15.57,15.57,0,0,1,4.89,3.78,19,19,0,0,1,3.23,5.45A17.08,17.08,0,0,1,603.9,582.89Z" transform="translate(-143.35 -426.92)"/>
    <path d="M743.34,522.4q0,4.89-.44,13.9t-1.67,19.79q-1.23,10.78-3.45,22A120.22,120.22,0,0,1,732,598.46a50.89,50.89,0,0,1-8.67,15,15.68,15.68,0,0,1-12.23,5.89,20.93,20.93,0,0,1-12.24-3.89,46.53,46.53,0,0,1-10-9.56,76.74,76.74,0,0,1-7.79-12.12q-3.33-6.45-5.56-11.79-4.66-11.34-9.34-22.35t-8.89-22.35v6.22q0,9.57-.11,19a145.77,145.77,0,0,1-1.45,18.79q-.45,3.78-1,8.79a89.14,89.14,0,0,1-1.67,9.89,40.34,40.34,0,0,1-3.22,9.12,14.12,14.12,0,0,1-5.68,6.23,10.37,10.37,0,0,1-3.66,1.33c-1.12.15-2.34.38-3.67.67h-.67a12,12,0,0,1-8.67-3.45,28.17,28.17,0,0,1-6-8.89,60.53,60.53,0,0,1-3.89-12.23q-1.46-6.78-2.23-13.35t-1-12.12c-.15-3.7-.22-6.67-.22-8.89q0-5.11.45-15t1.89-21.9q1.44-12,3.78-24.69a141.65,141.65,0,0,1,6.11-23,58.47,58.47,0,0,1,9.12-16.9q5.34-6.56,12.46-6.56a17.2,17.2,0,0,1,12.34,5.34A58.6,58.6,0,0,1,670,468.35a96.34,96.34,0,0,1,7.12,15.35q2.89,8,4.89,13.34,3.78,10.45,7.34,20.8t6.9,21c.14.3.44,1.12.89,2.45s1,2.82,1.55,4.45,1.34,3.78,2.23,6q0-2.88-.12-4.11c-.07-.81-.11-1.56-.11-2.22V538q-.23-7.34-.33-14.67c-.08-4.9-.11-9.71-.11-14.46,0-2.07,0-5,.11-8.67s.29-7.68.67-11.9.92-8.49,1.67-12.79a56,56,0,0,1,3.22-11.67,26.27,26.27,0,0,1,5.34-8.57,10.56,10.56,0,0,1,7.89-3.33,12.75,12.75,0,0,1,9.57,4.22,34.51,34.51,0,0,1,6.67,10.79,78.17,78.17,0,0,1,4.22,14.68q1.56,8.12,2.45,15.9t1.11,14.45Q743.35,518.62,743.34,522.4Z" transform="translate(-143.35 -426.92)"/>
    <path d="M877.23,539.74q0,9.12-.89,18.8a130.38,130.38,0,0,1-3.12,18.79,87.71,87.71,0,0,1-6.11,17.23,52.72,52.72,0,0,1-9.9,14.24,43.66,43.66,0,0,1-14.46,9.67A50.75,50.75,0,0,1,823,622q-16.68,0-29-7.78a69.23,69.23,0,0,1-20.57-19.91,88.13,88.13,0,0,1-12.23-27.13,114.81,114.81,0,0,1-4-29.69v-2.89a12.47,12.47,0,0,1,.22-2.45q.23-4.66.78-12.67T760,502.38q1.34-9.11,3.45-18.68A86,86,0,0,1,769,466.58a42.29,42.29,0,0,1,8.34-12.46,15.82,15.82,0,0,1,11.57-4.89,12.08,12.08,0,0,1,8.22,2.89,22.39,22.39,0,0,1,5.45,7.23,35.37,35.37,0,0,1,3,9.12,47.66,47.66,0,0,1,.89,8.78,61.29,61.29,0,0,1-1.22,12.12q-1.23,6.12-2.33,12.12-1.79,9.57-2.9,19.13a169.71,169.71,0,0,0-1.11,19.57q0,5.12.56,12.45a59.18,59.18,0,0,0,2.78,14.13,33.26,33.26,0,0,0,6.34,11.56q4.11,4.78,11.23,4.78a14,14,0,0,0,11-4.67A30,30,0,0,0,837,567.32a61.5,61.5,0,0,0,2.56-13.57q.56-7.11.56-12.23a172.41,172.41,0,0,0-2.45-29,278,278,0,0,0-6.45-28.58q-1.11-3.78-1.89-7.56a37.32,37.32,0,0,1-.78-7.56,17.13,17.13,0,0,1,3.67-10.9q3.67-4.66,10.34-4.67a15.14,15.14,0,0,1,10.34,4.34,42.28,42.28,0,0,1,8.57,11.34A93.76,93.76,0,0,1,868,484.59q2.78,8.67,4.78,17.24t3,16.34q1,7.79,1.22,12.68a43.08,43.08,0,0,1,.23,4.33Z" transform="translate(-143.35 -426.92)"/>
    <path d="M995.1,498.6a56.72,56.72,0,0,1-5.23,23.57,76.15,76.15,0,0,1-33.69,35.92,55.09,55.09,0,0,1-22.91,6.56c-.15,2.67-.26,6.05-.33,10.12s-.34,8.34-.78,12.79-1.08,8.9-1.89,13.34a54.45,54.45,0,0,1-3.56,12,25.19,25.19,0,0,1-6,8.68,12.88,12.88,0,0,1-9,3.33,12.6,12.6,0,0,1-9.9-4.11,27.46,27.46,0,0,1-5.56-9.9,58.88,58.88,0,0,1-2.56-12.12c-.44-4.23-.74-7.82-.89-10.79q-.43-6.43-.55-12.67t-.11-12.68V551.86q0-7.89.11-18t.33-21.13q.23-11,.67-20.46t1-16.12c.37-4.45.85-7,1.45-7.79a14.6,14.6,0,0,1,1.33-1c.74-.51,1.56-1,2.45-1.55s1.7-1,2.44-1.45,1.26-.74,1.56-.89a135.8,135.8,0,0,1,22.46-10,74.06,74.06,0,0,1,24.24-4.22,41.44,41.44,0,0,1,18.57,4.11A45.29,45.29,0,0,1,983,464.24,47.48,47.48,0,0,1,992,480,56.39,56.39,0,0,1,995.1,498.6Zm-38.48,5.12a14.33,14.33,0,0,0-2.11-7.79q-2.12-3.33-7-3.33a22.89,22.89,0,0,0-8.45,1.66q-4.23,1.68-7.78,3.45.66,7.79,1.22,15.12A113.64,113.64,0,0,1,932.6,528q3.55-1.79,7.79-4.12a52.28,52.28,0,0,0,7.78-5.22,30.05,30.05,0,0,0,6-6.56A14.79,14.79,0,0,0,956.62,503.72Z" transform="translate(-143.35 -426.92)"/>
  </g>
</svg>
