<svg id="Layer_2" data-name="Layer 2" xmlns="http://www.w3.org/2000/svg" viewBox="0 0 143.07 144.32"><defs><style>.cls-1{fill:#66849f;}.cls-2{fill:#7795aa;}.cls-3{fill:#9fbad1;opacity:0.75;}.cls-4{fill:#fcfcfc;}</style></defs><title>male+female</title><rect class="cls-1" width="143.07" height="144.32" rx="25.18"/><rect class="cls-2" x="3.11" y="3.49" width="136.85" height="137.34" rx="26.52"/><rect class="cls-3" x="5.92" y="7.28" width="131.23" height="129.76" rx="25.25"/><path class="cls-4" d="M84.52,64s-1.37-8,5.1-8h21.49s6.2-.41,6.2,4.55V83.74s-.41,4.82-3.58,4.82a4.05,4.05,0,0,1-4-3.58c0-.55-1.65-.41-1.51,1.38s.41,35.81.41,35.81-1.93,6.06-7.3,6.06a8.4,8.4,0,0,1-8.4-7.57c-.14-3,.13-33.89.13-33.89s.27-2.69-1.22-1.14a4.4,4.4,0,0,1-3.23,2.7c-2.36.34-4.12-2.76-4-6.34Z" transform="translate(-53.46 -3.16)"/><circle class="cls-4" cx="46.88" cy="32.36" r="11.73"/><circle class="cls-4" cx="95.17" cy="33.45" r="11.73"/><path class="cls-4" d="M142,72.69l-.14-13.94s0-3,1.49-3S155,55.63,155,55.63s2.57.41,2.57,2.44.41,15.16.41,15.16l17.32,25.85s1.09,3.65-1.62,3.79-14.75,0-14.75,0-2-.54-2,1.49v16.51s.27,7.31-6.63,7.17-8.8-4.6-8.8-7.44V104.49s.68-1.76-1.36-1.76H124.58s-3-.13-1.35-2.57S142,72.69,142,72.69Z" transform="translate(-53.46 -3.16)"/></svg>