<svg xmlns="http://www.w3.org/2000/svg" width="330" height="330" viewBox="0 0 330 330"><g transform="translate(-195 -568)"><circle cx="165" cy="165" r="165" transform="translate(195 568)" fill="#fff"/><g transform="translate(269.248 629.628)"><path d="M83.195,128.885s1.438,4.472-.532,5.838-7.405,12.035-6.341,13.746c1.438,2.459,15.817,9.619,22.215-.863,0,0-.518-7.721,1.941-7.721s1.6-4.472,1.064-6.873l-.7-5.162a39.355,39.355,0,0,1-17.643,1.035Z" transform="translate(-55.616 52.844)" fill="#473229"/><path d="M83.816,129.956s1.193,3.9-.446,5.09-6.3,10.5-5.406,11.992c1.28,2.142,13.5,8.4,18.894-.748,0,0-.446-6.744,1.654-6.744s1.337-3.9.891-6l-.59-4.5a32.481,32.481,0,0,1-15,.906Z" transform="translate(-54.886 53.369)" fill="#543d31"/><path d="M117.022,128.446s-1.208,4.529.791,5.751,7.923,11.69,6.945,13.458c-1.438,2.516-15.428,10.31-22.229.115,0,0,.187-7.75-2.286-7.635s-1.783-4.4-1.352-6.816l.475-5.191a39.1,39.1,0,0,0,17.657.316Z" transform="translate(-45.862 52.966)" fill="#473229"/><path d="M115.285,129.574s-1.035,3.954.676,5.076,6.744,10.209,5.91,11.747c-1.179,2.186-13.1,8.972-18.894.072,0,0,.144-6.758-1.956-6.657s-1.438-3.839-1.165-5.953l.4-4.529a32.582,32.582,0,0,0,15.026.244Z" transform="translate(-45.39 53.492)" fill="#543d31"/><path d="M118.441,57c-5.349.244-9.015,1.654-8.239,6.959a44.262,44.262,0,0,0,1.711,5.349c1.769,4.515,8.225,18.779,10.64,22.848.546.906,1.97,1.956,2.171,2.991.259,1.323-.561,3.063-.877,4.314-.561,2.214,4.04,9.591,4.932,7.995,0,0-.216-6.614,1.035-4.946s2.876,7.448,4.17,7.189,5.133,1.711,0-13.976c-.144-.417-11.115-38.823-15.414-38.736Z" transform="translate(-40.767 21.816)" fill="#e2bd98"/><path d="M80.313,59.859s-3.422,10.957-5.565,13.458S67.2,93.965,67.2,93.965s-6.816,8.8-5.018,19.21c0,0,5.378,2.689,5.378-3.595s1.265-6.816,1.438-6.1.359,6.283,2.876,5.751,1.8-9.864,1.8-9.864.719-4.127,3.221-6.111S89.458,75.489,89.645,62.922,80.313,59.859,80.313,59.859Z" transform="translate(-61.88 21.564)" fill="#e2bd98"/><path d="M81.823,82.888,79.81,149.174s13.4,4.587,20.562-.733l.374-50.326s.733-3.854,2.387-3.12,1.654,1.28,1.654,2.761,1.438,51.217,1.438,51.217,7.189,5.881,19.454-.733l-.489-65.97S109.488,89.416,81.823,82.888Z" transform="translate(-54.029 32.885)" fill="#977051"/><path d="M31.211,52.906l5.651,5.838,10.381-11.3-1.625-9.662-15.86-.359L26.84,44.351Z" transform="translate(11.752 16.382)" fill="#e2bd98"/><path d="M72.92,64.146l12.251,5.9s1.438-10.468,1.438-7.362-3.235,37.313-3.235,37.313,26.256,7.52,44.833-.59L124.8,67.093s-.359-4.055,1.9,3.652l11.676-6.01S129.96,46.158,121.261,46.3l-3.94-.5s-.144-3.839-3.25-2.071c0,0-8.627,7.189-7.808,10.252a2.214,2.214,0,0,1-3.034-.388s.431-2.056-.82-2.876-5.291-8.1-6.916-7.506-3.595,2.128-3.235,2.718c0,0-6.384-1.438-9.878,2.214S72.92,64.146,72.92,64.146Z" transform="translate(-57.046 15.768)" fill="#e52626"/><path d="M87.148,10.68s-3.264,12.682-4.4,14.523.1,9.03.1,9.03a10.712,10.712,0,0,1-2.876-5.838s-.733.187-.733,4.314S81.612,42.773,83.8,41.45c0,0,2.545,12.581,10.381,14.58,0,0,13.487,9.116,23.337-6.2,0,0,4.314-5.636,4.558-7.822a8.253,8.253,0,0,0,4.918-6.571c.359-4.731.359-8.742-2.372-6.916,0,0-3.839-10.324-3.48-13.243C121.1,15.339,97.889,19.25,87.148,10.68Z" transform="translate(-54.279 1.538)" fill="#e2bd98"/><path d="M87.041,19.636s-2.6,2.1-1.927,3.034S88.22,21.49,88.22,21.49a8.038,8.038,0,0,1,3.12-.345c.676.345,4.127,1.107,3.451-.5S91.168,18.715,87.041,19.636Z" transform="translate(-51.756 5.236)" fill="#9b620b"/><path d="M101.471,19.006s-2.876,1.639-2.416,2.66,3.278-.633,3.278-.633,2.516-.259,3.12.187,3.882,1.769,3.494.086S105.7,18.848,101.471,19.006Z" transform="translate(-45.624 5.175)" fill="#9b620b"/><path d="M93.687,31.343c-.69.072.086,2.214,1.7,2.315s5.061.1,4.874-1.51c0,0-.259-1.021-1.222-.2-.661.561-3.7,2.2-4.515-.46C94.478,31.357,93.9,31.314,93.687,31.343Z" transform="translate(-48.063 10.582)" fill="#aa6f0c"/><path d="M92.29,35.23h10.554s-.776,4.026-4.457,4.026S93.066,38.408,92.29,35.23Z" transform="translate(-48.564 12.288)"/><ellipse cx="5.234" cy="4.04" rx="5.234" ry="4.04" transform="translate(33.488 29.084)" fill="#fff"/><ellipse cx="5.234" cy="4.04" rx="5.234" ry="4.04" transform="translate(53.23 29.3)" fill="#fff"/><circle cx="3.293" cy="3.293" r="3.293" transform="translate(35.372 28.998)" fill="#351f01"/><circle cx="1.74" cy="1.74" r="1.74" transform="translate(36.853 30.522)"/><circle cx="1.74" cy="1.74" r="1.74" transform="translate(36.925 30.537)"/><circle cx="1.74" cy="1.74" r="1.74" transform="translate(57.083 30.709)"/><circle cx="3.293" cy="3.293" r="3.293" transform="translate(55.286 29.214)" fill="#351f01"/><circle cx="1.74" cy="1.74" r="1.74" transform="translate(56.983 30.695)"/><ellipse cx="1.007" cy="1.035" rx="1.007" ry="1.035" transform="translate(36.364 29.617)" fill="#fff" opacity="0.72"/><ellipse cx="1.007" cy="1.035" rx="1.007" ry="1.035" transform="translate(56.451 29.645)" fill="#fff" opacity="0.72"/><path d="M79.825,31.474s.906,7.88,4.314,7.491a12.682,12.682,0,0,1,.388-13.185s2.718-3.091,2.459-11.23c0,0,10.727,8.4,34.509,5.033a13.43,13.43,0,0,0,3.379,13.286S130.323,6.8,107.806,3.148s-28.24,14.508-28.24,14.508S77.884,26.686,79.825,31.474Z" transform="translate(-54.432 -1.972)" fill="#e5d79c"/><path d="M143,128.375s1.438,4.457-.532,5.838-7.405,12.021-6.341,13.746c1.438,2.444,15.817,9.619,22.215-.863,0,0-.518-7.736,1.941-7.736s1.6-4.457,1.064-6.873l-.7-5.148A39.355,39.355,0,0,1,143,128.375Z" transform="translate(-29.427 52.62)" fill="#473229"/><path d="M143.627,129.446s1.193,3.9-.46,5.09-6.283,10.5-5.392,11.992c1.28,2.142,13.5,8.4,18.894-.748,0,0-.446-6.744,1.654-6.744s1.337-3.9.891-6l-.6-4.5A32.4,32.4,0,0,1,143.627,129.446Z" transform="translate(-28.697 53.146)" fill="#543d31"/><path d="M176.832,127.936s-1.208,4.529.791,5.751,7.923,11.69,6.945,13.458c-1.438,2.516-15.428,10.31-22.229.115,0,0,.187-7.75-2.286-7.635s-1.783-4.4-1.352-6.816l.475-5.191a39.1,39.1,0,0,0,17.657.316Z" transform="translate(-19.673 52.743)" fill="#473229"/><path d="M175.1,129.074s-1.035,3.954.676,5.076,6.744,10.209,5.91,11.747c-1.179,2.186-13.1,8.972-18.894.072,0,0,.144-6.758-1.956-6.657s-1.438-3.839-1.165-5.953l.4-4.529A32.582,32.582,0,0,0,175.1,129.074Z" transform="translate(-19.201 53.273)" fill="#543d31"/><path d="M141.613,82.378,139.6,148.664s13.4,4.587,20.562-.733l.374-50.326s.733-3.853,2.387-3.12,1.639,1.28,1.639,2.761S166,148.463,166,148.463s7.189,5.881,19.454-.733l-.489-65.97S169.306,88.892,141.613,82.378Z" transform="translate(-27.849 32.662)" fill="#977051"/><path d="M91.021,52.4l5.651,5.838,10.381-11.3-1.639-9.662L89.569,36.91,86.65,43.841Z" transform="translate(37.942 16.158)" fill="#925f49"/><path d="M139.6,59.349s-3.422,10.942-5.565,13.458-7.549,20.619-7.549,20.619-3.983,4.544-3.566,12.941a4.572,4.572,0,0,0,3.005,4.127c.92.316,1.682.129,1.438-1.927-.618-6.255.719-6.312.892-5.593s.359,6.284,2.876,5.751,1.8-9.864,1.8-9.864.719-4.141,3.221-6.111S148.715,74.979,148.9,62.412,139.6,59.349,139.6,59.349Z" transform="translate(-35.166 21.341)" fill="#9d6750"/><path d="M170.325,59.233a23.005,23.005,0,0,0,1.7,9.591c2.1,5.363,10.9,24.027,10.9,24.027a15.715,15.715,0,0,1,.561,6.1c-.561,2.229,3.048,13.89,3.465,5.751,0,0,1.251-4.314,2.5-2.631s4.17,8.052,5.421,7.779,3.882,1.107-1.251-14.58c-.144-.417-11.115-38.823-15.414-38.736a15.817,15.817,0,0,0-7.88,2.7Z" transform="translate(-14.402 21.615)" fill="#9d6750"/><path d="M132.73,63.636l12.251,5.9s1.438-10.468,1.438-7.376-3.235,37.385-3.235,37.385,26.256,7.52,44.833-.59l-3.365-32.366s-.748-3.192,2.646,3.149l10.928-5.507s-8.412-18.577-17.111-18.434l-3.983-.446s-.144-3.839-3.25-2.071c0,0-8.627,7.189-7.808,10.252a2.214,2.214,0,0,1-3.091-.446s.431-2.056-.82-2.876-5.291-8.1-6.916-7.506-3.595,2.128-3.235,2.718c0,0-6.384-1.438-9.878,2.214S132.73,63.636,132.73,63.636Z" transform="translate(-30.857 15.544)" fill="#2276ba"/><path d="M146.987,11s-2.142,13.1-3.969,14-.359,8.383-.359,8.383a10.64,10.64,0,0,1-2.876-5.823s-.733.187-.733,4.314,2.372,10.065,4.558,8.742c0,0,2.545,12.581,10.381,14.58,0,0,13.487,9.116,23.337-6.2,0,0,4.314-5.651,4.558-7.836A8.21,8.21,0,0,0,186.8,34.61c.359-4.731.359-8.742-2.372-6.916,0,0-5.1-8.627-4.731-11.5C179.655,16.219,157.67,19.527,146.987,11Z" transform="translate(-28.089 1.678)" fill="#925f49"/><path d="M146.851,19.16s-2.6,2.1-1.927,3.034,3.106-1.179,3.106-1.179a8.038,8.038,0,0,1,3.12-.345c.676.345,4.127,1.093,3.451-.5S150.978,18.2,146.851,19.16Z" transform="translate(-25.566 5.021)" fill="#352924"/><path d="M161.281,18.542s-2.876,1.639-2.416,2.66,3.278-.633,3.278-.633,2.516-.259,3.12.187,3.882,1.769,3.494.072S165.508,18.312,161.281,18.542Z" transform="translate(-19.435 4.964)" fill="#352924"/><path d="M153.5,30.833c-.69.072.086,2.2,1.7,2.3s5.061.1,4.874-1.51c0,0-.259-1.007-1.222-.2-.661.575-3.7,2.2-4.515-.446C154.331,30.847,153.713,30.8,153.5,30.833Z" transform="translate(-21.874 10.359)" fill="#352924"/><path d="M152.1,34.72h10.554s-.776,4.026-4.457,4.026S152.876,37.9,152.1,34.72Z" transform="translate(-22.375 12.065)"/><ellipse cx="5.234" cy="4.04" rx="5.234" ry="4.04" transform="translate(119.487 28.351)" fill="#fff"/><ellipse cx="5.234" cy="4.04" rx="5.234" ry="4.04" transform="translate(139.229 28.567)" fill="#fff"/><circle cx="3.293" cy="3.293" r="3.293" transform="translate(121.371 28.251)" fill="#351f01"/><circle cx="1.74" cy="1.74" r="1.74" transform="translate(122.852 29.789)"/><circle cx="1.74" cy="1.74" r="1.74" transform="translate(122.924 29.789)"/><circle cx="1.74" cy="1.74" r="1.74" transform="translate(143.083 29.976)"/><circle cx="3.293" cy="3.293" r="3.293" transform="translate(141.285 28.481)" fill="#351f01"/><circle cx="1.74" cy="1.74" r="1.74" transform="translate(142.982 29.962)"/><ellipse cx="1.007" cy="1.035" rx="1.007" ry="1.035" transform="translate(122.363 28.883)" fill="#fff" opacity="0.72"/><ellipse cx="1.007" cy="1.035" rx="1.007" ry="1.035" transform="translate(142.45 28.912)" fill="#fff" opacity="0.72"/><path d="M139.632,30.948s.906,7.865,4.386,7.477c0,0-3.566-4.457.82-11.431,0,0,3.106-2.372,2.876-10.5,0,0,7.995,7.189,31.763,3.882,0,0-.618,5.493,5.335,11.69,0,0,5.349-25.8-17.125-29.4S139.4,17.116,139.4,17.116,137.691,26.16,139.632,30.948Z" transform="translate(-28.24 -2.18)" fill="#352924"/></g></g></svg>