<svg xmlns="http://www.w3.org/2000/svg" viewBox="0 0 189.44 205.54"><defs><style>.cls-1{isolation:isolate;}.cls-2{fill:#010101;}.cls-12,.cls-3{fill:#fff;}.cls-4{fill:#eaa3c8;opacity:0.37;}.cls-5{fill:#c12127;stroke:#9d1c20;stroke-miterlimit:10;}.cls-6{fill:none;}.cls-7{fill:#f3d0e3;}.cls-8{fill:#424242;opacity:0.32;mix-blend-mode:darken;}.cls-9{opacity:0.66;}.cls-10{fill:#eaa7b2;}.cls-10,.cls-12{mix-blend-mode:overlay;}.cls-11{fill:#cc79a9;opacity:0.67;}.cls-12{opacity:0.7;}</style></defs><title>mouth</title><g class="cls-1"><g id="Layer_1" data-name="Layer 1"><ellipse class="cls-2" cx="92.56" cy="103.67" rx="82.58" ry="72.85"/><path class="cls-3" d="M93.58,91.54l89.22,14.7S170.53,87.47,154.16,79s-47.08-6.11-47.08-6.11l-7.93,7.07L93.29,90.8A.46.46,0,0,0,93.58,91.54Z" transform="translate(-47.55 -34.76)"/><path class="cls-4" d="M168.09,117.14a51.37,51.37,0,0,0-8.75,1.36c-9.86,2-28.82,9.32-49.64,30.12Z" transform="translate(-47.55 -34.76)"/><path class="cls-5" d="M233,137.38a8.58,8.58,0,0,1-3.11-.56,8.81,8.81,0,0,1-1.77-.4c-.86.3-4-1.28-5-1.66-.79-.3-1-.5-1.89-.82-12.5,1.57-19.58,9.59-32.84,20.34-27.1,22-48.3,40.35-63.13,42.9S70.87,139.37,65.4,122.07c0,0-2.61,4.31-10.76.6-.49.57-4.34-2.5-4.07-1.88,2.13,15.58,12.22,92,52.91,107.73,0,0,52.16,14.82,81.3-22.5s32.72-46,32.72-46,7.89-15.78,17.85-21c-1-.13-.93-1.23-1.68-1.65C233.44,137.34,233.22,137.38,233,137.38Z" transform="translate(-47.55 -34.76)"/><path class="cls-5" d="M234.57,136.73c-14.55-16-26.22-40.19-30-55.76a45.12,45.12,0,0,0-15.2-24.19,82,82,0,0,0-20.9-12.45c-24.89-10.14-40,7.16-40,7.16-15.34-33.24-42.95-5.12-42.95-5.12S72.19,59.67,66.56,83.19,50.84,120.5,50.84,120.5s8.32,7.42,14.39,2.57C71,118.5,88,92.39,88,92.39S97.24,81.14,109,75s43.63,5.06,56.76,15.28A114.55,114.55,0,0,1,188,114c25.13,28.86,42.79,24,47.7,24.11A12.83,12.83,0,0,1,234.57,136.73Z" transform="translate(-47.55 -34.76)"/><path class="cls-6" d="M98.27,56.47s14.31,35.28,49.59,7.67" transform="translate(-47.55 -34.76)"/><path class="cls-7" d="M148.05,117.38a.11.11,0,0,0,0-.2c-23.74-11.19-51.64-8.62-72.37,6.76-22.29,16.54-32.6,45.22-26.32,72.78a27.91,27.91,0,0,1,.83,3.54c.38,6.84,2.56,38.07,20.38,39.59,19.94,1.69,35.09-1.42,51.13-17.22,24.17-23.83,44.06-47.46,68.6-69.75,17.51-15.9,22.3-16.41,24.36-17.34a5.42,5.42,0,0,1,1.44-.56c1.07-.31-.92-1.35-1.25-1.51-3.48-1.74-7.78-3.4-15.94-7.48-6.11-3.06-7.64-5-12.48-6.78-4-1.46-13.43-4.11-28.43-.38-29.45,7.32-47.25,31-48.57,29.65-1-1,8.49-14.91,24.54-24.54A74.76,74.76,0,0,1,148.05,117.38Z" transform="translate(-47.55 -34.76)"/><path class="cls-8" d="M216.1,135s-7.11-2.12-45.58,36.92L129,215.39a95.51,95.51,0,0,1-10.09,10.1c-6.22,5.27-13.9,10.14-18.25,11.16a76.49,76.49,0,0,0,28.8-16.49h0s48-52.42,59.34-61.77C188.8,158.39,211.71,137.58,216.1,135Z" transform="translate(-47.55 -34.76)"/></g><g id="Layer_2" data-name="Layer 2" class="cls-9"><path class="cls-10" d="M145.45,218.93S172,198.77,177,191.38s7-2.64,7-2.64-6.55,17.27-16.35,23.59S140.25,226.31,145.45,218.93Z" transform="translate(-47.55 -34.76)"/><path class="cls-10" d="M145.17,58.72s-11,6.54-6,6.43,13.44-2.11,21.32-.55a46,46,0,0,1,13.43,4.88s7.42,4,4.52-1.78-13-9.76-19.34-10.65S145.17,58.72,145.17,58.72Z" transform="translate(-47.55 -34.76)"/><path class="cls-10" d="M94.64,53.16s-5.46,6,0,5.53,10.46-2.25,18.1-.75,8.12,0,4.84-3.59S105.1,46.88,94.64,53.16Z" transform="translate(-47.55 -34.76)"/><ellipse class="cls-10" cx="189.82" cy="93.29" rx="4.63" ry="9.63" transform="translate(-68.88 70.67) rotate(-29.46)"/><path class="cls-4" d="M99.83,207.46c21-4,39.16-33.51,46.74-33.51l6.6.09c2.4,0,12.52,2.7,10.8,4.77-2.52,3-17.46,18.39-20.73,22.53-6.53,8.25-19.32,22.43-35.38,31.19-8.89,4.85-19.44,7.85-28.94,7.7,0,0-25.62,3.37-28.67-37.11-.4-5.31-2.19-10.25-1.41-12.72C53.77,174.87,81.73,210.92,99.83,207.46Z" transform="translate(-47.55 -34.76)"/><path class="cls-11" d="M86.44,116.64s32.64-14.46,61.61.74a109.23,109.23,0,0,0-19.22,10.1c-8,5.32-15.54,13.46-17.89,18-.81,1.58-1.3,3-2.06,3.13-1.31.31-7.33-22.53-14-25.12-7.52-2.93-13.81-3.31-16.93-.77Z" transform="translate(-47.55 -34.76)"/><path class="cls-12" d="M99.76,215.14c17.5-4.31,31.11-25.76,37.53-26.33l5.59-.44c2-.15,10.76.9,9.42,2.43-1.94,2.25-13.65,13.84-16.17,16.9-5,6.11-15,16.72-28,23.89a61.9,61.9,0,0,1-24,7.43s-21.48,4.22-26.51-23.1c-.66-3.59-2.48-6.82-2-8.55C58.82,196.42,84.66,218.86,99.76,215.14Z" transform="translate(-47.55 -34.76)"/><path class="cls-8" d="M97.46,83.06s35.23-23.25,84.46,23.25a83.33,83.33,0,0,0-21.8-20,89,89,0,0,0-28-11.17c-5.77-1.16-11.65-2.39-17.43-1.68C109.1,74.15,103.12,77.76,97.46,83.06Z" transform="translate(-47.55 -34.76)"/></g></g></svg>