<svg id="Layer_3" data-name="Layer 3" xmlns="http://www.w3.org/2000/svg" viewBox="0 0 108.74 140.79"><defs><style>.cls-1{fill:#c69973;stroke:#9c664e;stroke-miterlimit:10;stroke-width:1.5px;}.cls-2{fill:#9c664e;}.cls-3{fill:#ead5c7;opacity:0.13;}.cls-4{fill:#99644d;opacity:0.47;}</style></defs><path class="cls-1" d="M99.14,92S97.47,72.19,78.53,75.25h0c-.14,0-7.24,1.49-5.67,7.79a.22.22,0,0,0,.08.13c.52.45,4.57,4.29,3.7,16.18,0,0-.08,2,2.35,6.27s24,37.23,40.2,37.92,43.88-1.23,48.58-19.31c0,0,6.42-24.12,10.24-29.71l0,0c.12-.27,2.91-6.69,1.38-10.77s-14.23-28.64-15.12-39.61c0,0,0,0,0,0-.12-.34-1.79-5.09-3.29-6.77L140.81,7.76h0c-.08-.11-4.92-6.39-10.95-1.57a10.7,10.7,0,0,0-4,11.3l.9,2.85a.24.24,0,0,1-.28.31c-2-.43-10.36-1.75-9.11,7.58,1.34,10,6.71,9.93,7.28,9.9a.18.18,0,0,1,.1,0,8.37,8.37,0,0,1,2.55,1.59c.35.61,13.22,15.37,13.65,21.42a.24.24,0,0,1-.33.23l-20.63-8a22.29,22.29,0,0,0-13.21-.27L91.9,56.5l-.05,0c-.44.22-8.35,4.14-7.83,8.92S86.69,75.42,96,75h0c.41-.11,7.1-1.86,12.12-1.6s7.85-1.88,10.35.8c0,0,8.53,7.91,18.76,10.52a.19.19,0,0,1,.12.07c.24.29,1.15,1.67-2,2.78a.21.21,0,0,0-.1.06c-.3.35-2.43,2.82-2.63,4.72a.19.19,0,0,1-.05.1c-.71.87-11.75,14-23,11.21l0,0C108.87,103.34,99.09,98.31,99.14,92Z" transform="translate(-71.87 -3.61)"/><path class="cls-2" d="M142.38,86.84,137.56,84c-.14,0-.18.44-.19.58l-.17,2.74c0,.1-.56.41-.45.4l5.53-.46C142.45,87.26,142.53,87,142.38,86.84Z" transform="translate(-71.87 -3.61)"/><path class="cls-3" d="M73.32,82.48s8.84,10.36,9.76,15.08,7.17,14.66,8.74,15.58,16.1,21.08,37.77,17.83,32.2-29.79,32.2-29.79,12.7-23.68,3.86-27.76c-24.55-11.33-23.77-10.88-29.32-12.88-2-.72-4.48-1.74-6.12-2.34-4.91-1.81-14.05-7.21-21.55-4.71L95.88,56.35c-1.94.43-3.22.78-3.76.87-.14,0-.1.18-.09.27,0,.44,2.24.89,8.81.79,3.55-.06,13.54,9.53,13.45,11.93-.13,3.62,1.41.2,5,3.65a44.62,44.62,0,0,0,8.84,6.26c.79.43,1.62.88,2.51,1.31s2.07.94,3.09,1.36c.7.28,1.47.53,2.17.74.49.14.86.27,1.31.38a1.64,1.64,0,0,1,.35.09c.9.55.54.35,2.6,1.53.86.49,1.57.9,2.16,1.27,0,0,.34.32,0,.45s-1.66.12-2.49.24-2.3.07-3,.25a3.5,3.5,0,0,0-1.09.45,11.57,11.57,0,0,0-2.13,3.31c-.29.82-.17,1.24-.73,1.77a36.76,36.76,0,0,1-6.15,6c-13.3,10.11-19.35,4-19.35,4s-9-4.89-9-11.38S89,79.12,87.53,78.12C86.57,77.45,75.37,72.87,73.32,82.48Z" transform="translate(-71.87 -3.61)"/><path class="cls-4" d="M137.76,5.68,159.6,41.87s2.08,1,1.77,6a4.39,4.39,0,0,0,.32,1.93L172,75.4s6.31,11,2.75,16.21c0,0-6.48,10-6.64,13.61s-6.29,21.4-6.29,21.4-11.45,12.51-27.42,11.45c-11.71-.78-21.11-2.91-26.14-5a34.25,34.25,0,0,1-6.84-4.62c-4.57-4.08-14.7-14.24-17.84-20.63a50.75,50.75,0,0,1-4.82-14.48s-2.6-8.11-3.61-5.91a41.4,41.4,0,0,1,2,13.78s.92,2,1.73,3.45,19.48,31,34.25,36.93c10.66,4.32,28,.26,28,.26s20.58-1.94,25.79-15.79c0,0,6-18.8,9.58-29.67,0,0,4.27-5,3-11.55L164.74,48.73s.64-4.85-4.76-12.09C160,36.64,139.89,3.18,137.76,5.68Z" transform="translate(-71.87 -3.61)"/><path class="cls-2" d="M165.83,73c-.4.26-1.09-.4-2.85-.82a9.06,9.06,0,0,1-3.32-1,97.39,97.39,0,0,0-11.86-5.86l-7.27-3.28s-.32-1.24,1.11-1.16c1.14.07,5,2.8,4.51-.61,0,0-1.79-9.81-2.48-10.6A119.23,119.23,0,0,0,134,34.07S125,22.49,126,19.63c0,0,.9-1.73,1.68,1.15S137,36,137,36l6.89,9.94a17.24,17.24,0,0,1,2.86,8.47s.87,9.06,2.66,10.15l2,1.17s5.69,4.56,12.37,5.48a5.17,5.17,0,0,1,.93.4C165.55,72,166.42,72.6,165.83,73Z" transform="translate(-71.87 -3.61)"/></svg>