<svg xmlns="http://www.w3.org/2000/svg" viewBox="0 0 232.95 113.17"><defs><style>.cls-1{isolation:isolate;}.cls-2{fill:#de9d3a;}.cls-3{fill:#fff;}.cls-4,.cls-5{fill:#ef8f11;}.cls-5{opacity:0.42;}.cls-6{opacity:0.84;mix-blend-mode:lighten;}</style></defs><title>oranges</title><g class="cls-1"><g id="Layer_2" data-name="Layer 2"><circle class="cls-2" cx="55.58" cy="55.58" r="55.58"/><circle class="cls-3" cx="55.58" cy="55.58" r="52.23"/><path class="cls-4" d="M36.28,37.42s-9,1.9-9.68,5.69-14.73,8.84-7.37,21c0,0,.63,2.95-1.26,3.37s-5.89,7.16-5,12.21.21,8.84,2.31,10.31-1.47,3.79,2.32,9.47,7.79,4.21,7.79,4.21-1.9,3.79.63,5.89,7.57,8.84,9.89,8.84,5.47,1.48,7.79-1.89-4.42,6.1,3.15,6.1,15.16.64,15.37-2.73c0,0,4.84,6.1,13.47.84,0,0,17.26-4.21,15.57-11.16,0,0,9.68,3.37,11.79-9.89,0,0,4.84-4.63,3.16-11.15,0,0,3.36-2.53,1.26-14.95,0,0,.63-10.52-6.74-9.89,0,0,4.32-3.33-1.4-11.9,0,0-6.58-12.8-11.43-9.2,0,0,.25-5.84-7.83-7.45,0,0-4.84-1-5.21-1.62,0,0-9.32-4.72-10.44-1,0,0-7-4.85-11.31-2.61,0,0-4.6-1.37-7.58,1.61C45.48,31.57,36.15,33,36.28,37.42Z" transform="translate(-4.88 -20.56)"/><path class="cls-5" d="M36.59,37.26s-9.05,1.89-9.68,5.68-14.73,8.84-7.36,21c0,0,.63,3-1.27,3.37s-5.89,7.16-5.05,12.21.21,8.84,2.32,10.31-1.48,3.79,2.31,9.47,7.79,4.21,7.79,4.21-1.89,3.79.63,5.9,7.58,8.84,9.89,8.84,5.48,1.47,7.79-1.9-4.42,6.11,3.16,6.11,15.15.63,15.36-2.74c0,0,4.84,6.1,13.47.84,0,0,17.26-4.21,15.58-11.15,0,0,9.68,3.36,11.78-9.9,0,0,4.84-4.63,3.16-11.15,0,0,3.37-2.53,1.26-14.94,0,0,.63-10.53-6.73-9.9,0,0,4.31-3.33-1.4-11.9,0,0-6.59-12.8-11.43-9.2,0,0,.25-5.84-7.83-7.45,0,0-4.85-1-5.22-1.62,0,0-9.32-4.72-10.44-1,0,0-7-4.85-11.3-2.61,0,0-4.6-1.37-7.58,1.62C45.8,31.41,36.46,32.79,36.59,37.26Z" transform="translate(-4.88 -20.56)"/><path class="cls-3" d="M51.47,68.94s4.08,3.67,5.72,3.47,7.56-2.86,7.56-2.86l3.88.2s-4.49,4.5-4.09,5.11-2.86,3.07-1.22,3.27S69.65,82,69.65,82s-3.06.21-3.06,1.43-2.86-4.29-4.5-1S58,80.79,58,80.79s-1.43-2.45-2.86-2.25-3.88.61-3.88-.41c0,0,.65,0,.2-1.32,0,0,.08-1,.45-1s2.67.6,1.93-2.33l-2.49-4.83" transform="translate(-4.88 -20.56)"/><g class="cls-6"><path class="cls-3" d="M63.64,47.52S62.28,51,62.28,51.38s1.25-.57,1.93-.11,2,0,1.48-1.25-1.71-3-.8-3.41-1-2.39.91-2.5,1.48-1.25,1.48-3.18-1-2-1.48-1.13S66.14,42,64.66,42s-1.36.12-1.25,1-1.25,1.17-1,1.93c.46,1.47-.68,1.13-1,1.81S62.5,47.86,63.64,47.52Z" transform="translate(-4.88 -20.56)"/><path class="cls-3" d="M84.7,82.1s-2.56-2.76-2.87-2.91,0,1.37-.74,1.78-.9,1.84.47,1.88,3.4-.24,3.41.78,2.59.12,1.85,1.91.47,1.87,2.21,2.72,2.28,0,1.67-.83-2.09-.64-1.44-2,.49-1.27-.37-1.57-.51-1.64-1.29-1.76c-1.53-.24-.72-1.11-1.19-1.72S84.9,80.93,84.7,82.1Z" transform="translate(-4.88 -20.56)"/><path class="cls-3" d="M21.09,86.06s-1.36,3.52-1.36,3.86,1.25-.57,1.93-.12,2.05,0,1.48-1.25-1.7-3-.8-3.4-1-2.39.91-2.5,1.48-1.25,1.48-3.18-1-2-1.48-1.14.34,2.16-1.13,2.16-1.37.11-1.25,1-1.26,1.17-1,1.93c.45,1.48-.69,1.14-1,1.82S20,86.4,21.09,86.06Z" transform="translate(-4.88 -20.56)"/><path class="cls-3" d="M67.9,97.28a2.17,2.17,0,0,0-.23,3.38c1.81,1.81,2.71,1.13,2.71-1.13a18.89,18.89,0,0,0-.9-5Z" transform="translate(-4.88 -20.56)"/><path class="cls-3" d="M39.45,79.67A5.42,5.42,0,0,0,39,83.05c.45,1.58,3.16-.67,3.16-1.8V77.64Z" transform="translate(-4.88 -20.56)"/><path class="cls-3" d="M40.13,36.77s-.9,3.84.23,5.2,1.35.22,1.35-1.58A6.63,6.63,0,0,0,40.13,36.77Z" transform="translate(-4.88 -20.56)"/><path class="cls-3" d="M57.29,58.45s.45,4.74,1.35,5S58.19,59.35,57.29,58.45Z" transform="translate(-4.88 -20.56)"/><path class="cls-3" d="M90.7,49.42s-3.16,2.71-3.16,3.83S90.47,51.67,90.7,49.42Z" transform="translate(-4.88 -20.56)"/><path class="cls-3" d="M98.6,60.48s-6.32-.9-7.45,2.26,2.71,1.58,2.71,1.58Z" transform="translate(-4.88 -20.56)"/><path class="cls-3" d="M39.71,110.34l3.38-3.18S43.68,111.13,39.71,110.34Z" transform="translate(-4.88 -20.56)"/><path class="cls-3" d="M55.79,114.5s-.39,2.39.4,2.39S59.57,115.1,55.79,114.5Z" transform="translate(-4.88 -20.56)"/><path class="cls-3" d="M64.33,106s1.59,5.76.4,6.15-3.18-2-3.18-.39,5.36,2.38,5.56-.8-2.58-6.75-2.58-6.75Z" transform="translate(-4.88 -20.56)"/><path class="cls-3" d="M81.08,106.26s-1.27,3.83.37,3.83,1.09,1.64,1.09,1.64,3.28,1.46,2.92-1.09-.73-.37-2-1.46S82.18,106.08,81.08,106.26Z" transform="translate(-4.88 -20.56)"/><path class="cls-3" d="M95.48,76.56s2.19,2.91,2,3.64.54-3.83,2-3.83S95.48,76.56,95.48,76.56Z" transform="translate(-4.88 -20.56)"/><path class="cls-3" d="M26.77,50.31l-1.28,3.46s4.56-.36,4.56-1.46S26.77,50.31,26.77,50.31Z" transform="translate(-4.88 -20.56)"/><path class="cls-3" d="M26.7,61.64,30,59.93s.8-1.6,1.37-1,.45,2.63-.46,2.4A19.33,19.33,0,0,0,26.7,61.64Z" transform="translate(-4.88 -20.56)"/><path class="cls-3" d="M71.15,67s1.87,2.5,1.71,3.12.47-3.27,1.72-3.27S71.15,67,71.15,67Z" transform="translate(-4.88 -20.56)"/><path class="cls-3" d="M42.93,55.64s-2.39-2-2.65-2.1.15.81-.36,1-.47,1,.62,1.17,2.66.3,2.8.9,2.07.41,1.71,1.37.62,1.17,2.1,1.89,1.81.28,1.22-.27-1.74-.65-1.4-1.35.23-.69-.49-1-.61-1-1.25-1.21c-1.24-.33-.72-.74-1.16-1.16S42.93,55,42.93,55.64Z" transform="translate(-4.88 -20.56)"/><path class="cls-3" d="M49.9,91s-1.16,3-1.16,3.3,1.07-.48,1.65-.09,1.75,0,1.26-1.07S50.2,90.62,51,90.24s-.87-2,.78-2.14S53,87,53,85.38s-.87-1.75-1.26-1,.29,1.85-1,1.85-1.17.09-1.07.87-1.07,1-.87,1.65c.38,1.26-.59,1-.88,1.55S48.93,91.3,49.9,91Z" transform="translate(-4.88 -20.56)"/><path class="cls-3" d="M80.29,38.51s-3.47-.32-4.09.8,1.49.56,1.49.56Z" transform="translate(-4.88 -20.56)"/><path class="cls-3" d="M95.07,98.61s.66,2.81.17,3-1.33-1-1.33-.19,2.24,1.16,2.32-.39a6.52,6.52,0,0,0-1.08-3.3Z" transform="translate(-4.88 -20.56)"/></g><circle class="cls-2" cx="177.37" cy="57.59" r="55.58"/><circle class="cls-3" cx="177.37" cy="57.59" r="52.23"/><path class="cls-4" d="M158.08,39.44s-9.05,1.89-9.68,5.68S133.66,54,141,66.17c0,0,.63,2.94-1.26,3.36s-5.9,7.16-5.06,12.21.22,8.84,2.32,10.31-1.47,3.79,2.32,9.48,7.78,4.2,7.78,4.2-1.89,3.79.63,5.9,7.58,8.84,9.9,8.84,5.47,1.47,7.78-1.9-4.42,6.11,3.16,6.11,15.15.63,15.36-2.74c0,0,4.85,6.1,13.47.84,0,0,17.26-4.21,15.58-11.15,0,0,9.68,3.37,11.79-9.89,0,0,4.84-4.63,3.15-11.16,0,0,3.37-2.52,1.26-14.94,0,0,.64-10.53-6.73-9.89,0,0,4.32-3.34-1.4-11.91,0,0-6.59-12.8-11.43-9.19,0,0,.25-5.84-7.83-7.46,0,0-4.84-1-5.22-1.61,0,0-9.32-4.73-10.44-1,0,0-6.95-4.84-11.3-2.61,0,0-4.6-1.36-7.58,1.62C167.28,33.59,158,35,158.08,39.44Z" transform="translate(-4.88 -20.56)"/><path class="cls-5" d="M158.39,39.27s-9,1.89-9.68,5.68S134,53.79,141.34,66c0,0,.63,2.94-1.26,3.37s-5.89,7.15-5.05,12.2.21,8.84,2.31,10.32-1.47,3.78,2.32,9.47,7.79,4.21,7.79,4.21-1.9,3.78.63,5.89,7.57,8.84,9.89,8.84,5.47,1.47,7.79-1.9-4.42,6.11,3.15,6.11,15.16.63,15.37-2.74c0,0,4.84,6.11,13.47.84,0,0,17.26-4.21,15.57-11.15,0,0,9.68,3.37,11.79-9.89,0,0,4.84-4.63,3.16-11.16,0,0,3.36-2.52,1.26-14.94,0,0,.63-10.52-6.74-9.89,0,0,4.32-3.33-1.4-11.91,0,0-6.58-12.8-11.43-9.19,0,0,.25-5.84-7.82-7.46,0,0-4.85-1-5.22-1.61,0,0-9.32-4.72-10.44-1,0,0-7-4.84-11.31-2.61,0,0-4.6-1.36-7.58,1.62C167.59,33.42,158.26,34.81,158.39,39.27Z" transform="translate(-4.88 -20.56)"/><path class="cls-3" d="M173.26,71s4.09,3.68,5.72,3.47,7.56-2.86,7.56-2.86l3.89.21s-4.5,4.49-4.09,5.1-2.86,3.07-1.23,3.27S191.45,84,191.45,84s-3.07.2-3.07,1.43-2.86-4.29-4.49-1-4.09-1.64-4.09-1.64-1.43-2.45-2.86-2.25-3.88.62-3.88-.41c0,0,.65,0,.2-1.31,0,0,.07-1,.45-1s2.67.59,1.93-2.34l-2.49-4.83" transform="translate(-4.88 -20.56)"/><g class="cls-6"><path class="cls-3" d="M185.44,49.53s-1.37,3.52-1.37,3.86,1.25-.56,1.94-.11,2,0,1.47-1.25-1.7-3-.79-3.41-1-2.38.91-2.5,1.47-1.24,1.47-3.18-1-2-1.47-1.13.34,2.16-1.14,2.16-1.36.11-1.25,1-1.26,1.17-1,1.93c.45,1.48-.68,1.14-1,1.82S184.3,49.87,185.44,49.53Z" transform="translate(-4.88 -20.56)"/><path class="cls-3" d="M206.5,84.12s-2.57-2.77-2.87-2.92,0,1.37-.75,1.78-.89,1.84.48,1.88,3.4-.24,3.41.78,2.59.13,1.85,1.91.47,1.88,2.21,2.72,2.28,0,1.66-.82-2.08-.65-1.44-2,.5-1.28-.37-1.57-.5-1.65-1.28-1.77c-1.53-.24-.73-1.11-1.19-1.71S206.69,83,206.5,84.12Z" transform="translate(-4.88 -20.56)"/><path class="cls-3" d="M142.89,88.07s-1.36,3.52-1.36,3.86,1.25-.57,1.93-.11,2,0,1.48-1.25-1.71-3-.8-3.41-1-2.39.91-2.5,1.48-1.25,1.48-3.18-1-2-1.48-1.13.34,2.15-1.14,2.15-1.36.12-1.25,1-1.25,1.17-1,1.93c.46,1.47-.68,1.13-1,1.81S141.76,88.41,142.89,88.07Z" transform="translate(-4.88 -20.56)"/><path class="cls-3" d="M189.69,99.29a2.18,2.18,0,0,0-.22,3.39c1.8,1.8,2.71,1.12,2.71-1.13a18.72,18.72,0,0,0-.91-5Z" transform="translate(-4.88 -20.56)"/><path class="cls-3" d="M161.25,81.68a5.46,5.46,0,0,0-.45,3.39c.45,1.58,3.16-.68,3.16-1.81V79.65Z" transform="translate(-4.88 -20.56)"/><path class="cls-3" d="M161.93,38.79s-.91,3.84.22,5.19,1.36.23,1.36-1.58A6.59,6.59,0,0,0,161.93,38.79Z" transform="translate(-4.88 -20.56)"/><path class="cls-3" d="M179.08,60.46s.46,4.74,1.36,5S180,61.36,179.08,60.46Z" transform="translate(-4.88 -20.56)"/><path class="cls-3" d="M212.5,51.43s-3.16,2.71-3.16,3.84S212.27,53.69,212.5,51.43Z" transform="translate(-4.88 -20.56)"/><path class="cls-3" d="M220.4,62.49s-6.32-.9-7.45,2.26,2.71,1.58,2.71,1.58Z" transform="translate(-4.88 -20.56)"/><path class="cls-3" d="M161.51,112.35l3.37-3.18S165.48,113.14,161.51,112.35Z" transform="translate(-4.88 -20.56)"/><path class="cls-3" d="M177.59,116.52s-.4,2.38.4,2.38S181.36,117.11,177.59,116.52Z" transform="translate(-4.88 -20.56)"/><path class="cls-3" d="M186.13,108s1.59,5.76.39,6.16-3.17-2-3.17-.4,5.36,2.38,5.56-.8-2.58-6.75-2.58-6.75Z" transform="translate(-4.88 -20.56)"/><path class="cls-3" d="M202.88,108.28s-1.28,3.82.36,3.82,1.1,1.64,1.1,1.64,3.28,1.46,2.91-1.09-.73-.36-2-1.46S204,108.09,202.88,108.28Z" transform="translate(-4.88 -20.56)"/><path class="cls-3" d="M217.28,78.57s2.18,2.91,2,3.64.55-3.82,2-3.82S217.28,78.57,217.28,78.57Z" transform="translate(-4.88 -20.56)"/><path class="cls-3" d="M148.57,52.32l-1.28,3.47s4.56-.37,4.56-1.46S148.57,52.32,148.57,52.32Z" transform="translate(-4.88 -20.56)"/><path class="cls-3" d="M148.49,63.65l3.31-1.71s.8-1.6,1.37-1,.46,2.63-.45,2.4A19.37,19.37,0,0,0,148.49,63.65Z" transform="translate(-4.88 -20.56)"/><path class="cls-3" d="M193,69s1.87,2.49,1.71,3.11.47-3.27,1.72-3.27S193,69,193,69Z" transform="translate(-4.88 -20.56)"/><path class="cls-3" d="M164.73,57.65s-2.39-2-2.65-2.09.15.8-.36.95-.47,1,.62,1.17,2.66.3,2.8.9,2.07.41,1.71,1.37.62,1.17,2.1,1.89,1.81.29,1.21-.27-1.73-.65-1.39-1.35.23-.69-.5-1-.61-1-1.24-1.21c-1.24-.34-.72-.75-1.16-1.17S164.73,57,164.73,57.65Z" transform="translate(-4.88 -20.56)"/><path class="cls-3" d="M171.7,93s-1.16,3-1.16,3.3,1.06-.49,1.65-.1,1.74,0,1.26-1.07-1.46-2.52-.68-2.91-.87-2,.78-2.14,1.26-1.06,1.26-2.72-.88-1.74-1.26-1,.29,1.85-1,1.85-1.16.1-1.06.87-1.08,1-.88,1.65c.39,1.27-.58,1-.87,1.56S170.73,93.32,171.7,93Z" transform="translate(-4.88 -20.56)"/><path class="cls-3" d="M202.09,40.53s-3.47-.32-4.09.79,1.48.56,1.48.56Z" transform="translate(-4.88 -20.56)"/><path class="cls-3" d="M216.87,100.62s.66,2.81.16,3-1.32-1-1.32-.2S218,104.6,218,103A6.57,6.57,0,0,0,217,99.75Z" transform="translate(-4.88 -20.56)"/></g></g></g></svg>