<svg xmlns="http://www.w3.org/2000/svg" viewBox="0 0 135.4 137.81"><defs><style>.cls-1{isolation:isolate;}.cls-2{fill:#7f5745;}.cls-3{fill:#66830b;}.cls-4{fill:#89c100;opacity:0.23;}.cls-10,.cls-11,.cls-4,.cls-5,.cls-9{mix-blend-mode:overlay;}.cls-5{fill:#273900;opacity:0.25;}.cls-6{fill:#e87942;}.cls-10,.cls-7,.cls-9{fill:#fff;}.cls-7{opacity:0.43;}.cls-8{fill:#d66231;}.cls-9{opacity:0.2;}.cls-10{opacity:0.1;}.cls-11{fill:#d83f27;opacity:0.15;}</style></defs><title>peach</title><g class="cls-1"><g id="Top"><path class="cls-2" d="M124.17,28.25s-3-13.29-2-17.35,5.83-2.51,6-2.07,5.61,3.25.67,6.21a1.81,1.81,0,0,0-1.55,1.62s0,9.3.07,10.12,1.63,1.1,1.63,1.1l.66,1.11L128,30.61S124.39,29.29,124.17,28.25Z" transform="translate(-57.78 -8.17)"/><path class="cls-3" d="M76.24,32.93S69.14,30.22,62.71,22c0,0,8.79-9.13,28.08-8.12s27.4,6.2,31.8,12.63C122.59,26.5,92.93,21.09,76.24,32.93Z" transform="translate(-57.78 -8.17)"/><path class="cls-4" d="M63.63,24.13a104.36,104.36,0,0,0,31.54,1.4l7-.88-.58-1.55s-9.82.83-19.5.68c-7.93-.12-15.89-1.13-17.16-1.74l-2.2.95Z" transform="translate(-57.78 -8.17)"/><path class="cls-5" d="M98.52,15.4s4,9.8,3.61,10.88c0,0,4.42-.23,9.13,0,1,0,2.11.24,3.18.24s2.13.22,3.15.29c1.25.08,2.41.36,3.35.44a7.29,7.29,0,0,1,1.71.33,21.45,21.45,0,0,0-4-4.48,35.53,35.53,0,0,0-12.21-6.82S98.8,13.77,98.52,15.4Z" transform="translate(-57.78 -8.17)"/><path class="cls-5" d="M64.94,24.72s21.32,2.73,30.23.81c0,0-17.34,6.46-19.29,9.39h0S66.46,29.42,64.94,24.72Z" transform="translate(-57.78 -8.17)"/><path class="cls-3" d="M129.05,27.88s4.57-9.07,22-9.07,35.75,7.51,34.85,20.43c0,0-5.26,1.06-8-2.25h0s-3.46-8.26-21.48-11.27S129.05,27.88,129.05,27.88Z" transform="translate(-57.78 -8.17)"/><path class="cls-5" d="M144.89,19.26s-12.46,1.92-15.84,8.62c0,0,12.18-3,17.37-2l8.35.23s-9.28-3-8.93-3.91c0,0,.35-2.39,1.52-2.85Z" transform="translate(-57.78 -8.17)"/><path class="cls-4" d="M169.57,30.12l16.08,6s1.38,2.67-1,3.12A75.92,75.92,0,0,1,169.57,30.12Z" transform="translate(-57.78 -8.17)"/></g><g id="Fill"><path class="cls-6" d="M125.3,29.54S70.47,15.45,59.81,58.48c0,0-4.61,20.83.61,35.2S92,129.32,100.73,134.54a142.07,142.07,0,0,0,16.42,8.4s6.16,4.48,15.3.37S189,114,192.36,82.85s-14.19-47.21-23.14-50.76-30-9.34-41.32-1.41Z" transform="translate(-57.78 -8.17)"/></g><g id="Highlights_and_Shadows" data-name="Highlights and Shadows"><path class="cls-7" d="M128.07,30.57c.2,1.47,37.91,26.52,4.23,108.51,0,0,23.81-45.15,15.85-75.77S133.73,33.69,128.07,30.57Z" transform="translate(-57.78 -8.17)"/><path class="cls-8" d="M128.09,30.56c-.44,0,40.38,27,4.33,108.32,0,0,25-44.38,17.08-75S133.74,33.68,128.09,30.56Z" transform="translate(-57.78 -8.17)"/><path class="cls-9" d="M72.79,38.48S59.11,74.71,67.84,91s11.39,18.08,33.44,35.43L121,138.77s8.16,3.87,6,6.19c0,0-18.22,4.58-59.21-38.79,0,0-7.58-9.47-9-18.81S56.35,57.59,64.65,46c0,0,5.27-7.95,11.23-11.06Z" transform="translate(-57.78 -8.17)"/><path class="cls-10" d="M171.05,33.56a12,12,0,0,1,2.64,3.75c3.53,7.89,14.82,35.21,8.69,49.67-7.2,17-9.71,19-30.1,38.32l-17.63,13.42A13,13,0,0,1,133,139.8c-2.08,1.13-7.43,4.32-5.52,6,0,0,20,4.92,56.83-42,0,0,8.19-14,8.79-23.37A67.86,67.86,0,0,0,189.26,55a47,47,0,0,0-8.39-14.11s-5.16-6.06-11.38-8.61Z" transform="translate(-57.78 -8.17)"/><path class="cls-10" d="M89.26,29.44s-5.85,5.12-.73,13.91,27.44,34,22.69,51.22S133,139.8,133,139.8s47.3-37.11,45.1-68.21-5.16-32.66-6.26-34.36c-3.12-4.86-27.4-16.51-43.83-6.62C128,30.61,101.7,22.12,89.26,29.44Z" transform="translate(-57.78 -8.17)"/><path class="cls-11" d="M83,52.27c5.6,5.52,13.16,14.81,15.72,24.08,0,0,21.34,51.8,34.14,63.64L128,144S68.28,110,65.1,82.68c0,0-.24-12.85,9-29.2A5.66,5.66,0,0,1,83,52.27Z" transform="translate(-57.78 -8.17)"/></g></g></svg>