<svg xmlns="http://www.w3.org/2000/svg" xmlns:xlink="http://www.w3.org/1999/xlink" viewBox="0 0 145.54 138.75"><defs><style>.cls-1{fill:#e5ae00;}.cls-2{fill:#990700;}.cls-3{fill:#d02c14;}.cls-4{fill:#edd842;}.cls-5{fill:#fff;opacity:0.32;}.cls-6{fill:#911f13;opacity:0.52;}.cls-7{fill:#d8b72e;opacity:0.45;}</style></defs><g id="Pill"><image width="160" height="160" transform="scale(0.91 0.87)" xlink:href="../../pill_1f48a.png"/></g><g id="Outline"><path class="cls-1" d="M102.49,109.61a2.78,2.78,0,0,1-.84-1.61c-.56-3.66-1-17,18-34.54C141.53,53.1,146.4,49.63,154.27,53a3,3,0,0,1,.84.56l24.29,23a14.51,14.51,0,0,1,1.81,2.25c3.92,5.56,17.45,27.55.15,47.22-20,22.71-47.18,11.06-51.29,8.56C126.43,132.36,106.33,113.26,102.49,109.61Z" transform="translate(-51.23 -7.77)"/><path class="cls-2" d="M105.09,106.35c-.24,1.29-2.76.44-3.49.64-.57.16,1.35,2.94.73,2.42-3.49-2.93-11.68-11-15.57-14.89L63,71S48.28,57.86,58.4,34.36C67.58,13,90,11.25,96,10.48a18,18,0,0,1,2.94-.06,35.76,35.76,0,0,1,17.62,7.32,8.73,8.73,0,0,1,.73.61l38.43,35.73C117.26,48.46,122,75,141.34,59L111,71.82A9.71,9.71,0,0,0,105.21,79Z" transform="translate(-51.23 -7.77)"/></g><g id="Fill"><path class="cls-3" d="M102.58,106.83a.75.75,0,0,1-1.27.45L64.16,70.82s-14.09-12-5.46-35.33c7.55-20.44,31.86-23.63,37.8-24.11a17.36,17.36,0,0,1,3.43.35,36.59,36.59,0,0,1,16.43,7.12,14.43,14.43,0,0,1,1.13.94l38,34.74a.74.74,0,0,1-.25,1.25L114.5,70.61a13.9,13.9,0,0,0-9,11.47Z" transform="translate(-51.23 -7.77)"/><path class="cls-4" d="M101.59,107.51s-13.42-22.44,8-43.11c22.24-21.49,37.28-14,45.27-10.48l23.73,22.54a20.77,20.77,0,0,1,2.07,2.43c4.52,5.83,16.38,27.32-.41,46.28-19.56,22.08-45.45,11-49.52,8.82S101.59,107.51,101.59,107.51Z" transform="translate(-51.23 -7.77)"/></g><g id="Highlight"><path class="cls-5" d="M102.68,22.31a19.64,19.64,0,0,1-2.09-2.09c-2.11-2.4-9.09-8.37-21.46,0C64.05,30.33,64.79,35.3,65.4,40.83c.48,4.3,41.29,52.73,64.13,72.1,5.68,4.82,9,8.48,15.84,5.56,3.1-1.32,7.22,1.67,15.16,3.86,8.1,2.24,15.09-6.19,18.17-14,1.94-4.91,3.33-9.15,0-16.89-1.19-2.74-4-7.23-6.21-9.18Z" transform="translate(-51.23 -7.77)"/></g><g id="Shadow"><path class="cls-6" d="M79,20.4s-4.71,32.78,26.14,48.94c0,0-13,15.27-5.89,32.5l-4.58-6.42s-48.69-39-30-61.28a47.66,47.66,0,0,1,3.64-4.87c.78-.92,1.58-1.69,2.51-2.66A46.67,46.67,0,0,1,79,20.4Z" transform="translate(-51.23 -7.77)"/><path class="cls-7" d="M105.14,69.3c1.12,1.78,46.76,58.81,63.6,51.33,0,0,12.84-4.72,10-28.92-.05-.44-2-3.18-.68-3.58,2.17-.68,8.23,2.89,7.46,18.17-1,20.43-14.75,28.49-36.95,25.79-21.63-2.63-42.37-21.74-45.12-24.41-5.23-5.07-5.7-9.8-5.7-13.18,0-1.92-2-7.46,2.76-17.58A31.53,31.53,0,0,1,105.14,69.3Z" transform="translate(-51.23 -7.77)"/></g></svg>