<svg xmlns="http://www.w3.org/2000/svg" xmlns:xlink="http://www.w3.org/1999/xlink" viewBox="0 0 86.13 162.38"><defs><style>.cls-1{fill:none;}.cls-2{isolation:isolate;}.cls-3{fill:#8cc322;stroke:#3d5d1b;stroke-width:0.75px;}.cls-14,.cls-3,.cls-4,.cls-5,.cls-6{stroke-miterlimit:10;}.cls-4{fill:#c8b889;}.cls-4,.cls-5,.cls-6{stroke:#351e00;}.cls-5,.cls-6{fill:#fec36f;}.cls-15,.cls-5{opacity:0.62;}.cls-6{stroke-width:0.5px;opacity:0.3;}.cls-13,.cls-6{mix-blend-mode:overlay;}.cls-7{opacity:0.72;}.cls-8{clip-path:url(#clip-path);}.cls-9{fill:#a27741;}.cls-10{opacity:0.35;mix-blend-mode:multiply;}.cls-11{fill:#684b2c;}.cls-12{fill:#c5afa0;}.cls-14{fill:#d8bdb0;stroke:#a27741;stroke-width:0.2px;}.cls-15,.cls-16{fill:#c7e591;}.cls-17{opacity:0.8;}.cls-18{fill:#435c1e;}.cls-19{fill:#5b3f16;opacity:0.15;}.cls-20{fill:#f9e4ca;opacity:0.32;mix-blend-mode:soft-light;}</style><clipPath id="clip-path" transform="translate(0.01 -4.45)"><rect class="cls-1" x="8.94" y="94.39" width="58.45" height="64.15" rx="20.89"/></clipPath></defs><title>pinapple</title><g class="cls-2"><g id="Layer_2" data-name="Layer 2"><path class="cls-3" d="M36.8,85.6l8.5.1s1.74-4.6,5.09-4.85c0,0-.37-2-4.35-.37,0,0,4.85-1.74,4.85-4.72,0,0,3.6-.87,4.35.75,0,0-2.15-6.57-8.36-5.33C46.88,71.18,37.67,74.05,36.8,85.6Z" transform="translate(0.01 -4.45)"/><path class="cls-3" d="M60.56,5.63S51.91,10.15,50.62,13c-.38.83.26,3.56-.65,3.61-2.29.1-2.49-8.85-2.49-8.85L46.23,21.45A82.85,82.85,0,0,1,38.71,40.7l-1.17-4.2,1.05,15.43,2.78,7.18L33.1,70l-4,2.06L29,76.12l2.5,10.07,4.72-.76s1.41-3.45,5-3.58-2.68-2.3-6.13,1l5.62-7.15,5.74.26-2.55-3.06s3.28-3.53,11.23.51c8.94,4.53.13-1,.13-1s-4.85-2-2.93-3.71c0,0,6.89-4,9.31-.51,0,0-.51-4.47-7.27-2.55,0,0-5.53,1.39,2.81-3.7,3.6-2.2,10.08-6.77,12-11.87,0,0-4.57,3.49-8.22,6.23a23.47,23.47,0,0,1-8.12,3s-4.3,3-5.34,4.46C47,63.64,57.84,58.09,63.21,46a.52.52,0,0,0-.61-.71l-4,1,4.06-5S65,37.83,65.1,35.3c0,0,1.71-3.33,1.14-3.82l-6.83,7.16-.49-2.12L55,42.71s-1,6.59-2.52,7.41c0,0,1.71-12.13,7.24-19.37l2.36-4.56s-4.6,4.87-6.74,6.15a2.5,2.5,0,0,1-.58.28c-1.71.49-5.38,3.58-5.38,3.58s5.07-7.57,3.79-9.88c-.63-1.12-2.37-.46-2.17-4.67C51.23,17,60.56,5.63,60.56,5.63Z" transform="translate(0.01 -4.45)"/><path class="cls-3" d="M29.13,86.63S26.22,85,27.48,83.11s-6.12.2-6.12.2S21.16,80,25,80.58s.39-1.74.39-1.74-6-1.07-6.8,1.26S15.82,77,23.69,77.18c6.68.17,1.68-1.36,0-1.83a4.49,4.49,0,0,1-.86-.33,9.69,9.69,0,0,0-6.62-.84s4.59-5.06,8.12-1c.17.2.26.5.51.68,3.68,2.72,1.42-5.6-.18-4.39S14,67.28,11.93,71.65c0,0,1.66-6.41,7.1-8.46s7.77.3,7.77.3-2.53-5.25-8.16-3.11l-3,2.23s-2,2-3.89,2c0,0-4.18,1.56-4.76,3.21S6.88,65,8.73,62.42s3.2-.68,4.95-2.63c0,0,1.07-4,2.92-4.85l1.94-1.27a16.58,16.58,0,0,1-6.22-8.16l-3.2-3.79S13.2,43.38,15,43.38c1.23,0,3.46,1.29,4.8,2.16a.24.24,0,0,0,.33-.33c-1.07-1.69-2.59-5.09-.17-8.34,3.4-4.57,5.83-4.08,5.83-4.08s-4.67,3.49-4.67,7.28,6.19,9,6.19,9-2.49-14-.45-20.54,1.45-7.67.68-9.23,1.74-4.85,1.74-4.85.1,5.53,1.27,8.06S33.31,34.73,31.75,36s-2.33,9.23-.68,11.86c0,0,3.4-19.53,3-24.39s5.82,15.45,5.24,20.69S37.68,55,37.68,55s6-8.71,7.28-12.36a3.79,3.79,0,0,1,1-1.5l4.75-4.5-1.75,5-.58,7.19s.58,15-2.92,18.17l-2.91,2.33s.87-5.44-.1-7.48l-1.07-2.82S38.75,63,37.29,63.78s-4.66,7.77-4.66,7.77l-3.5.49L29,76.12s-1.65,2,3,1.94c0,0,3.4.78,3.49,2l-4.37.48L30,82l.88,1.56Z" transform="translate(0.01 -4.45)"/><path class="cls-3" d="M19.75,52.63S32.51,52.26,34.94,58l2.67,1.46.73,2.92-3.16,3.4-1-1.94h0a8.18,8.18,0,0,1-5.26-6v-.06a5.69,5.69,0,0,0-2.87-2A3.89,3.89,0,0,1,25,55.31Z" transform="translate(0.01 -4.45)"/><path class="cls-3" d="M16.71,63.54S26.22,59,30.16,63l4.11.8,1.06,2.48-2.57,4.6-1-2.73-3.83.13-2.39-3.5a5.08,5.08,0,0,0-3.19-1Z" transform="translate(0.01 -4.45)"/><path class="cls-3" d="M23.17,46s13.54,1.6,15.17,8.31l.33.25a6.66,6.66,0,0,1,2.5,4.64l0,.49-3.9,3.27-.71-2.31h0a8.84,8.84,0,0,1-4.56-7.3v-.26a6.17,6.17,0,0,0-2.62-2.66,5.25,5.25,0,0,1-1.22-.69Z" transform="translate(0.01 -4.45)"/><rect class="cls-4" x="9.34" y="89.15" width="57.36" height="64.15" rx="20.7"/><rect class="cls-5" x="10.04" y="88.94" width="57.36" height="64.15" rx="20.7"/><rect class="cls-6" x="9.32" y="88.92" width="57.36" height="64.15" rx="20.7"/><g class="cls-7"><g class="cls-8"><polygon class="cls-9" points="9.73 91.98 14.73 96.88 21.69 92.94 16.49 87.84 9.73 91.98"/><polygon class="cls-9" points="8.55 102.54 13.55 107.44 20.51 103.5 15.31 98.4 8.55 102.54"/><polygon class="cls-9" points="1.48 96.32 6.47 101.22 13.43 97.28 8.23 92.18 1.48 96.32"/><polygon class="cls-9" points="0 119.9 5 124.81 11.96 120.87 6.75 115.77 0 119.9"/><polygon class="cls-9" points="21.38 91.98 26.38 96.88 33.34 92.94 28.14 87.84 21.38 91.98"/><polygon class="cls-9" points="33.03 91.98 38.02 96.88 44.98 92.94 39.78 87.84 33.03 91.98"/><polygon class="cls-9" points="44.68 91.98 49.67 96.88 56.63 92.94 51.43 87.84 44.68 91.98"/><polygon class="cls-9" points="56.62 91.98 61.62 96.88 68.58 92.94 63.38 87.84 56.62 91.98"/><polygon class="cls-9" points="15.19 97.33 20.18 102.23 27.14 98.29 21.94 93.19 15.19 97.33"/><polygon class="cls-9" points="26.84 97.33 31.83 102.23 38.79 98.29 33.59 93.19 26.84 97.33"/><polygon class="cls-9" points="38.48 97.33 43.48 102.23 50.44 98.29 45.24 93.19 38.48 97.33"/><polygon class="cls-9" points="50.13 97.33 55.13 102.23 62.09 98.29 56.89 93.19 50.13 97.33"/><polygon class="cls-9" points="62.08 97.33 67.07 102.23 74.03 98.29 68.83 93.19 62.08 97.33"/><polygon class="cls-9" points="20.5 102.97 25.49 107.88 32.45 103.94 27.25 98.83 20.5 102.97"/><polygon class="cls-9" points="32.14 102.97 37.14 107.88 44.1 103.94 38.9 98.83 32.14 102.97"/><polygon class="cls-9" points="43.79 102.97 48.79 107.88 55.75 103.94 50.55 98.83 43.79 102.97"/><polygon class="cls-9" points="55.44 102.97 60.44 107.88 67.4 103.94 62.2 98.83 55.44 102.97"/><polygon class="cls-9" points="67.39 102.97 72.38 107.88 79.34 103.94 74.14 98.83 67.39 102.97"/><polygon class="cls-9" points="61.78 109.2 66.78 114.1 73.74 110.16 68.54 105.06 61.78 109.2"/><polygon class="cls-9" points="66.94 126.99 71.94 131.9 78.9 127.96 73.7 122.86 66.94 126.99"/><polygon class="cls-9" points="68.71 115.27 73.71 120.17 80.67 116.24 75.47 111.14 68.71 115.27"/><polygon class="cls-9" points="2.36 108.62 7.35 113.52 14.31 109.58 9.12 104.48 2.36 108.62"/><polygon class="cls-9" points="14.01 108.62 19 113.52 25.96 109.58 20.76 104.48 14.01 108.62"/><polygon class="cls-9" points="25.66 108.62 30.65 113.52 37.61 109.58 32.41 104.48 25.66 108.62"/><polygon class="cls-9" points="37.3 108.62 42.3 113.52 49.26 109.58 44.06 104.48 37.3 108.62"/><polygon class="cls-9" points="49.25 108.62 54.24 113.52 61.2 109.58 56 104.48 49.25 108.62"/><polygon class="cls-9" points="7.22 114.41 12.22 119.31 19.18 115.37 13.98 110.27 7.22 114.41"/><polygon class="cls-9" points="18.87 114.41 23.87 119.31 30.83 115.37 25.63 110.27 18.87 114.41"/><polygon class="cls-9" points="30.52 114.41 35.52 119.31 42.48 115.37 37.28 110.27 30.52 114.41"/><polygon class="cls-9" points="42.17 114.41 47.17 119.31 54.13 115.37 48.93 110.27 42.17 114.41"/><polygon class="cls-9" points="54.12 114.41 59.11 119.31 66.07 115.37 60.87 110.27 54.12 114.41"/><polygon class="cls-9" points="12.53 120.34 17.53 125.24 24.49 121.3 19.29 116.2 12.53 120.34"/><polygon class="cls-9" points="24.18 120.34 29.18 125.24 36.14 121.3 30.94 116.2 24.18 120.34"/><polygon class="cls-9" points="35.83 120.34 40.83 125.24 47.79 121.3 42.59 116.2 35.83 120.34"/><polygon class="cls-9" points="47.48 120.34 52.47 125.24 59.43 121.3 54.23 116.2 47.48 120.34"/><polygon class="cls-9" points="59.42 120.34 64.42 125.24 71.38 121.3 66.18 116.2 59.42 120.34"/><polygon class="cls-9" points="5.9 126.56 10.89 131.46 17.85 127.52 12.65 122.42 5.9 126.56"/><polygon class="cls-9" points="17.55 126.56 22.54 131.46 29.5 127.52 24.3 122.42 17.55 126.56"/><polygon class="cls-9" points="29.2 126.56 34.19 131.46 41.15 127.52 35.95 122.42 29.2 126.56"/><polygon class="cls-9" points="40.84 126.56 45.84 131.46 52.8 127.52 47.6 122.42 40.84 126.56"/><polygon class="cls-9" points="52.79 126.56 57.78 131.46 64.74 127.52 59.54 122.42 52.79 126.56"/><polygon class="cls-9" points="12.39 133.22 17.38 138.12 24.34 134.18 19.14 129.08 12.39 133.22"/><polygon class="cls-9" points="24.04 133.22 29.03 138.12 35.99 134.18 30.79 129.08 24.04 133.22"/><polygon class="cls-9" points="35.68 133.22 40.68 138.12 47.64 134.18 42.44 129.08 35.68 133.22"/><polygon class="cls-9" points="47.33 133.22 52.33 138.12 59.29 134.18 54.09 129.08 47.33 133.22"/><polygon class="cls-9" points="59.27 133.22 64.27 138.12 71.23 134.18 66.03 129.08 59.27 133.22"/><polygon class="cls-9" points="6.49 139.5 11.49 144.41 18.45 140.47 13.25 135.37 6.49 139.5"/><polygon class="cls-9" points="18.14 139.5 23.14 144.41 30.09 140.47 24.89 135.37 18.14 139.5"/><polygon class="cls-9" points="29.79 139.5 34.78 144.41 41.74 140.47 36.54 135.37 29.79 139.5"/><polygon class="cls-9" points="41.44 139.5 46.43 144.41 53.39 140.47 48.19 135.37 41.44 139.5"/><polygon class="cls-9" points="53.38 139.5 58.38 144.41 65.34 140.47 60.14 135.37 53.38 139.5"/><polygon class="cls-9" points="12.13 145.79 17.13 150.69 24.09 146.76 18.89 141.65 12.13 145.79"/><polygon class="cls-9" points="23.78 145.79 28.77 150.69 35.73 146.76 30.53 141.65 23.78 145.79"/><polygon class="cls-9" points="35.43 145.79 40.42 150.69 47.38 146.76 42.18 141.65 35.43 145.79"/><polygon class="cls-9" points="47.08 145.79 52.07 150.69 59.03 146.76 53.83 141.65 47.08 145.79"/><polygon class="cls-9" points="59.02 145.79 64.01 150.69 70.97 146.76 65.77 141.65 59.02 145.79"/><polygon class="cls-9" points="41.08 152.58 46.07 157.49 53.03 153.55 47.84 148.44 41.08 152.58"/><polygon class="cls-9" points="29.03 152.33 34.03 157.23 40.99 153.3 35.79 148.19 29.03 152.33"/><polygon class="cls-9" points="16.99 152.08 21.98 156.98 28.94 153.04 23.74 147.94 16.99 152.08"/><g class="cls-10"><polygon class="cls-11" points="15.2 96.87 20.19 101.78 27.15 97.84 21.95 92.74 15.2 96.87"/><polygon class="cls-11" points="14.02 107.44 19.01 112.34 25.97 108.4 20.77 103.3 14.02 107.44"/><polygon class="cls-11" points="6.94 101.22 11.94 106.12 18.9 102.18 13.7 97.08 6.94 101.22"/><polygon class="cls-11" points="5.47 124.8 10.46 129.7 17.42 125.77 12.22 120.66 5.47 124.8"/><polygon class="cls-11" points="26.85 96.87 31.84 101.78 38.8 97.84 33.6 92.74 26.85 96.87"/><polygon class="cls-11" points="38.49 96.87 43.49 101.78 50.45 97.84 45.25 92.74 38.49 96.87"/><polygon class="cls-11" points="50.14 96.87 55.14 101.78 62.1 97.84 56.9 92.74 50.14 96.87"/><polygon class="cls-11" points="62.09 96.87 67.08 101.78 74.04 97.84 68.84 92.74 62.09 96.87"/><polygon class="cls-11" points="20.65 102.23 25.65 107.13 32.61 103.19 27.41 98.09 20.65 102.23"/><polygon class="cls-11" points="32.3 102.23 37.3 107.13 44.26 103.19 39.06 98.09 32.3 102.23"/><polygon class="cls-11" points="43.95 102.23 48.95 107.13 55.91 103.19 50.71 98.09 43.95 102.23"/><polygon class="cls-11" points="55.6 102.23 60.59 107.13 67.56 103.19 62.35 98.09 55.6 102.23"/><polygon class="cls-11" points="67.54 102.23 72.54 107.13 79.5 103.19 74.3 98.09 67.54 102.23"/><polygon class="cls-11" points="25.96 107.87 30.96 112.77 37.92 108.84 32.72 103.73 25.96 107.87"/><polygon class="cls-11" points="37.61 107.87 42.61 112.77 49.57 108.84 44.37 103.73 37.61 107.87"/><polygon class="cls-11" points="49.26 107.87 54.25 112.77 61.21 108.84 56.02 103.73 49.26 107.87"/><polygon class="cls-11" points="60.91 107.87 65.9 112.77 72.86 108.84 67.66 103.73 60.91 107.87"/><polygon class="cls-11" points="72.85 107.87 77.85 112.77 84.81 108.84 79.61 103.73 72.85 107.87"/><polygon class="cls-11" points="67.25 114.09 72.24 119 79.2 115.06 74 109.95 67.25 114.09"/><polygon class="cls-11" points="72.41 131.89 77.4 136.79 84.36 132.86 79.17 127.75 72.41 131.89"/><polygon class="cls-11" points="74.18 120.17 79.17 125.07 86.13 121.14 80.93 116.03 74.18 120.17"/><polygon class="cls-11" points="7.83 113.52 12.82 118.42 19.78 114.48 14.58 109.38 7.83 113.52"/><polygon class="cls-11" points="19.47 113.52 24.47 118.42 31.43 114.48 26.23 109.38 19.47 113.52"/><polygon class="cls-11" points="31.12 113.52 36.12 118.42 43.08 114.48 37.88 109.38 31.12 113.52"/><polygon class="cls-11" points="42.77 113.52 47.77 118.42 54.73 114.48 49.53 109.38 42.77 113.52"/><polygon class="cls-11" points="54.72 113.52 59.71 118.42 66.67 114.48 61.47 109.38 54.72 113.52"/><polygon class="cls-11" points="12.69 119.3 17.69 124.2 24.65 120.27 19.45 115.17 12.69 119.3"/><polygon class="cls-11" points="24.34 119.3 29.34 124.2 36.3 120.27 31.1 115.17 24.34 119.3"/><polygon class="cls-11" points="35.99 119.3 40.98 124.2 47.94 120.27 42.74 115.17 35.99 119.3"/><polygon class="cls-11" points="47.64 119.3 52.63 124.2 59.59 120.27 54.39 115.17 47.64 119.3"/><polygon class="cls-11" points="59.58 119.3 64.58 124.2 71.54 120.27 66.34 115.17 59.58 119.3"/><polygon class="cls-11" points="18 125.24 23 130.14 29.95 126.2 24.75 121.1 18 125.24"/><polygon class="cls-11" points="29.65 125.24 34.64 130.14 41.6 126.2 36.4 121.1 29.65 125.24"/><polygon class="cls-11" points="41.3 125.24 46.29 130.14 53.25 126.2 48.05 121.1 41.3 125.24"/><polygon class="cls-11" points="52.95 125.24 57.94 130.14 64.9 126.2 59.7 121.1 52.95 125.24"/><polygon class="cls-11" points="64.89 125.24 69.88 130.14 76.84 126.2 71.64 121.1 64.89 125.24"/><polygon class="cls-11" points="11.36 131.46 16.36 136.36 23.32 132.42 18.12 127.32 11.36 131.46"/><polygon class="cls-11" points="23.01 131.46 28.01 136.36 34.97 132.42 29.77 127.32 23.01 131.46"/><polygon class="cls-11" points="34.66 131.46 39.66 136.36 46.62 132.42 41.42 127.32 34.66 131.46"/><polygon class="cls-11" points="46.31 131.46 51.3 136.36 58.27 132.42 53.07 127.32 46.31 131.46"/><polygon class="cls-11" points="58.25 131.46 63.25 136.36 70.21 132.42 65.01 127.32 58.25 131.46"/><polygon class="cls-11" points="17.85 138.12 22.85 143.02 29.81 139.08 24.61 133.98 17.85 138.12"/><polygon class="cls-11" points="29.5 138.12 34.5 143.02 41.46 139.08 36.26 133.98 29.5 138.12"/><polygon class="cls-11" points="41.15 138.12 46.14 143.02 53.1 139.08 47.91 133.98 41.15 138.12"/><polygon class="cls-11" points="52.8 138.12 57.79 143.02 64.75 139.08 59.55 133.98 52.8 138.12"/><polygon class="cls-11" points="64.74 138.12 69.74 143.02 76.7 139.08 71.5 133.98 64.74 138.12"/><polygon class="cls-11" points="11.96 144.4 16.95 149.3 23.91 145.37 18.71 140.26 11.96 144.4"/><polygon class="cls-11" points="23.61 144.4 28.6 149.3 35.56 145.37 30.36 140.26 23.61 144.4"/><polygon class="cls-11" points="35.26 144.4 40.25 149.3 47.21 145.37 42.01 140.26 35.26 144.4"/><polygon class="cls-11" points="46.9 144.4 51.9 149.3 58.86 145.37 53.66 140.26 46.9 144.4"/><polygon class="cls-11" points="58.85 144.4 63.84 149.3 70.8 145.37 65.6 140.26 58.85 144.4"/><polygon class="cls-11" points="17.6 150.69 22.59 155.59 29.55 151.65 24.35 146.55 17.6 150.69"/><polygon class="cls-11" points="29.25 150.69 34.24 155.59 41.2 151.65 36 146.55 29.25 150.69"/><polygon class="cls-11" points="40.89 150.69 45.89 155.59 52.85 151.65 47.65 146.55 40.89 150.69"/><polygon class="cls-11" points="52.54 150.69 57.54 155.59 64.5 151.65 59.3 146.55 52.54 150.69"/><polygon class="cls-11" points="64.48 150.69 69.48 155.59 76.44 151.65 71.24 146.55 64.48 150.69"/><polygon class="cls-11" points="46.55 157.48 51.54 162.38 58.5 158.44 53.3 153.34 46.55 157.48"/><polygon class="cls-11" points="34.5 157.23 39.49 162.13 46.45 158.19 41.26 153.09 34.5 157.23"/><polygon class="cls-11" points="22.45 156.98 27.45 161.88 34.41 157.94 29.21 152.84 22.45 156.98"/></g></g></g><path class="cls-12" d="M28.43,85.64s3.06,4.53-.63,8.54c0,0,13.7,3.06,19.08-.84,0,0-1.37-5.7-.1-7.8C46.78,85.54,33.81,86.8,28.43,85.64Z" transform="translate(0.01 -4.45)"/><g class="cls-13"><polygon class="cls-14" points="31.25 90.59 33.02 86.98 35.11 90.64 31.25 90.59"/><polygon class="cls-14" points="35.86 87.63 36.34 85.07 39.81 90.82 35.76 90.82 35.86 87.63"/><polygon class="cls-14" points="39.7 89.49 39.8 86.11 43.27 90.5 39.32 90.68 39.7 89.49"/><polygon class="cls-14" points="38.91 90.6 38.91 87.17 40.06 90.17 38.91 90.6"/><polygon class="cls-14" points="34.46 89.81 34.46 89.17 34.46 85.88 36.77 90.81 34.17 90.81 34.46 89.81"/><polygon class="cls-14" points="44.61 88.4 44.71 85.75 46.54 89.95 44.61 90.23 44.61 88.4"/><polygon class="cls-14" points="45.33 85.18 47.41 80.69 46.76 89.92 45.33 85.18"/><polygon class="cls-14" points="41.31 89.84 42.43 86.09 44.82 90.63 41.31 89.84"/><polygon class="cls-14" points="29.07 90.2 29.62 85.66 31.82 90.43 29.07 90.2"/><polygon class="cls-14" points="28.9 90.42 29.09 83.6 30.82 87.41 28.9 90.42"/></g><g class="cls-13"><polygon class="cls-14" points="30.17 87.06 33.17 83.76 35.14 87.42 30.17 87.06"/><polygon class="cls-14" points="35.86 84.4 36.31 81.85 39.6 87.6 35.77 87.6 35.86 84.4"/><polygon class="cls-14" points="39.51 86.27 39.6 82.89 42.89 87.28 39.14 87.46 39.51 86.27"/><polygon class="cls-14" points="38.75 87.38 38.75 83.94 39.85 86.95 38.75 87.38"/><polygon class="cls-14" points="34.53 86.58 34.53 85.94 34.53 82.66 36.72 87.59 34.25 87.59 34.53 86.58"/><polygon class="cls-14" points="44.16 85.18 44.26 82.53 45.99 86.73 44.16 87 44.16 85.18"/><polygon class="cls-14" points="44.84 81.96 47.11 79.71 46.2 86.7 44.84 81.96"/><polygon class="cls-14" points="41.03 86.61 42.1 82.87 44.36 87.4 41.03 86.61"/><polygon class="cls-14" points="29.41 86.98 29.94 82.44 31.94 88.75 29.41 86.98"/></g><g class="cls-13"><polygon class="cls-14" points="31.74 85.76 31.27 81.55 34.77 83.8 31.74 85.76"/><polygon class="cls-14" points="35.52 81.44 37.13 81.47 39.23 83.99 35.39 83.99 35.52 81.44"/><polygon class="cls-14" points="39.13 82.66 38.86 81.67 41.85 81.67 39.52 83.96 39.13 82.66"/><polygon class="cls-14" points="38.38 83.76 38.54 81.63 39.47 83.33 38.38 83.76"/><polygon class="cls-14" points="33.09 83.54 31.3 82.94 30.06 80.68 36.56 83.28 33.88 83.98 33.09 83.54"/><polygon class="cls-14" points="42.4 81.44 45.07 81.4 45.61 83.11 43.46 85.29 42.4 81.44"/><polygon class="cls-14" points="40.31 83.52 41.66 81.92 43.64 84.31 40.31 83.52"/><polygon class="cls-14" points="29.04 83.36 30.66 81.6 31.64 83.59 29.04 83.36"/></g><path class="cls-15" d="M47.49,35l-5.38,7.46a15.88,15.88,0,0,0-1.6,3.6l-1,3.48,3.66-6.59L47,38s6.86-8.78,5.23-10.58c-1-1.12-1.79-1-2.27-3.33-.71-3.44.78,2.2-.09,5.77A32.56,32.56,0,0,1,47.49,35Z" transform="translate(0.01 -4.45)"/><path class="cls-15" d="M44.33,53.86v0a2.35,2.35,0,0,1-3.34.9l-1.36-.65L39,54c.75.58,1.77,1.26,2.07,2.16l2.23,5.58a5,5,0,0,1,.33,1.53l-.12,4.47A6.9,6.9,0,0,0,46,64.62a22.7,22.7,0,0,0,1.34-6.22c.11-1.95.54-11.35.73-14.55C48.41,38.29,45.69,51,44.33,53.86Z" transform="translate(0.01 -4.45)"/><path class="cls-16" d="M12.36,44s3.31,7.18,5.25,8C17.61,52,15.09,46,12.36,44Z" transform="translate(0.01 -4.45)"/><path class="cls-16" d="M29.68,57.47,34.36,63A9.64,9.64,0,0,1,29.68,57.47Z" transform="translate(0.01 -4.45)"/><path class="cls-16" d="M37.4,82.39s-2.32,1.68-2.32,2.27H36A13.59,13.59,0,0,1,37.4,82.39Z" transform="translate(0.01 -4.45)"/><path class="cls-16" d="M49.86,75.57s-2.69,3.27-3.77,3.52A4.07,4.07,0,0,0,49.86,75.57Z" transform="translate(0.01 -4.45)"/><path class="cls-16" d="M55.1,60.81s-5.18,3.44-4.78,4.67a1.47,1.47,0,0,0,1.52,1.46s-1.4-1.58.76-3.09Z" transform="translate(0.01 -4.45)"/><path class="cls-16" d="M15.42,61.36s5.17-5.7,9.51-1.52C24.93,59.84,20.82,57.33,15.42,61.36Z" transform="translate(0.01 -4.45)"/><path class="cls-16" d="M16.18,68.5s3,.37,5.79.47c2.35.08,4.37-1,5,1.35C26.92,70.32,28.48,66.31,16.18,68.5Z" transform="translate(0.01 -4.45)"/><path class="cls-16" d="M30,79.41l4.08.25A3.76,3.76,0,0,0,30,79.41Z" transform="translate(0.01 -4.45)"/><path class="cls-16" d="M41.29,61.74s.13,7.67-1.95,9C39.34,70.73,42.8,68.4,41.29,61.74Z" transform="translate(0.01 -4.45)"/><path class="cls-16" d="M38.1,55.86l2.34,3.27S40,55.8,38.1,55.86Z" transform="translate(0.01 -4.45)"/><path class="cls-16" d="M30.27,25s2.34,8.08-.06,10.6Z" transform="translate(0.01 -4.45)"/><path class="cls-16" d="M36.81,48.86s1.09-6.23.69-8.41C37.5,40.45,39.08,46.09,36.81,48.86Z" transform="translate(0.01 -4.45)"/><path class="cls-16" d="M59.91,47.74,50.23,59.11S57.68,54.8,59.91,47.74Z" transform="translate(0.01 -4.45)"/><path class="cls-16" d="M54.81,35.46,58,31.67A4.18,4.18,0,0,0,54.81,35.46Z" transform="translate(0.01 -4.45)"/><path class="cls-16" d="M58.79,39.57s1,1.38,4.93-4.38C63.72,35.19,61.92,40.89,58.79,39.57Z" transform="translate(0.01 -4.45)"/><g class="cls-17"><path class="cls-18" d="M30.71,72.91s2.19,1.43,4.81-4.3C35.52,68.61,35.65,75.72,30.71,72.91Z" transform="translate(0.01 -4.45)"/><path class="cls-18" d="M39.52,84.17a4.94,4.94,0,0,1,2.82-.94l3.54-1.53A5.48,5.48,0,0,1,39.52,84.17Z" transform="translate(0.01 -4.45)"/><path class="cls-18" d="M21.16,54.3l3.35,2.26s3.26-.27,3.89,2.08C28.4,58.64,25.23,59.09,21.16,54.3Z" transform="translate(0.01 -4.45)"/><path class="cls-18" d="M30.6,69.1l-2.7.11s-.44.22-.22,1.68c0,0,.11.84.34,1A3,3,0,0,1,30.6,69.1Z" transform="translate(0.01 -4.45)"/><path class="cls-18" d="M26.8,78.25a6.26,6.26,0,0,1,1.84,4.14A3.33,3.33,0,0,0,26.8,78.25Z" transform="translate(0.01 -4.45)"/><path class="cls-18" d="M36.39,78.32s1.29-6.13,9.66-8.65Z" transform="translate(0.01 -4.45)"/><path class="cls-18" d="M51.14,49.35s.49,4.95,3.69-.78C54.83,48.57,51.14,58.09,51.14,49.35Z" transform="translate(0.01 -4.45)"/><path class="cls-18" d="M51.43,37.89S49.69,45.56,49.59,47A16.18,16.18,0,0,1,51.43,37.89Z" transform="translate(0.01 -4.45)"/><path class="cls-18" d="M18.07,46.28s5,4.07,7.05,2.19l2.38,1.78s3,1.89,3.18,2.89c0,0-6.32-1.15-7.67-2.16S18.32,48,18.07,46.28Z" transform="translate(0.01 -4.45)"/><path class="cls-18" d="M28.51,62.92s1.25,1.57,4.67,1.64C33.18,64.56,29.69,65.35,28.51,62.92Z" transform="translate(0.01 -4.45)"/></g><path class="cls-18" d="M40.14,43.77s.22-3-.36-3.36l1.29-2.53A20.79,20.79,0,0,1,40.14,43.77Z" transform="translate(0.01 -4.45)"/><path class="cls-19" d="M10.09,122.41,43,158.1l-8.33-.44H33.17C29.23,157.75,7.11,161.07,10.09,122.41Z" transform="translate(0.01 -4.45)"/><path class="cls-20" d="M22.18,96.25s41.28-11.51,44.21,19c2,20.94-.4,25.77-.2,29.14C66.19,144.42,24.56,102,22.18,96.25Z" transform="translate(0.01 -4.45)"/></g></g></svg>