<svg xmlns="http://www.w3.org/2000/svg" viewBox="0 0 129.99 126.94"><defs><style>.cls-1{isolation:isolate;}.cls-2{fill:#ffd61e;stroke:#cc9806;}.cls-2,.cls-5,.cls-6{stroke-miterlimit:10;}.cls-3,.cls-4{fill:#fff;}.cls-3{opacity:0.06;mix-blend-mode:overlay;}.cls-4{opacity:0.18;}.cls-5{fill:#814805;stroke:#6b3607;}.cls-6{fill:#a66807;stroke:#814805;}.cls-7{fill:#ede9e2;}.cls-8{fill:#e0b882;opacity:0.11;}</style></defs><g class="cls-1"><g id="Layer_2" data-name="Layer 2"><circle class="cls-2" cx="66.52" cy="63.47" r="62.97"/><path class="cls-3" d="M68.55,72.87S70.08,55.23,91,42.64c11.19-6.75,52.78-37,81.58,9.65s-10.88,66.25-28.8,71.07-52.37,20-75.13-48h0S67.91,77.05,68.55,72.87Z" transform="translate(-58.48 -11.53)"/><path class="cls-4" d="M67.9,73.12S70.58,18.44,120.71,16s59.77,40.75,59.77,40.75.34,10.07-.23,12.81S175.66,51.94,160.92,53,149,59.1,149,59.1l-7.94,2.15a65.86,65.86,0,0,1-32.29.54l-8-1.88s.08-7.16-8-6.36S75.68,52.21,67.9,73.12Z" transform="translate(-58.48 -11.53)"/></g><g id="Layer_5" data-name="Layer 5"><ellipse class="cls-5" cx="84.67" cy="50.12" rx="7.26" ry="9.3"/><ellipse class="cls-5" cx="46.99" cy="50.12" rx="7.26" ry="9.3"/><path class="cls-6" d="M86.61,86.37s-5.4-4.48-5.25,2.32,7.56,33,37.5,38.27,44.3-23.77,46-28.71A51.49,51.49,0,0,0,167,87.45s.46-3.7-3.4-2.16a99.62,99.62,0,0,1-37.19,6C107.44,90.85,98.18,90.07,86.61,86.37Z" transform="translate(-58.48 -11.53)"/><path class="cls-7" d="M87.32,88.3S82,83.89,82.25,90.68s4,8.75,33.51,11.07c26.37,2.07,40.83-2.18,46.61-6.48,4.11-3,3.17-7,3.17-7s.14-1.92-3.59-.33-18,6.06-36.52,5.85S98.63,91.85,87.32,88.3Z" transform="translate(-58.48 -11.53)"/><ellipse class="cls-8" cx="46.81" cy="50.54" rx="5.03" ry="6.78"/><ellipse class="cls-8" cx="84.72" cy="50.31" rx="5.03" ry="6.78"/></g></g></svg>