<svg xmlns="http://www.w3.org/2000/svg" viewBox="0 0 129.99 126.94"><defs><style>.cls-1{isolation:isolate;}.cls-2{fill:#ffd61e;stroke:#cc9806;stroke-miterlimit:10;}.cls-3,.cls-4{fill:#fff;}.cls-3{opacity:0.06;mix-blend-mode:overlay;}.cls-4{opacity:0.18;}.cls-5{fill:#814805;}</style></defs><title>smirking-face</title><g class="cls-1"><g id="Layer_2" data-name="Layer 2"><circle class="cls-2" cx="66.52" cy="63.47" r="62.97"/><path class="cls-3" d="M68.55,72.87S70.08,55.23,91,42.64c11.19-6.75,52.78-37,81.58,9.65s-10.88,66.25-28.8,71.07-52.37,20-75.13-48h0S67.91,77.05,68.55,72.87Z" transform="translate(-58.48 -11.53)"/><path class="cls-4" d="M67.9,73.12S70.58,18.44,120.71,16s59.77,40.75,59.77,40.75.34,10.07-.23,12.81S175.66,51.94,160.92,53,149,59.1,149,59.1l-7.94,2.15a65.86,65.86,0,0,1-32.29.54l-8-1.88s.08-7.16-8-6.36S75.68,52.21,67.9,73.12Z" transform="translate(-58.48 -11.53)"/></g><g id="Layer_3" data-name="Layer 3"><path class="cls-5" d="M79.62,82.77a6.94,6.94,0,0,0,5-.32c2.63-1.24,9-.93,9-.93s3.72,8.66,9.28,7.66,8.36-5.57,6-10.21-7.12-5.57-12.53-4.72-18.25,5.49-16.94,8" transform="translate(-58.48 -11.53)"/><path class="cls-5" d="M139.35,83a6.94,6.94,0,0,0,5-.32c2.63-1.24,9-.93,9-.93s3.71,8.66,9.28,7.65,8.35-5.56,6-10.2-7.11-5.57-12.53-4.72S138,80,139.26,82.53" transform="translate(-58.48 -11.53)"/><path class="cls-5" d="M69.47,67.46s-.9,5,.91,4.54a9.85,9.85,0,0,0,1.71-3s5-9.66,12.69-11.28,11.28.51,11.28.51,3.43,2.42,4.73,1.71-.9-4.63-1.81-4.83-8.86-4.33-16.31-.81S69.47,67.46,69.47,67.46Z" transform="translate(-58.48 -11.53)"/><path class="cls-5" d="M149.84,55.68s-1.51,2-.81,3.42,3.43,0,3.53-.5,5.54-4.33,10.77-2.31,12,6.44,14.61,13c0,0,3.22,4,2.31.3S173.5,56.49,166.45,54,151.65,54.07,149.84,55.68Z" transform="translate(-58.48 -11.53)"/><path class="cls-5" d="M104.93,114.29s27.8,2.61,35.92-5.07c0,0,5.79-4.2,6.51-10s3,1,3,1,1.45,11.3-5.93,14.49-22.31,4.34-27.38,4S99.42,118.78,104.93,114.29Z" transform="translate(-58.48 -11.53)"/></g></g></svg>