<svg xmlns="http://www.w3.org/2000/svg" viewBox="0 0 142.67 141.26"><defs><style>.cls-1{isolation:isolate;}.cls-2{fill:#c1c1c1;}.cls-3,.cls-4{fill:#d8d8d8;opacity:0.92;}.cls-3{stroke:#878787;stroke-miterlimit:10;stroke-width:0.75px;}.cls-5,.cls-7{fill:#fff;mix-blend-mode:overlay;}.cls-6{fill:#4c4c4c;}.cls-7{opacity:0.43;}</style></defs><title>speech-bubble</title><g class="cls-1"><g id="Layer_2" data-name="Layer 2"><path class="cls-2" d="M74.71,110.58S39.89,87.27,59.83,39C74,4.56,116,2.92,139,4.82a64.82,64.82,0,0,1,41.74,19.57A53.08,53.08,0,0,1,195.5,55.3c.6,5.32,1.14,10.28.64,14.51-2.66,22.56-3.72,31.27-26,45.45a65.84,65.84,0,0,1-6.15,3.27c-2.7,1-7,4-20,5.61-8.74,1.1-21,1-37.88-.64,0,0-19.66,22.58-39.57,22.05,0,0-3.84-.17-.7-4.54,0,0,8.74-8.73,9.26-20.43C75.16,120.58,76.36,113.15,74.71,110.58Z" transform="translate(-53.67 -4.3)"/><ellipse class="cls-3" cx="71.33" cy="60.26" rx="65.43" ry="56.84"/><ellipse class="cls-4" cx="71.39" cy="60.15" rx="67.56" ry="58.11"/><ellipse class="cls-5" cx="71.33" cy="60.32" rx="62.94" ry="54.68"/><circle class="cls-6" cx="47.75" cy="61.7" r="6.19"/><circle class="cls-6" cx="71.33" cy="61.7" r="6.19"/><circle class="cls-6" cx="97.69" cy="61.7" r="6.19"/><path class="cls-7" d="M78.31,125.64l3.14,10s1.86,1.87-2.75,4.94-13.28,4.94-10.31,1.1l8.78-16.24S78,124,78.31,125.64Z" transform="translate(-53.67 -4.3)"/></g></g></svg>