<?xml version="1.0" encoding="utf-8"?>
<!-- Generator: Adobe Illustrator 24.0.1, SVG Export Plug-In . SVG Version: 6.00 Build 0)  -->
<svg version="1.1" id="Layer_1" xmlns="http://www.w3.org/2000/svg" xmlns:xlink="http://www.w3.org/1999/xlink" x="0px" y="0px"
	 viewBox="0 0 144 144" style="enable-background:new 0 0 144 144;" xml:space="preserve">
<style type="text/css">
	.st0{fill:#22ADF5;}
	.st1{fill:#38CEFF;}
	.st2{opacity:0.25;fill:#0E94DB;enable-background:new    ;}
	.st3{opacity:0.89;fill:#1FB0FF;enable-background:new    ;}
	.st4{opacity:0.1;fill:#FFFFFF;enable-background:new    ;}
	.st5{opacity:0.77;fill:#FFFFFF;enable-background:new    ;}
</style>
<title>Splashing-sweat-symbol</title>
<g>
	<g id="Layer_1_1_">
		
			<image style="overflow:visible;enable-background:new    ;" width="144" height="144" xlink:href="64CD4458AFA4FBE4.png"  transform="matrix(-1 0 0 1 144 0)">
		</image>
		<path class="st0" d="M134.5,85c1.1,19.6-4.7,28.4-6.6,30.6c-0.4,0.5-0.8,1-1.1,1.6c-11.3,17.5-45.3,12.8-48.6-11
			c-2.9-20.8,14.8-36.1,19.9-40c1-0.8,2-1.6,2.9-2.5c4-3.8,14.8-14,22-20c9-7.5,8.7,7.1,8.7,7.1L134.5,85z"/>
		<path class="st1" d="M133.6,86.3c1.1,18.5-4.2,27.2-6.2,29.8c-0.6,0.8-1.2,1.6-1.7,2.4c-11.5,16.5-44.1,11.7-47.3-11.4
			c-2.8-20.3,14.4-35.3,19.4-39.3c1.1-0.9,2.2-1.8,3.2-2.8c4.2-3.9,14.4-13.6,21.3-19.3c8.8-7.3,8.5,7,8.5,7L133.6,86.3z"/>
		<g>
			<path class="st2" d="M133.3,96.9c-15.1,18.3-24.3,18-26.9,18.3c-0.2,0-7.3-1.1-7.4-1.2c-7.1-2.8-8.8-5.1-10.1-7.5
				c-2-3.8-2.5-6.3-2.9-12.4c-0.4-5.9,2.4-14,7-19.8c0.3-0.4,0.1-1.1,0.3-1.7s0.6-1.4,0-1.1l-3.6,3.6c-0.1,0.1-2.1,2.3-2.2,2.4
				c-1.3,1.4-10.8,12.1-8.7,24.9c2.2,13.8,15.6,21.1,30.7,19.6c11.8-1.1,21.6-13.7,23.2-19.9c0.5-1.7,0.7-3.5,0.8-5.2L133.3,96.9z"
				/>
		</g>
		<path class="st3" d="M127.1,90.6c-5.2,13.2-16.2,19.4-24.3,16.2S92.9,91,98.1,77.9s15.5-21.9,23.5-18.7
			C129.8,62.4,132.3,77.4,127.1,90.6z"/>
		<path class="st4" d="M127.3,94.3V50.2c0,0,0-0.1,0-0.1c-0.1-0.4-0.4-0.6-0.8-0.5l-1.9,0.4c-0.1,0-0.2,0.1-0.3,0.2
			C122.1,52,96,77.8,94.9,78.9c-0.7,0.7-1.1,6.2-1.2,10.5c-0.3,6.7,3.9,12.8,10.2,15c3.6,1,7.2,1.6,10.9,1.5
			c1.7,0.1,4.7-1.7,4.8-1.8c3.2-2.6,5.7-5.8,7.6-9.5C127.2,94.5,127.3,94.4,127.3,94.3z"/>
		<path class="st5" d="M131.4,91.6c-0.6,4.5-6.3,2.7-5.5,1.4s-0.3-26.3-0.3-29.5c0-2.9-4.3-3.6-7.2-3.5c-3.1,0.2-21.8,22.9-24,20.5
			c-1.5-1.7,2.4-7.5,4.9-10.8c1.1-1.5,2.4-2.9,3.9-4.2c5.4-4.7,20.6-18,22.6-19.9c2.5-2.2,3,2.3,3,2.3S132.1,87.1,131.4,91.6z"/>
		<path class="st0" d="M65.6,60.3c-16.4,14-27.9,14.7-31.1,14.5c-0.7,0-1.4,0-2.1,0C9.5,76.5-8.9,43.7,9.7,25
			C26,8.7,51.1,14,57.9,15.8c1.4,0.4,2.7,0.7,4.1,0.9c6,1,22.1,3.7,32.1,6c12.5,2.9-0.5,12.3-0.5,12.3L65.6,60.3z"/>
		<path class="st1" d="M63.9,60.4C48.4,73.6,37.4,74.7,33.8,74.6c-1.1,0-2.2,0.1-3.3,0.1C8.4,75.6-9,43.9,9.1,25.8
			c15.9-16,40.4-10.8,47.2-9c1.5,0.4,3,0.7,4.6,1c6.2,1,21.4,3.6,31,5.8c12.3,2.9-0.5,12.1-0.5,12.1L63.9,60.4z"/>
		<g>
			<path class="st2" d="M54.3,67.1c-26-1.1-31.9-9.4-33.8-11.4c-0.1-0.1-3.9-7.1-3.9-7.3c-2.3-8.1-1.3-11.1-0.1-13.8
				c2-4.3,3.9-6.4,8.9-10.8c4.9-4.3,13.9-7.1,22-7c0.7,0,1.1-0.6,1.7-0.8s1.6-0.4,1-0.8l-5.5-0.8c-0.1-0.1-3.4-0.3-3.6-0.3
				c-2.1-0.2-17.7-1.4-27.6,8.9C2.9,34.2,5.3,50.7,16.6,63c8.8,9.6,26.3,9.8,32.8,7.1c1.8-0.7,3.5-1.7,5.1-2.8L54.3,67.1z"/>
		</g>
		<path class="st3" d="M55.8,57.5C40.8,61.6,28,56.2,25.5,47s7.2-19.1,22.2-23.2s29.4-0.9,31.9,8.2C82.2,41.2,70.7,53.3,55.8,57.5z"
			/>
		<path class="st4" d="M52.6,60.1l38.6-29.2c0,0,0.1-0.1,0.1-0.1c0.3-0.3,0.2-0.8-0.1-1.1l-1.6-1.4c-0.1-0.1-0.2-0.1-0.3-0.2
			c-3.1-0.6-42.9-6.3-44.6-6.6c-1-0.2-6.1,3.2-10,5.9c-6.1,4.2-8.7,11.9-6.4,18.9c1.4,3.8,3.4,7.4,5.9,10.6c1,1.6,4.6,3,4.7,3
			c4.4,1,8.9,1.1,13.3,0.3C52.4,60.2,52.5,60.2,52.6,60.1z"/>
		<path class="st5" d="M57.7,62c-4.4,2.4-7.1-1.6-6.4-2.8c0.8-1.5,15.2-14.6,18.1-16.7c2.5-1.9,4.9-3.5,5.9-6.5c0.5-1.5-1-6.9-9.7-8
			c-10.9-1.4-22.5-5.2-22.1-7.2c0.5-2.4,7.4-1.8,12.2-1.3c2.1,0.2,4.2,0.2,6.2,0.6c7.7,1.6,29.4,6,32.3,6.6c3.6,0.6-0.1,4.1-0.1,4.1
			S62.1,59.5,57.7,62z"/>
		<path class="st0" d="M59.9,113.2c-2.1,14.9-7.8,20.6-9.6,22c-0.4,0.3-0.8,0.6-1.1,1c-11.2,11.5-36,2.8-34.9-15.6
			c0.9-16.1,16.6-24.9,21-27.1c0.9-0.4,1.7-0.9,2.6-1.4c3.6-2.3,13.3-8.3,19.6-11.7c7.9-4.2,5.4,6.7,5.4,6.7L59.9,113.2z"/>
		<path class="st1" d="M59,114c-2,14.1-7.3,19.8-9.2,21.4c-0.6,0.5-1.1,1-1.7,1.6c-11.2,10.7-34.9,2.1-33.9-15.7
			c0.9-15.7,16.2-24.4,20.6-26.6c1-0.5,1.9-1,2.9-1.6c3.8-2.3,12.9-8.1,19-11.3c7.8-4.2,5.3,6.6,5.3,6.6L59,114z"/>
		<g>
			<path class="st2" d="M57.1,122c-14.1,11.5-21,9.9-23,9.7c-0.1,0-5.3-1.9-5.4-2c-4.9-3.2-5.8-5.2-6.4-7.2
				c-0.9-3.2-0.9-5.3-0.3-9.8s4-10.2,8.3-13.8c0.3-0.3,0.3-0.8,0.5-1.2s0.6-1,0.2-0.9l-3.2,2.1c-0.1,0-1.9,1.4-2,1.5
				c-1.2,0.9-9.9,7.4-10.3,17.4c-0.4,10.7,8.5,18.2,20.1,19.4c9.1,0.9,18.3-7.1,20.5-11.5c0.6-1.2,1.1-2.5,1.4-3.8L57.1,122z"/>
		</g>
		<path class="st3" d="M53.4,116.2c-5.9,9.1-15.1,12.2-20.7,8.6c-5.6-3.6-5.1-13.4,0.9-22.5s15-14.1,20.6-10.5
			S59.3,107.1,53.4,116.2z"/>
		<path class="st4" d="M53,119.1l6.7-33.2c0,0,0-0.1,0-0.1c0-0.3-0.3-0.5-0.5-0.5h-1.5c-0.1,0-0.2,0-0.3,0.1
			C55.6,86.5,32,101.9,31,102.6c-0.6,0.4-1.7,4.5-2.5,7.7c-1.2,5,1,10.2,5.4,12.8c2.5,1.3,5.2,2.3,8,2.8c1.2,0.4,3.8-0.6,3.9-0.6
			c2.8-1.5,5.2-3.5,7.1-6C53,119.2,53,119.2,53,119.1z"/>
		<path class="st5" d="M56.6,117.7c-1.2,3.3-5.2,1-4.4,0.2s-0.1-11.8-0.1-14.3s-2.2-5.7-4.4-6c-2.3-0.3-16,8.3-17.3,6.1
			c-0.9-1.5,2.9-5.3,5.3-7.4c1.1-1,2.3-1.8,3.6-2.6c4.8-2.7,18.2-10.4,20-11.5c2.2-1.3,1.9,2.2,1.9,2.2S57.7,114.3,56.6,117.7z"/>
	</g>
</g>
</svg>
