<svg xmlns="http://www.w3.org/2000/svg" viewBox="0 0 127.88 133.47"><defs><style>.cls-1{isolation:isolate;}.cls-2{fill:#d6d7d8;}.cls-2,.cls-4{stroke:#7e7f7f;stroke-miterlimit:10;stroke-width:0.5px;}.cls-3{fill:#fff;opacity:0.98;}.cls-4{fill:#eaeaea;}.cls-5,.cls-6,.cls-7,.cls-8,.cls-9{fill:#7e7f7f;}.cls-5{opacity:0.54;mix-blend-mode:darken;}.cls-6{opacity:0.38;}.cls-6,.cls-9{mix-blend-mode:multiply;}.cls-8{opacity:0.85;}.cls-9{opacity:0.13;}</style></defs><title>thoughtballon</title><g class="cls-1"><g id="Layer_2" data-name="Layer 2"><circle class="cls-2" cx="11.67" cy="121.8" r="11.42"/><ellipse class="cls-3" cx="11.71" cy="121.7" rx="10.54" ry="10.41"/><path class="cls-4" d="M109.74,19.57S76.83,8.68,70.81,34.87c0,0-1.39,13.68,1.62,15.76,0,0,9.73-6,15.06-6.49,0,0-22.25,5.8-23.87,19.24-1.5,12.41-2.6,25,13.67,33.09,1.35.67,2.81,1.3,4.41,1.91,0,0-4.39-2-3.68,5.72s10.83,13.18,19.62,10c0,0-10.18-7.07.27-26.25,0,0-17.56,27.37,16.45,34.31,0,0,27.08,1.47,25-22.19,0,0,.59,6.91-.9,12.19a8.68,8.68,0,0,0-.48,2.29c0,3.75,4.28,5.26,5.94,5.84,4.28,1.5,23.28-.79,24.19-19.23,0,0-5.38,1-8.15.57,0,0,21.5.76,25.91-14.44s-14.22-29.27-14.22-29.27,9.64,11.61,13.08-6.37-14.39-18.31-14.39-18.31l-1.31,9.15s5.56-26-13.07-28.6-23.72,3-31.55,12.91L132,17.83s-2.73-10.34-15.54-9.89-15,9.78-15,9.78Z" transform="translate(-58.95 -7.67)"/><path class="cls-3" d="M75.9,27.4C72.11,31.13,72.48,42.48,74,48.19c0,0,12.89-6.3,15.21-4.74,0,0-2.76,2.89,1.35,2.54,0,0-8.32-1-17.41,6.94-7.87,6.85-9,8.36-6,29.81.18,1.27,5.56,7.89,7.33,8.94,0,0,3.69,2.4,8,5.1,5,3.07-12.88,11.74,10.69,17a30.16,30.16,0,0,1-.77-13c.94-6.68.86-8.69,6-14.72,0,0,3.26-1.69-1.56,6.51-1,1.73-1.57,4.09-1.81,7.47a19.53,19.53,0,0,0,.62,7c2,5.52,8.07,15.66,25,14,0,0,9.33-1.42,14.73-8.18.18-.22,3.85-3.8,2.91-12.36a1.08,1.08,0,0,1,2-.71c1.4,2.13-1.82,12.43-1.11,14.58,3.25,9.84,22,3.64,26.1-5.3.46-1,3.9-7.89.65-6.87-4.82,1.51-6.34.62-6.8-.43a.73.73,0,0,1,.77-1,8.42,8.42,0,0,0,3.24-.26s19.24-2,21.93-14.12c2.59-11.59-11.56-25.19-11.56-25.19.33.45-7.31-8.45-2.37-4.3,2.32,2,6,5.17,8.73,3.55s5-12.2,4.66-15.58c-.61-7.14-11-11.29-13.45-11.18-.49,0-.21.66-.37,1.7l-1.2,7.45-1.12-.12S172.17,18.4,158,15s-21.6-.58-33.18,13l-1.91-1a71,71,0,0,0,6.85-8.92c1.53-2.61-1.79-5.33-4.73-7.24-3.84-2.49-12.24-1.86-15-1-1.93.59-7.89,5.92-7.66,7.29.11.65,5.86.71,6.74,1a1.53,1.53,0,0,1,.92,2.1L99.22,19.11C89.87,18,82.61,20.78,75.9,27.4Z" transform="translate(-58.95 -7.67)"/><path class="cls-5" d="M161,99.23s25.75-7.31,21-23.39C182.07,75.84,184.09,88.32,161,99.23Z" transform="translate(-58.95 -7.67)"/><path class="cls-5" d="M74.3,55.89S48.61,83.53,86.58,92.74C86.58,92.74,58.94,86,74.3,55.89Z" transform="translate(-58.95 -7.67)"/><path class="cls-6" d="M99.48,90.59s-8.23,13.79,4.45,25.35A38.45,38.45,0,0,1,99.48,90.59Z" transform="translate(-58.95 -7.67)"/><path class="cls-7" d="M135.72,101.93s-1.77,12.9-8.89,14.23C126.83,116.16,135.06,115.72,135.72,101.93Z" transform="translate(-58.95 -7.67)"/><path class="cls-6" d="M163.75,29.73s6.33,2.18,3.42,16C167.17,45.71,165.6,30.44,163.75,29.73Z" transform="translate(-58.95 -7.67)"/><path class="cls-8" d="M173.71,56.25s8.72,12.71,9.62-11.81C183.33,44.44,182.06,63.33,173.71,56.25Z" transform="translate(-58.95 -7.67)"/><path class="cls-9" d="M75.57,30.63l8.13,7.83,3.81,3.6-12.28,4S72.71,40.05,75.57,30.63Z" transform="translate(-58.95 -7.67)"/><path class="cls-9" d="M134.57,19.44s-9.16,15.12-12.36,5.27c0,0-.23-3.66,3-4.12,0,0-13.05,5.27-2.29,11.22S134.57,19.44,134.57,19.44Z" transform="translate(-58.95 -7.67)"/><path class="cls-8" d="M92.69,86.55S94.23,73,105,69.1C105,69.1,94.4,76.28,92.69,86.55Z" transform="translate(-58.95 -7.67)"/><path class="cls-5" d="M88.38,23.63S104.25,21,108.15,25.1,105,15.82,88.38,23.63Z" transform="translate(-58.95 -7.67)"/></g></g></svg>