<svg xmlns="http://www.w3.org/2000/svg" viewBox="0 0 141.9 130.64"><defs><style>.cls-1{isolation:isolate;}.cls-2{fill:#e2839c;}.cls-3{opacity:0.86;}.cls-3,.cls-5{mix-blend-mode:darken;}.cls-4,.cls-5{fill:#922e3f;}.cls-4{opacity:0.46;mix-blend-mode:multiply;}.cls-5{opacity:0.6;}.cls-6,.cls-7{fill:#fff;}.cls-6{opacity:0.08;}.cls-7{opacity:0.3;}</style></defs><title>tounge</title><g class="cls-1"><g id="Layer_3" data-name="Layer 3"><path class="cls-2" d="M71.21,34.42S52.52,80.78,73.37,117.8s103.81,26.91,111-16.17c0,0,4-51.4-5-65.41,0,0-26.6.36-51.4,1.8L72.65,30.47Z" transform="translate(-53.64 -9.91)"/></g><g id="Layer_5" data-name="Layer 5" class="cls-3"><path class="cls-4" d="M69.29,39.78c-1,4.07,2.89,6.55,6.42,4.3,3.34-2.13,7.84-2.79,13.85-.17,19.24,8.36,24.68,23,25.92,25.08,1.06,1.81,12.13,11.71,19.24-.42s0-17.14,17.56-25.08c15.89-7.19,23.91,12,25.28,15.7a4.1,4.1,0,0,1,.27,1.2c.44,5.26-.7,39.38-10,50.77-13.23,16.13-33.66,27.51-64.84,17.25-.22-.07-.79-.35-1-.42a5.37,5.37,0,0,0-1.49-.33c-5.51-.9-5.45,3.88-.18,5.7,12,4.16,28.31,5.88,49.07,0,49.63-14,33.47-71.11,34.79-77.18a9,9,0,0,0-.1-1.36c-.26-2.54-2-16.33-4.67-18.7-3-2.59-.76-.3-.76-.3s-24.46.17-33,2.46-27.77,2.9-37.55,0c-8.14-2.42-33.61-5.46-37-2.93-.53.39-.6,1.46-1.05,2.61C69.7,38.65,69.37,39.42,69.29,39.78Z" transform="translate(-53.64 -9.91)"/></g><g id="Layer_6" data-name="Layer 6"><path class="cls-5" d="M118,40.1s5.7,17.5,5.42,22,3.08,2,3.08-.28c0,0-2.59-15.36,3.05-21.26h0S117.58,41.66,118,40.1" transform="translate(-53.64 -9.91)"/></g><g id="Layer_4" data-name="Layer 4"><path class="cls-6" d="M148,66.84S142.36,87,130.14,90.55s-24.95-3.75-29.63-10.93C98.38,76.33,94,72.5,91.08,66.84c-3.5-6.88-7.22-14-9-21.45h0a4.65,4.65,0,0,0-7.1-2.1l-2.51,1.85c-3.9,2.87-4.24,8.33-4.23,13.17,0,14.18,1.86,42.11,5.88,47.27,5.15,6.62,29.89,40.84,80.44,18,0,0,25.76-11.23,23.45-63.26,0,0-12.61-27.38-26.63-1.86Z" transform="translate(-53.64 -9.91)"/><path class="cls-7" d="M70.26,51.57a8.89,8.89,0,0,1,3.84-5.41C76.7,44.52,80,44.32,80,53.92c0,15.81,1.08,43.48,22.64,52.47s40.25,4.31,46-16.17,2.52-46,15.46-35.94C175.21,62.92,176,80,176,84.7a8.8,8.8,0,0,1-.31,2.34c-1.64,6.17-10.82,35.39-37.81,37.32-30.19,2.15-62.17-1.8-67.92-42C70,82.31,66.78,65.52,70.26,51.57Z" transform="translate(-53.64 -9.91)"/></g><g id="Layer_2" data-name="Layer 2"><path d="M54.52,14.36S51.75,7.82,56,10.59s19.11,21.11,54.3,22.12,54.55-1.26,69.13-10.81c0,0,11.24-7.7,12.21-9.23s4.59-2.78,3.75-.14-6.77,19.37-16.34,23.68c0,0-26.31.67-48.25,5.18a7.1,7.1,0,0,1-1.3.15l-6.14.14A20.54,20.54,0,0,1,118,41.1c-9.5-2.29-42-9.61-47.45-5.06C70.52,36,55.43,21,54.52,14.36Z" transform="translate(-53.64 -9.91)"/></g></g></svg>