<svg xmlns="http://www.w3.org/2000/svg" viewBox="0 0 211.56 100.05"><defs><style>.cls-1{isolation:isolate;}.cls-2{fill:#467249;}.cls-3{fill:#dde8dd;opacity:0.68;}.cls-4{fill:#f44c49;}.cls-5{opacity:0.85;mix-blend-mode:overlay;}.cls-6,.cls-7{fill:#f9f5f4;}.cls-7{opacity:0.7;}.cls-8{opacity:0.93;mix-blend-mode:screen;}</style></defs><title>watermelon</title><g class="cls-1"><g id="fill"><path class="cls-2" d="M24.61,51.61s-9.18,26.22,3.93,44.57,31.91,36.28,62.94,45.89,127.61-2.62,139-52c0,0,6.12-25.35-.43-38.9l-.88-6.12-17,.73-29.8,11.51-79.54,3.06L33.7,52.77Z" transform="translate(-21.49 -45.05)"/><path class="cls-3" d="M29.35,51.86s-8.7,24.93,3.72,42.38,30.25,34.49,59.66,43.63,121-2.49,131.74-49.44c0,0,5.8-24.1-.41-37l-.83-5.82-16.07.69L178.9,57.26l-75.4,2.91L38,53Z" transform="translate(-21.49 -45.05)"/><path class="cls-4" d="M33.7,52.77S28.11,109,97.08,130.53,226,108.31,217.62,68.25l-5.44-22.47-9.23.85-16,3.88-8.09-4.3L159,51.37,142.48,49l-18.91,3.23-43.2-2.77-25.28,1.9Z" transform="translate(-21.49 -45.05)"/></g><g id="shadows" class="cls-5"><path class="cls-6" d="M113.55,139.27c25.73,1.17,70.29-10.85,72.27-14.26,0,0,50-9.67,43.17-66.9L225.28,45.2l-11.5.24-24,7.21s5.07,2.54,15.52,4.75,7.12,2.18,9.61,5.83c1.94,2.84.85,4.63-.73,9.07s-6.66,2.85-6.34,6.65-5.07,4.76-6.34,4.76-2.85,7.92,1.9,8.87-8.55,15.84-8.55,15.84-17.75-1.9-20.28,5.07-15.21,6.66-15.21,6.66c-16.8,15.21-68.13,3.17-68.13,3.17s7-4.76,0-4.76-4.12-5.38-3.81-7.6-19.64-6-17.42-8.56S68.69,97,69,93.85s10.14,3.48,10.14,3.48,5.38,2.85,7.28-1.9-4.75-1.9-4.75-1.9-5.7,2.85-5.07-.63-5.7-4.44-5.7-4.44-7.29,0-5.39-3.17.32-5.39.32-5.39l-6.66,1.9L56,75.47s-.69-2.47,1-3.84-.86-2.92-.86-2.92V64.6h6.68L63,62.88l-4.46-1.19,1.2-4.63,8.74-5-6.17,1.54-7,.17-5.83-.86-11,0-3,.11-2.4-.63-2.83-.21c-7.11,22.1-5.08,52.76,28.55,67.56,1,.43,11.42,6.53,13.56,7.64.81.42,4.17,2.28,5,2.52l27.78,8.66c3,.55,1.54.55,4.3.63h1.59c1.51-.07-1.37,0,.85.19C113.09,139.48,112.35,139.22,113.55,139.27Z" transform="translate(-21.49 -45.05)"/><path class="cls-7" d="M69.91,66.6S76.68,63,80.6,64.82s.72-3.92.72-3.92l5-3.57,2.85,3.57,5-.72L99.5,58h6.42s-1.43,3.57-.72,5.35-3.92,3.92-1.78,6.42S102,77.65,107,77.65s-.36-3.92,5.34-4.28,3.93-6.06,7.13-6.77,4.64-5.35,5.35-1.43-.71,8.56,1.78,8.56,3.57-5,7.49-5.35-.36-6.77,6.42-6.77,12.12-.71,11.76-1.78S147.63,57,147.63,57s5-2.85-2.5-2.13S136.58,53.41,132.3,57s-.71,4.64-6.78,4.28S120.89,60.18,118,58s-8.2-.71-8.2-.71S102.35,54.12,97,54.12s-12.83-.35-12.83-.35S70.62,63,69.91,66.6Z" transform="translate(-21.49 -45.05)"/><path class="cls-7" d="M168.66,54.48s6.42,4.28,11.41,4.28A8.28,8.28,0,0,1,187.2,63S175.08,64.46,176.86,67s8.2,2.49,8.2,2.49,6.78,8.56,2.86,9.63,2.13,4.63,2.13,4.63-6.06-1.42-10,1.43-8.2,6.77-8.2,6.77,11.41.72,13.55-2.49,11.05-7.49,7.84-11.77-8.91-8.2-5.7-10.34S193.26,57,188.63,57,168.66,54.48,168.66,54.48Z" transform="translate(-21.49 -45.05)"/><path class="cls-7" d="M110.36,114.08s0-6.64,7.8-6.64-4.46,5.39,2.23,6.22,27.86,4.15,28.42-3.73,6.68-12,6.68-8.72,20.06,3.74,6.13,10.38-13.37,7.47-17.83,7.47S116.49,122.38,110.36,114.08Z" transform="translate(-21.49 -45.05)"/><path class="cls-6" d="M100.4,101.68s-2.14,2.12,2.14,3.3a7.22,7.22,0,0,0,6.95-1.65l-4.81-4.23Z" transform="translate(-21.49 -45.05)"/></g><g id="seeds" class="cls-8"><ellipse class="cls-6" cx="97.44" cy="39.02" rx="1.6" ry="3.92"/><ellipse class="cls-6" cx="79.95" cy="81.14" rx="3.92" ry="1.6" transform="translate(-55.27 42.6) rotate(-48.7)"/><ellipse class="cls-6" cx="70.31" cy="77.56" rx="3.49" ry="1.6" transform="translate(-53.5 54.62) rotate(-60)"/><ellipse class="cls-6" cx="66.18" cy="40.8" rx="1.6" ry="3.92"/><ellipse class="cls-6" cx="103.47" cy="41.47" rx="1.6" ry="3.92"/><ellipse class="cls-6" cx="133.81" cy="82.56" rx="1.6" ry="3.92" transform="translate(-44.48 25.9) rotate(-27.44)"/><ellipse class="cls-6" cx="135.29" cy="39.67" rx="1.6" ry="3.92"/><ellipse class="cls-6" cx="169.09" cy="82.65" rx="1.6" ry="3.28" transform="translate(-40.51 43.51) rotate(-27.85)"/><ellipse class="cls-6" cx="181.63" cy="77.38" rx="1.6" ry="3.92" transform="translate(-8.54 134.91) rotate(-54.38)"/><ellipse class="cls-6" cx="198.58" cy="70.79" rx="1.6" ry="3.92" transform="translate(3.22 144.96) rotate(-54.06)"/></g></g></svg>